<?xml version="1.0" encoding="UTF-8" standalone="no"?>
<!DOCTYPE svg PUBLIC "-//W3C//DTD SVG 1.1//EN" "http://www.w3.org/Graphics/SVG/1.1/DTD/svg11.dtd">
<!-- Created with Vectornator (http://vectornator.io/) -->
<svg height="100%" stroke-miterlimit="10" style="fill-rule:nonzero;clip-rule:evenodd;stroke-linecap:round;stroke-linejoin:round;" version="1.1" viewBox="213.521 655.036 112.064 20.9339" width="100%" xml:space="preserve" xmlns="http://www.w3.org/2000/svg" xmlns:vectornator="http://vectornator.io" xmlns:xlink="http://www.w3.org/1999/xlink">
<defs/>
<clipPath id="ArtboardFrame">
<rect height="20.9339" width="112.064" x="213.521" y="655.036"/>
</clipPath>
<g clip-path="url(#ArtboardFrame)" id="Layer" vectornator:layerName="Layer">
<path d="M226.706 655.036L226.706 671.036L230.195 671.036L230.195 655.036L226.706 655.036ZM311.673 655.036L311.673 671.036L315.162 671.036L315.162 655.036L311.673 655.036ZM281.351 655.384C281.081 655.384 280.828 655.436 280.589 655.539C280.352 655.642 280.142 655.784 279.964 655.962C279.783 656.142 279.643 656.35 279.54 656.59C279.437 656.827 279.386 657.081 279.386 657.352C279.386 657.622 279.437 657.874 279.54 658.113C279.643 658.351 279.785 658.561 279.964 658.741C280.144 658.921 280.352 659.063 280.589 659.164C280.827 659.267 281.081 659.319 281.351 659.319C281.622 659.319 281.874 659.267 282.113 659.164C282.35 659.061 282.56 658.92 282.739 658.741C282.919 658.561 283.059 658.353 283.162 658.113C283.265 657.876 283.317 657.622 283.317 657.352C283.317 657.081 283.265 656.829 283.162 656.59C283.059 656.352 282.917 656.142 282.739 655.962C282.558 655.782 282.35 655.64 282.113 655.539C281.876 655.436 281.622 655.384 281.351 655.384ZM221.174 656.098C220.158 656.098 219.188 656.288 218.264 656.667C217.338 657.046 216.525 657.572 215.826 658.248C215.124 658.923 214.567 659.726 214.149 660.657C213.731 661.588 213.521 662.613 213.521 663.732C213.521 664.849 213.733 665.882 214.158 666.826C214.582 667.77 215.145 668.587 215.844 669.273C216.545 669.962 217.353 670.493 218.271 670.873C219.19 671.252 220.15 671.441 221.153 671.441C221.641 671.441 222.136 671.393 222.639 671.298C223.139 671.202 223.68 671.051 224.258 670.845L224.643 670.711L224.643 666.239C223.678 667.267 222.593 667.781 221.385 667.781C220.833 667.781 220.32 667.678 219.843 667.472C219.368 667.265 218.952 666.984 218.599 666.623C218.246 666.263 217.97 665.839 217.771 665.352C217.572 664.864 217.471 664.33 217.471 663.75C217.471 663.171 217.57 662.659 217.771 662.17C217.97 661.682 218.242 661.26 218.59 660.907C218.938 660.554 219.352 660.274 219.834 660.068C220.316 659.862 220.839 659.759 221.406 659.759C222.69 659.759 223.77 660.292 224.643 661.36L224.643 656.849C224.026 656.591 223.437 656.402 222.88 656.28C222.32 656.159 221.751 656.098 221.174 656.098ZM304.308 660.782C303.459 660.782 302.697 660.907 302.024 661.157C301.348 661.408 300.774 661.765 300.299 662.227C299.825 662.689 299.458 663.252 299.201 663.912C298.945 664.575 298.816 665.317 298.816 666.139C298.816 666.962 298.95 667.656 299.221 668.298C299.491 668.94 299.872 669.492 300.367 669.956C300.862 670.418 301.457 670.775 302.151 671.025C302.845 671.276 303.61 671.401 304.446 671.401C307.169 671.401 308.872 670.269 309.554 668.007L306.181 668.007C305.796 668.624 305.224 668.933 304.466 668.933C303.053 668.933 302.346 668.182 302.346 666.678L309.691 666.678L309.691 666.312C309.691 665.451 309.567 664.676 309.324 663.99C309.08 663.301 308.726 662.722 308.264 662.245C307.802 661.77 307.236 661.406 306.568 661.156C305.9 660.905 305.147 660.78 304.311 660.78L304.308 660.782ZM304.405 663.036C304.919 663.036 305.357 663.184 305.715 663.48C306.074 663.776 306.314 664.168 306.43 664.656L302.44 664.656C302.53 664.142 302.745 663.743 303.086 663.462C303.426 663.178 303.866 663.038 304.405 663.038L304.405 663.036ZM322.1 660.782C321.432 660.782 320.825 660.865 320.278 661.032C319.732 661.2 319.266 661.437 318.879 661.746C318.495 662.055 318.199 662.431 317.992 662.874C317.786 663.318 317.683 663.815 317.683 664.369C317.683 665.127 317.899 665.721 318.329 666.152C318.76 666.583 319.514 666.907 320.595 667.126C320.917 667.19 321.176 667.251 321.375 667.308C321.574 667.365 321.725 667.429 321.828 667.501C321.931 667.571 321.999 667.648 322.03 667.733C322.061 667.816 322.078 667.923 322.078 668.051C322.078 668.27 321.975 668.449 321.769 668.591C321.563 668.732 321.3 668.802 320.977 668.802C320.103 668.802 319.179 668.467 318.202 667.799L316.931 670.267C318.228 671.025 319.546 671.404 320.882 671.404C321.576 671.404 322.212 671.318 322.79 671.145C323.368 670.972 323.863 670.727 324.275 670.412C324.686 670.098 325.008 669.709 325.24 669.246C325.472 668.784 325.586 668.263 325.586 667.685C325.586 666.914 325.348 666.281 324.873 665.786C324.399 665.291 323.679 664.947 322.715 664.755C322.367 664.678 322.089 664.614 321.876 664.562C321.664 664.51 321.504 664.453 321.393 664.389C321.285 664.325 321.213 664.257 321.182 664.187C321.15 664.117 321.134 664.023 321.134 663.907C321.134 663.688 321.233 663.515 321.434 663.386C321.633 663.257 321.892 663.193 322.214 663.193C322.831 663.193 323.46 663.36 324.104 663.693L325.28 661.419C324.251 660.995 323.191 660.782 322.1 660.782ZM237.153 660.839C236.421 660.839 235.753 660.977 235.149 661.253C234.546 661.529 234.025 661.905 233.587 662.381C233.151 662.856 232.81 663.414 232.565 664.049C232.321 664.685 232.199 665.355 232.199 666.062C232.199 666.82 232.324 667.519 232.575 668.164C232.825 668.806 233.175 669.365 233.625 669.84C234.074 670.315 234.603 670.685 235.206 670.948C235.81 671.211 236.472 671.344 237.192 671.344C238.464 671.344 239.472 670.874 240.218 669.936L240.218 671.035L243.725 671.035L243.725 661.146L240.218 661.146L240.218 662.129C239.408 661.268 238.386 660.837 237.153 660.837L237.153 660.839ZM238.077 663.846C238.386 663.846 238.679 663.903 238.955 664.019C239.231 664.135 239.469 664.295 239.667 664.501C239.866 664.707 240.026 664.949 240.149 665.225C240.271 665.501 240.333 665.793 240.333 666.102C240.333 666.412 240.273 666.701 240.149 666.971C240.028 667.242 239.868 667.479 239.667 667.683C239.469 667.889 239.231 668.049 238.955 668.165C238.679 668.281 238.386 668.338 238.077 668.338C237.768 668.338 237.457 668.28 237.181 668.165C236.905 668.051 236.666 667.889 236.467 667.683C236.268 667.477 236.11 667.236 235.996 666.96C235.88 666.684 235.823 666.384 235.823 666.064C235.823 665.744 235.882 665.469 235.996 665.206C236.112 664.943 236.268 664.709 236.467 664.503C236.666 664.297 236.905 664.137 237.181 664.021C237.457 663.905 237.755 663.848 238.077 663.848L238.077 663.846ZM272.639 660.839C271.354 660.839 270.338 661.308 269.593 662.247L269.593 661.148L266.104 661.148L266.104 675.97L269.593 675.97L269.593 670.072C270.416 670.92 271.445 671.344 272.678 671.344C273.384 671.344 274.039 671.209 274.643 670.939C275.247 670.668 275.771 670.297 276.215 669.82C276.658 669.345 277.004 668.791 277.255 668.162C277.505 667.532 277.63 666.851 277.63 666.119C277.63 665.387 277.505 664.698 277.255 664.056C277.004 663.414 276.655 662.854 276.204 662.379C275.755 661.905 275.223 661.527 274.614 661.251C274.003 660.975 273.346 660.837 272.637 660.837L272.639 660.839ZM271.733 663.846C272.054 663.846 272.354 663.907 272.63 664.028C272.906 664.15 273.147 664.314 273.353 664.52C273.559 664.726 273.716 664.967 273.826 665.243C273.935 665.519 273.99 665.812 273.99 666.121C273.99 666.43 273.929 666.699 273.808 666.969C273.686 667.24 273.524 667.477 273.325 667.681C273.127 667.888 272.891 668.048 272.622 668.164C272.354 668.28 272.063 668.337 271.756 668.337C271.448 668.337 271.156 668.276 270.878 668.154C270.602 668.033 270.361 667.871 270.154 667.672C269.948 667.473 269.788 667.24 269.672 666.969C269.556 666.699 269.499 666.41 269.499 666.101C269.499 665.791 269.56 665.501 269.681 665.223C269.803 664.947 269.963 664.706 270.164 664.499C270.362 664.293 270.598 664.133 270.867 664.017C271.137 663.901 271.426 663.844 271.735 663.844L271.733 663.846ZM245.094 661.148L249.874 669.687L246.5 675.97L250.413 675.97L258.354 661.148L254.346 661.148L251.782 666.218L249.141 661.148C249.141 661.148 245.094 661.148 245.094 661.148ZM279.616 661.148L279.616 671.036L283.105 671.036L283.105 661.148L279.616 661.148ZM285.225 661.148L289.235 665.677L284.299 671.036L288.906 671.036L291.451 668.107L293.976 671.036L298.601 671.036L293.648 665.677L297.754 661.148L293.205 661.148L291.469 663.191L289.773 661.148L285.223 661.148L285.225 661.148Z" fill="#000000" fill-rule="nonzero" opacity="1" stroke="none" vectornator:layerName="path"/>
</g>
</svg>
