<?xml version="1.0" encoding="UTF-8" standalone="no"?>
<!DOCTYPE svg PUBLIC "-//W3C//DTD SVG 1.1//EN" "http://www.w3.org/Graphics/SVG/1.1/DTD/svg11.dtd">
<!-- Created with Vectornator (http://vectornator.io/) -->
<svg height="100%" stroke-miterlimit="10" style="fill-rule:nonzero;clip-rule:evenodd;stroke-linecap:round;stroke-linejoin:round;" version="1.1" viewBox="56.0406 29.995 287.383 87.8637" width="100%" xml:space="preserve" xmlns="http://www.w3.org/2000/svg" xmlns:vectornator="http://vectornator.io" xmlns:xlink="http://www.w3.org/1999/xlink">
<defs/>
<clipPath id="ArtboardFrame">
<rect height="87.8637" width="287.383" x="56.0406" y="29.995"/>
</clipPath>
<g clip-path="url(#ArtboardFrame)" id="Layer" vectornator:layerName="Layer">
<g opacity="1" vectornator:layerName="g">
<path d="M56.3498 30.1901L63.0376 30.1901C63.9927 30.1901 64.9147 30.2839 65.8055 30.4716C66.6944 30.6594 67.4765 30.9722 68.1519 31.4121C68.8255 31.8519 69.3647 32.4427 69.7677 33.1825C70.1708 33.9223 70.3714 34.8443 70.3714 35.9504C70.3714 37.2055 70.156 38.2177 69.7254 38.9851C69.2948 39.7525 68.7132 40.3488 67.9826 40.7702C67.252 41.1917 66.4036 41.4769 65.4392 41.6278C64.4749 41.7787 63.4682 41.8524 62.4192 41.8524L59.8906 41.8524L59.8906 50.0842L56.3498 50.0842L56.3498 30.1901ZM62.0254 38.8176C62.5315 38.8176 63.056 38.7992 63.5989 38.7606C64.1418 38.7238 64.6424 38.6115 65.1025 38.4238C65.5607 38.2361 65.9361 37.9563 66.2269 37.5809C66.5177 37.2055 66.6631 36.681 66.6631 36.0074C66.6631 35.3891 66.5324 34.8977 66.2692 34.5315C66.0061 34.1671 65.6693 33.8855 65.257 33.6886C64.8448 33.4917 64.3866 33.3647 63.8805 33.3095C63.3744 33.2524 62.8867 33.2248 62.4192 33.2248L59.8906 33.2248L59.8906 38.8158L62.0254 38.8158L62.0254 38.8176Z" fill="#000000" fill-rule="nonzero" opacity="1" stroke="none" vectornator:layerName="path"/>
<path d="M75.9053 44.5209C76.0176 45.533 76.4114 46.3189 77.085 46.882C77.7585 47.4433 78.5738 47.7249 79.5289 47.7249C80.3718 47.7249 81.0785 47.5519 81.6509 47.2059C82.2214 46.8599 82.7238 46.4238 83.1544 45.8993L85.5708 47.7249C84.7831 48.6984 83.9034 49.3923 82.9299 49.8045C81.9563 50.2167 80.935 50.4228 79.8676 50.4228C78.8554 50.4228 77.9002 50.2535 77.0021 49.9168C76.104 49.58 75.3256 49.1015 74.6704 48.4831C74.0153 47.8648 73.4944 47.1194 73.1116 46.2489C72.727 45.3785 72.5356 44.4086 72.5356 43.3412C72.5356 42.2738 72.727 41.3039 73.1116 40.4334C73.4944 39.563 74.0153 38.8176 74.6704 38.1993C75.3256 37.5809 76.104 37.1043 77.0021 36.7656C77.9002 36.427 78.8572 36.2595 79.8676 36.2595C80.8043 36.2595 81.6619 36.4233 82.4385 36.7509C83.2151 37.0785 83.8814 37.5515 84.4335 38.1698C84.9856 38.7882 85.4162 39.5519 85.7254 40.4592C86.0346 41.3683 86.1891 42.4118 86.1891 43.5915L86.1891 44.519L75.9053 44.519L75.9053 44.5209ZM84.2237 33.3665L75.2317 33.3665L75.2317 31.1747L84.2237 31.1747L84.2237 33.3665ZM82.8176 41.9922C82.7992 41.0003 82.4901 40.2181 81.8901 39.6458C81.2901 39.0753 80.4565 38.7882 79.3891 38.7882C78.3769 38.7882 77.5763 39.079 76.9874 39.6587C76.3967 40.2402 76.036 41.0168 75.9053 41.9904L82.8176 41.9904L82.8176 41.9922Z" fill="#000000" fill-rule="nonzero" opacity="1" stroke="none" vectornator:layerName="path"/>
<path d="M87.7626 39.4636L87.7626 36.5982L90.5452 36.5982L90.5452 32.6929L93.9168 32.6929L93.9168 36.5982L97.6251 36.5982L97.6251 39.4636L93.9168 39.4636L93.9168 45.3637C93.9168 46.0373 94.0437 46.5728 94.2959 46.9648C94.548 47.3587 95.0504 47.5556 95.7994 47.5556C96.0994 47.5556 96.427 47.5225 96.7822 47.4581C97.1374 47.3918 97.4189 47.2851 97.6251 47.1342L97.6251 49.972C97.2699 50.1413 96.8337 50.2572 96.3184 50.3235C95.8031 50.3897 95.3486 50.421 94.9547 50.421C94.0548 50.421 93.3205 50.3235 92.7481 50.1266C92.1758 49.9296 91.7268 49.6297 91.3992 49.2266C91.0716 48.8236 90.8471 48.323 90.7238 47.7231C90.6023 47.1231 90.5416 46.4311 90.5416 45.6435L90.5416 39.4617L87.759 39.4617L87.7626 39.4636Z" fill="#000000" fill-rule="nonzero" opacity="1" stroke="none" vectornator:layerName="path"/>
<path d="M102.964 44.5209C103.076 45.533 103.47 46.3189 104.144 46.882C104.817 47.4433 105.632 47.7249 106.588 47.7249C107.43 47.7249 108.137 47.5519 108.709 47.2059C109.28 46.8599 109.782 46.4238 110.213 45.8993L112.629 47.7249C111.842 48.6984 110.962 49.3923 109.989 49.8045C109.015 50.2167 107.994 50.4228 106.926 50.4228C105.914 50.4228 104.959 50.2535 104.061 49.9168C103.163 49.58 102.384 49.1015 101.729 48.4831C101.074 47.8648 100.553 47.1194 100.17 46.2489C99.7856 45.3785 99.5942 44.4086 99.5942 43.3412C99.5942 42.2738 99.7856 41.3039 100.17 40.4334C100.553 39.563 101.074 38.8176 101.729 38.1993C102.384 37.5809 103.163 37.1043 104.061 36.7656C104.959 36.427 105.916 36.2595 106.926 36.2595C107.863 36.2595 108.721 36.4233 109.497 36.7509C110.274 37.0785 110.94 37.5515 111.492 38.1698C112.044 38.7882 112.475 39.5519 112.784 40.4592C113.093 41.3683 113.248 42.4118 113.248 43.5915L113.248 44.519L102.964 44.519L102.964 44.5209ZM109.876 41.9922C109.858 41.0003 109.549 40.2181 108.949 39.6458C108.349 39.0753 107.515 38.7882 106.448 38.7882C105.435 38.7882 104.635 39.079 104.046 39.6587C103.455 40.2402 103.095 41.0168 102.964 41.9904L109.876 41.9904L109.876 41.9922Z" fill="#000000" fill-rule="nonzero" opacity="1" stroke="none" vectornator:layerName="path"/>
<path d="M116.395 36.5963L119.766 36.5963L119.766 38.7311L119.821 38.7311C120.197 37.9453 120.731 37.3361 121.423 36.9055C122.115 36.4749 122.911 36.2595 123.811 36.2595C124.017 36.2595 124.218 36.2779 124.415 36.3166C124.612 36.3552 124.813 36.4012 125.019 36.4565L125.019 39.7157C124.737 39.6403 124.461 39.5795 124.19 39.5335C123.918 39.4875 123.651 39.4636 123.39 39.4636C122.602 39.4636 121.971 39.609 121.493 39.8997C121.014 40.1905 120.65 40.5236 120.396 40.8972C120.144 41.2726 119.974 41.6462 119.89 42.0217C119.805 42.3971 119.763 42.6768 119.763 42.8645L119.763 50.0861L116.391 50.0861L116.391 36.5982L116.395 36.5963Z" fill="#000000" fill-rule="nonzero" opacity="1" stroke="none" vectornator:layerName="path"/>
<path d="M135.753 48.2292L135.669 48.2292C135.181 48.9966 134.563 49.5542 133.814 49.9002C133.065 50.2462 132.24 50.4192 131.34 50.4192C130.722 50.4192 130.118 50.3345 129.527 50.167C128.937 49.9977 128.412 49.7456 127.954 49.4088C127.494 49.072 127.126 48.6506 126.844 48.1445C126.563 47.6384 126.423 47.0495 126.423 46.3741C126.423 45.6435 126.553 45.0214 126.817 44.5061C127.078 43.9908 127.429 43.5602 127.871 43.2142C128.311 42.8682 128.823 42.5922 129.402 42.3861C129.982 42.1799 130.588 42.0253 131.215 41.9223C131.843 41.8192 132.474 41.753 133.112 41.7254C133.749 41.6978 134.349 41.683 134.91 41.683L135.753 41.683L135.753 41.3187C135.753 40.4758 135.463 39.8427 134.883 39.4213C134.301 38.9998 133.562 38.7882 132.663 38.7882C131.951 38.7882 131.287 38.9152 130.668 39.1673C130.05 39.4194 129.516 39.7617 129.067 40.1924L127.297 38.4219C128.046 37.6545 128.922 37.1006 129.925 36.7638C130.926 36.427 131.962 36.2577 133.03 36.2577C133.985 36.2577 134.791 36.3663 135.446 36.5816C136.101 36.7969 136.644 37.073 137.077 37.4098C137.507 37.7465 137.84 38.1367 138.074 38.5765C138.308 39.0164 138.477 39.4617 138.58 39.9108C138.683 40.3598 138.744 40.796 138.762 41.2174C138.781 41.6389 138.79 42.0088 138.79 42.3272L138.79 50.0824L135.755 50.0824L135.755 48.2273L135.753 48.2292ZM135.556 44.0424L134.853 44.0424C134.384 44.0424 133.86 44.0608 133.28 44.0994C132.698 44.1381 132.152 44.2264 131.637 44.3663C131.121 44.5061 130.685 44.7123 130.33 44.9846C129.975 45.257 129.796 45.6361 129.796 46.122C129.796 46.4403 129.866 46.7072 130.006 46.9225C130.146 47.1378 130.33 47.32 130.554 47.4709C130.779 47.6218 131.033 47.7286 131.313 47.7948C131.594 47.8611 131.874 47.8924 132.155 47.8924C133.317 47.8924 134.174 47.6163 134.726 47.0642C135.279 46.5121 135.555 45.7576 135.555 44.8024L135.555 44.0442L135.556 44.0424Z" fill="#000000" fill-rule="nonzero" opacity="1" stroke="none" vectornator:layerName="path"/>
<path d="M151.124 30.1901L156.518 30.1901L161.829 44.127L167.196 30.1901L172.535 30.1901L172.535 50.0842L169.163 50.0842L169.163 33.5616L169.106 33.5616L163.064 50.0842L160.591 50.0842L154.549 33.5616L154.492 33.5616L154.492 50.0842L151.12 50.0842L151.12 30.1901L151.124 30.1901Z" fill="#000000" fill-rule="nonzero" opacity="1" stroke="none" vectornator:layerName="path"/>
<path d="M185.178 48.2292L185.093 48.2292C184.605 48.9966 183.987 49.5542 183.238 49.9002C182.489 50.2462 181.665 50.4192 180.765 50.4192C180.146 50.4192 179.543 50.3345 178.952 50.167C178.361 49.9977 177.837 49.7456 177.378 49.4088C176.918 49.072 176.55 48.6506 176.269 48.1445C175.987 47.6384 175.847 47.0495 175.847 46.3741C175.847 45.6435 175.978 45.0214 176.241 44.5061C176.502 43.9908 176.854 43.5602 177.296 43.2142C177.735 42.8682 178.247 42.5922 178.827 42.3861C179.406 42.1799 180.012 42.0253 180.639 41.9223C181.267 41.8192 181.898 41.753 182.537 41.7254C183.174 41.6978 183.774 41.683 184.335 41.683L185.178 41.683L185.178 41.3187C185.178 40.4758 184.887 39.8427 184.307 39.4213C183.726 38.9998 182.986 38.7882 182.088 38.7882C181.376 38.7882 180.711 38.9152 180.093 39.1673C179.474 39.4194 178.941 39.7617 178.492 40.1924L176.721 38.4219C177.47 37.6545 178.346 37.1006 179.349 36.7638C180.35 36.427 181.387 36.2577 182.454 36.2577C183.409 36.2577 184.215 36.3663 184.87 36.5816C185.526 36.7969 186.068 37.073 186.501 37.4098C186.932 37.7465 187.265 38.1367 187.498 38.5765C187.732 39.0164 187.901 39.4617 188.004 39.9108C188.108 40.3598 188.168 40.796 188.187 41.2174C188.205 41.6389 188.214 42.0088 188.214 42.3272L188.214 50.0824L185.18 50.0824L185.18 48.2273L185.178 48.2292ZM184.981 44.0424L184.278 44.0424C183.809 44.0424 183.284 44.0608 182.704 44.0994C182.123 44.1381 181.576 44.2264 181.061 44.3663C180.546 44.5061 180.109 44.7123 179.754 44.9846C179.399 45.257 179.221 45.6361 179.221 46.122C179.221 46.4403 179.29 46.7072 179.43 46.9225C179.57 47.1378 179.754 47.32 179.979 47.4709C180.203 47.6218 180.457 47.7286 180.737 47.7948C181.019 47.8611 181.298 47.8924 181.58 47.8924C182.741 47.8924 183.599 47.6163 184.151 47.0642C184.703 46.5121 184.979 45.7576 184.979 44.8024L184.979 44.0442L184.981 44.0424Z" fill="#000000" fill-rule="nonzero" opacity="1" stroke="none" vectornator:layerName="path"/>
<path d="M191.838 36.5963L195.209 36.5963L195.209 38.7311L195.265 38.7311C195.64 37.9453 196.174 37.3361 196.866 36.9055C197.558 36.4749 198.355 36.2595 199.255 36.2595C199.461 36.2595 199.661 36.2779 199.858 36.3166C200.055 36.3552 200.256 36.4012 200.462 36.4565L200.462 39.7157C200.18 39.6403 199.904 39.5795 199.634 39.5335C199.361 39.4875 199.094 39.4636 198.833 39.4636C198.045 39.4636 197.414 39.609 196.936 39.8997C196.457 40.1905 196.093 40.5236 195.839 40.8972C195.587 41.2726 195.417 41.6462 195.333 42.0217C195.248 42.3971 195.206 42.6768 195.206 42.8645L195.206 50.0861L191.834 50.0861L191.834 36.5982L191.838 36.5963Z" fill="#000000" fill-rule="nonzero" opacity="1" stroke="none" vectornator:layerName="path"/>
<path d="M201.194 39.4636L201.194 36.5982L203.977 36.5982L203.977 32.6929L207.348 32.6929L207.348 36.5982L211.057 36.5982L211.057 39.4636L207.348 39.4636L207.348 45.3637C207.348 46.0373 207.475 46.5728 207.727 46.9648C207.98 47.3587 208.482 47.5556 209.231 47.5556C209.531 47.5556 209.859 47.5225 210.214 47.4581C210.569 47.3918 210.851 47.2851 211.057 47.1342L211.057 49.972C210.701 50.1413 210.265 50.2572 209.75 50.3235C209.235 50.3897 208.78 50.421 208.386 50.421C207.486 50.421 206.752 50.3235 206.18 50.1266C205.607 49.9296 205.158 49.6297 204.831 49.2266C204.503 48.8236 204.279 48.323 204.155 47.7231C204.034 47.1231 203.973 46.4311 203.973 45.6435L203.973 39.4617L201.191 39.4617L201.194 39.4636Z" fill="#000000" fill-rule="nonzero" opacity="1" stroke="none" vectornator:layerName="path"/>
<path d="M213.304 32.0175C213.304 31.4746 213.504 31.0017 213.907 30.5986C214.31 30.1956 214.82 29.995 215.439 29.995C216.057 29.995 216.576 30.1864 216.997 30.571C217.419 30.9557 217.63 31.4378 217.63 32.0175C217.63 32.5973 217.421 33.0813 216.997 33.4641C216.576 33.8487 216.057 34.0401 215.439 34.0401C214.82 34.0401 214.31 33.8395 213.907 33.4364C213.504 33.0334 213.304 32.5604 213.304 32.0175ZM213.782 36.5963L217.154 36.5963L217.154 50.0842L213.782 50.0842C213.782 50.0842 213.782 36.5963 213.782 36.5963Z" fill="#000000" fill-rule="nonzero" opacity="1" stroke="none" vectornator:layerName="path"/>
<path d="M221.031 36.5963L224.235 36.5963L224.235 38.7606L224.291 38.7606C224.609 38.087 225.097 37.5018 225.752 37.0049C226.407 36.508 227.298 36.2595 228.42 36.2595C229.32 36.2595 230.082 36.4104 230.71 36.7086C231.337 37.0086 231.847 37.4024 232.241 37.8882C232.635 38.3759 232.914 38.9372 233.084 39.574C233.253 40.2108 233.336 40.877 233.336 41.5689L233.336 50.0824L229.964 50.0824L229.964 43.2547C229.964 42.8793 229.946 42.4633 229.907 42.0051C229.869 41.5469 229.771 41.1162 229.613 40.7132C229.453 40.3101 229.206 39.9734 228.868 39.701C228.531 39.4305 228.071 39.2943 227.491 39.2943C226.911 39.2943 226.457 39.3881 226.072 39.5758C225.687 39.7636 225.369 40.0157 225.117 40.3341C224.865 40.6524 224.681 41.0187 224.569 41.4291C224.456 41.8413 224.399 42.272 224.399 42.721L224.399 50.0824L221.028 50.0824L221.028 36.5945L221.031 36.5963Z" fill="#000000" fill-rule="nonzero" opacity="1" stroke="none" vectornator:layerName="path"/>
<path d="M244.352 40.3341C243.697 39.4157 242.816 38.9575 241.711 38.9575C241.262 38.9575 240.821 39.0698 240.39 39.2943C239.959 39.5188 239.744 39.885 239.744 40.3893C239.744 40.8015 239.923 41.1015 240.278 41.2892C240.633 41.4769 241.084 41.6352 241.627 41.7677C242.17 41.8984 242.755 42.0345 243.382 42.1744C244.01 42.3143 244.595 42.5314 245.138 42.8204C245.681 43.1112 246.13 43.5087 246.487 44.0148C246.842 44.5209 247.021 45.2147 247.021 46.0944C247.021 46.9004 246.848 47.5795 246.502 48.1316C246.156 48.6837 245.705 49.1291 245.153 49.4659C244.601 49.8027 243.977 50.0474 243.285 50.1965C242.591 50.3456 241.899 50.421 241.205 50.421C240.156 50.421 239.192 50.2701 238.31 49.972C237.429 49.672 236.643 49.1291 235.951 48.3414L238.198 46.2342C238.629 46.7219 239.093 47.1194 239.589 47.4286C240.086 47.7378 240.69 47.8924 241.402 47.8924C241.645 47.8924 241.899 47.8648 242.16 47.8077C242.422 47.7507 242.666 47.6586 242.891 47.5261C243.116 47.3955 243.298 47.2317 243.439 47.0348C243.579 46.8379 243.651 46.6097 243.651 46.3465C243.651 45.879 243.473 45.5312 243.117 45.3067C242.762 45.0822 242.311 44.9 241.768 44.7583C241.225 44.6184 240.64 44.4877 240.013 44.3644C239.385 44.243 238.8 44.046 238.257 43.7737C237.714 43.5031 237.263 43.1222 236.908 42.6363C236.553 42.1487 236.374 41.4751 236.374 40.6138C236.374 39.8648 236.529 39.2133 236.838 38.6612C237.147 38.1091 237.554 37.6545 238.06 37.2993C238.566 36.9441 239.146 36.681 239.803 36.5135C240.458 36.3442 241.124 36.2614 241.798 36.2614C242.698 36.2614 243.587 36.416 244.466 36.7251C245.346 37.0343 246.058 37.5643 246.601 38.3134L244.354 40.3359L244.352 40.3341Z" fill="#000000" fill-rule="nonzero" opacity="1" stroke="none" vectornator:layerName="path"/>
<path d="M248.96 43.3412C248.96 42.2738 249.152 41.3039 249.536 40.4334C249.919 39.563 250.44 38.8176 251.095 38.1993C251.75 37.5809 252.529 37.1043 253.427 36.7656C254.325 36.427 255.282 36.2595 256.292 36.2595C257.303 36.2595 258.26 36.4289 259.158 36.7656C260.056 37.1024 260.834 37.5809 261.49 38.1993C262.145 38.8176 262.666 39.5611 263.048 40.4334C263.431 41.3039 263.624 42.2738 263.624 43.3412C263.624 44.4086 263.433 45.3785 263.048 46.2489C262.664 47.1194 262.145 47.8648 261.49 48.4831C260.834 49.1015 260.056 49.5781 259.158 49.9168C258.26 50.2554 257.303 50.4228 256.292 50.4228C255.282 50.4228 254.325 50.2535 253.427 49.9168C252.529 49.58 251.75 49.1015 251.095 48.4831C250.44 47.8648 249.919 47.1194 249.536 46.2489C249.152 45.3785 248.96 44.4086 248.96 43.3412ZM252.332 43.3412C252.332 43.8657 252.42 44.3718 252.599 44.8576C252.777 45.3453 253.039 45.776 253.385 46.1496C253.731 46.525 254.148 46.8231 254.634 47.0495C255.122 47.274 255.674 47.3863 256.292 47.3863C256.911 47.3863 257.463 47.274 257.951 47.0495C258.438 46.825 258.854 46.525 259.2 46.1496C259.546 45.7741 259.809 45.3435 259.988 44.8576C260.166 44.3699 260.255 43.8657 260.255 43.3412C260.255 42.8167 260.166 42.3106 259.988 41.8247C259.809 41.3371 259.548 40.9064 259.2 40.5328C258.854 40.1592 258.436 39.8593 257.951 39.6329C257.463 39.4084 256.911 39.2961 256.292 39.2961C255.674 39.2961 255.122 39.4084 254.634 39.6329C254.147 39.8574 253.731 40.1574 253.385 40.5328C253.039 40.9083 252.776 41.3389 252.599 41.8247C252.42 42.3124 252.332 42.8185 252.332 43.3412Z" fill="#000000" fill-rule="nonzero" opacity="1" stroke="none" vectornator:layerName="path"/>
<path d="M266.773 36.5963L269.977 36.5963L269.977 38.7606L270.032 38.7606C270.351 38.087 270.839 37.5018 271.494 37.0049C272.149 36.508 273.04 36.2595 274.162 36.2595C275.062 36.2595 275.824 36.4104 276.452 36.7086C277.079 37.0086 277.589 37.4024 277.983 37.8882C278.377 38.3759 278.656 38.9372 278.826 39.574C278.995 40.2108 279.078 40.877 279.078 41.5689L279.078 50.0824L275.706 50.0824L275.706 43.2547C275.706 42.8793 275.688 42.4633 275.649 42.0051C275.611 41.5469 275.513 41.1162 275.355 40.7132C275.195 40.3101 274.948 39.9734 274.609 39.701C274.273 39.4305 273.813 39.2943 273.233 39.2943C272.653 39.2943 272.199 39.3881 271.814 39.5758C271.429 39.7636 271.111 40.0157 270.859 40.3341C270.607 40.6524 270.423 41.0187 270.31 41.4291C270.198 41.8413 270.141 42.272 270.141 42.721L270.141 50.0824L266.77 50.0824L266.77 36.5945L266.773 36.5963Z" fill="#000000" fill-rule="nonzero" opacity="1" stroke="none" vectornator:layerName="path"/>
<path d="M291.331 48.2292L291.246 48.2292C290.758 48.9966 290.14 49.5542 289.391 49.9002C288.642 50.2462 287.818 50.4192 286.918 50.4192C286.299 50.4192 285.696 50.3345 285.105 50.167C284.514 49.9977 283.99 49.7456 283.531 49.4088C283.071 49.072 282.703 48.6506 282.422 48.1445C282.14 47.6384 282 47.0495 282 46.3741C282 45.6435 282.131 45.0214 282.394 44.5061C282.655 43.9908 283.007 43.5602 283.449 43.2142C283.888 42.8682 284.4 42.5922 284.98 42.3861C285.559 42.1799 286.165 42.0253 286.792 41.9223C287.42 41.8192 288.051 41.753 288.69 41.7254C289.327 41.6978 289.927 41.683 290.488 41.683L291.331 41.683L291.331 41.3187C291.331 40.4758 291.04 39.8427 290.46 39.4213C289.879 38.9998 289.139 38.7882 288.241 38.7882C287.529 38.7882 286.864 38.9152 286.246 39.1673C285.628 39.4194 285.094 39.7617 284.645 40.1924L282.874 38.4219C283.623 37.6545 284.499 37.1006 285.502 36.7638C286.504 36.427 287.54 36.2577 288.607 36.2577C289.562 36.2577 290.368 36.3663 291.023 36.5816C291.679 36.7969 292.221 37.073 292.654 37.4098C293.085 37.7465 293.418 38.1367 293.651 38.5765C293.885 39.0164 294.054 39.4617 294.158 39.9108C294.261 40.3598 294.321 40.796 294.34 41.2174C294.358 41.6389 294.367 42.0088 294.367 42.3272L294.367 50.0824L291.333 50.0824L291.333 48.2273L291.331 48.2292ZM291.134 44.0424L290.431 44.0424C289.962 44.0424 289.437 44.0608 288.857 44.0994C288.276 44.1381 287.729 44.2264 287.214 44.3663C286.699 44.5061 286.262 44.7123 285.907 44.9846C285.552 45.257 285.374 45.6361 285.374 46.122C285.374 46.4403 285.443 46.7072 285.583 46.9225C285.723 47.1378 285.907 47.32 286.132 47.4709C286.356 47.6218 286.61 47.7286 286.89 47.7948C287.172 47.8611 287.451 47.8924 287.733 47.8924C288.894 47.8924 289.752 47.6163 290.304 47.0642C290.856 46.5121 291.132 45.7576 291.132 44.8024L291.132 44.0442L291.134 44.0424Z" fill="#000000" fill-rule="nonzero" opacity="1" stroke="none" vectornator:layerName="path"/>
<path d="M56.0406 70.3152L59.2446 70.3152L59.2446 72.3377L59.2998 72.3377C59.7875 71.5132 60.4427 70.9151 61.2672 70.5397C62.0916 70.1661 62.9805 69.9784 63.9357 69.9784C64.9663 69.9784 65.892 70.1606 66.7183 70.5268C67.5428 70.8912 68.2439 71.3936 68.8255 72.0304C69.4052 72.6671 69.8469 73.4161 70.1468 74.2774C70.4468 75.1387 70.5959 76.0662 70.5959 77.06C70.5959 78.0538 70.4358 78.9795 70.1192 79.8426C69.8009 80.7039 69.3555 81.4548 68.785 82.0897C68.2126 82.7265 67.5243 83.227 66.7201 83.5933C65.914 83.9576 65.0344 84.1417 64.0792 84.1417C63.4425 84.1417 62.8793 84.0754 62.3935 83.9448C61.9058 83.8141 61.4751 83.6448 61.1015 83.4387C60.7261 83.2326 60.4077 83.0136 60.1464 82.778C59.8832 82.5443 59.6679 82.3142 59.5004 82.0897L59.4158 82.0897L59.4158 90.2093L56.0443 90.2093L56.0443 70.3152L56.0406 70.3152ZM67.2244 77.0582C67.2244 76.5337 67.136 76.0276 66.9575 75.5417C66.779 75.0541 66.5177 74.6234 66.1699 74.2498C65.8239 73.8762 65.4061 73.5763 64.9203 73.3499C64.4326 73.1254 63.8805 73.0131 63.2621 73.0131C62.6438 73.0131 62.0916 73.1254 61.604 73.3499C61.1163 73.5744 60.7003 73.8744 60.3544 74.2498C60.0084 74.6253 59.7452 75.0559 59.5685 75.5417C59.39 76.0294 59.3017 76.5355 59.3017 77.0582C59.3017 77.5808 59.39 78.0888 59.5685 78.5746C59.747 79.0623 60.0084 79.493 60.3544 79.8666C60.7003 80.242 61.1181 80.5401 61.604 80.7665C62.0916 80.991 62.6438 81.1033 63.2621 81.1033C63.8805 81.1033 64.4326 80.991 64.9203 80.7665C65.408 80.542 65.8239 80.242 66.1699 79.8666C66.5158 79.4911 66.779 79.0605 66.9575 78.5746C67.136 78.0869 67.2244 77.5827 67.2244 77.0582Z" fill="#000000" fill-rule="nonzero" opacity="1" stroke="none" vectornator:layerName="path"/>
<path d="M82.1717 81.948L82.087 81.948C81.5993 82.7154 80.981 83.273 80.2319 83.619C79.4829 83.965 78.6584 84.138 77.7585 84.138C77.1402 84.138 76.5365 84.0533 75.9458 83.8859C75.355 83.7166 74.8305 83.4644 74.3723 83.1277C73.9122 82.7909 73.5441 82.3694 73.2626 81.8633C72.981 81.3572 72.8411 80.7683 72.8411 80.0929C72.8411 79.3623 72.9718 78.7403 73.2349 78.225C73.4963 77.7097 73.8478 77.279 74.2895 76.933C74.7293 76.5871 75.2409 76.311 75.8206 76.1049C76.4003 75.8988 77.0058 75.7442 77.6334 75.6411C78.2609 75.5381 78.8922 75.4718 79.5308 75.4442C80.1675 75.4166 80.7675 75.4019 81.3288 75.4019L82.1717 75.4019L82.1717 75.0375C82.1717 74.1946 81.8809 73.5615 81.3012 73.1401C80.7196 72.7187 79.9798 72.507 79.0817 72.507C78.3695 72.507 77.7051 72.634 77.0868 72.8861C76.4684 73.1383 75.9347 73.4806 75.4857 73.9112L73.7153 72.1408C74.4643 71.3734 75.3403 70.8194 76.3433 70.4826C77.3444 70.1458 78.3806 69.9765 79.448 69.9765C80.4031 69.9765 81.2092 70.0851 81.8643 70.3004C82.5195 70.5158 83.0624 70.7918 83.4949 71.1286C83.9255 71.4654 84.2586 71.8555 84.4923 72.2954C84.7261 72.7352 84.8954 73.1806 84.9984 73.6296C85.1015 74.0787 85.1622 74.5148 85.1806 74.9363C85.199 75.3577 85.2082 75.7276 85.2082 76.046L85.2082 83.8012L82.1735 83.8012L82.1735 81.9462L82.1717 81.948ZM81.9748 77.7612L81.2717 77.7612C80.8025 77.7612 80.278 77.7796 79.6982 77.8183C79.1167 77.8569 78.5701 77.9452 78.0548 78.0851C77.5395 78.225 77.1034 78.4311 76.7482 78.7035C76.393 78.9758 76.2145 79.3549 76.2145 79.8408C76.2145 80.1592 76.2844 80.426 76.4243 80.6413C76.5641 80.8567 76.7482 81.0389 76.9727 81.1898C77.1972 81.3407 77.4512 81.4474 77.7309 81.5137C78.0125 81.5799 78.2922 81.6112 78.5738 81.6112C79.7351 81.6112 80.5927 81.3352 81.1448 80.7831C81.6969 80.2309 81.9729 79.4764 81.9729 78.5213L81.9729 77.763L81.9748 77.7612Z" fill="#000000" fill-rule="nonzero" opacity="1" stroke="none" vectornator:layerName="path"/>
<path d="M88.83 70.3152L92.0341 70.3152L92.0341 72.3377L92.0893 72.3377C92.577 71.5132 93.2322 70.9151 94.0566 70.5397C94.8811 70.1661 95.77 69.9784 96.7251 69.9784C97.7557 69.9784 98.6814 70.1606 99.5077 70.5268C100.332 70.8912 101.033 71.3936 101.615 72.0304C102.195 72.6671 102.636 73.4161 102.936 74.2774C103.236 75.1387 103.385 76.0662 103.385 77.06C103.385 78.0538 103.225 78.9795 102.909 79.8426C102.59 80.7039 102.145 81.4548 101.574 82.0897C101.002 82.7265 100.314 83.227 99.5096 83.5933C98.7035 83.9576 97.8238 84.1417 96.8687 84.1417C96.2319 84.1417 95.6688 84.0754 95.1829 83.9448C94.6952 83.8141 94.2646 83.6448 93.891 83.4387C93.5156 83.2326 93.1972 83.0136 92.9359 82.778C92.6727 82.5443 92.4574 82.3142 92.2899 82.0897L92.2052 82.0897L92.2052 90.2093L88.8337 90.2093L88.8337 70.3152L88.83 70.3152ZM100.014 77.0582C100.014 76.5337 99.9255 76.0276 99.747 75.5417C99.5685 75.0541 99.3071 74.6234 98.9593 74.2498C98.6133 73.8762 98.1956 73.5763 97.7097 73.3499C97.222 73.1254 96.6699 73.0131 96.0516 73.0131C95.4332 73.0131 94.8811 73.1254 94.3934 73.3499C93.9057 73.5744 93.4898 73.8744 93.1438 74.2498C92.7978 74.6253 92.5347 75.0559 92.358 75.5417C92.1795 76.0294 92.0911 76.5355 92.0911 77.0582C92.0911 77.5808 92.1795 78.0888 92.358 78.5746C92.5365 79.0623 92.7978 79.493 93.1438 79.8666C93.4898 80.242 93.9076 80.5401 94.3934 80.7665C94.8811 80.991 95.4332 81.1033 96.0516 81.1033C96.6699 81.1033 97.222 80.991 97.7097 80.7665C98.1974 80.542 98.6133 80.242 98.9593 79.8666C99.3053 79.4911 99.5685 79.0605 99.747 78.5746C99.9255 78.0869 100.014 77.5827 100.014 77.0582Z" fill="#000000" fill-rule="nonzero" opacity="1" stroke="none" vectornator:layerName="path"/>
<path d="M106.111 65.7345C106.111 65.1916 106.311 64.7187 106.715 64.3156C107.118 63.9126 107.627 63.712 108.246 63.712C108.864 63.712 109.383 63.9034 109.804 64.288C110.226 64.6727 110.438 65.1548 110.438 65.7345C110.438 66.3142 110.228 66.7983 109.804 67.181C109.383 67.5657 108.864 67.7571 108.246 67.7571C107.627 67.7571 107.118 67.5565 106.715 67.1534C106.311 66.7504 106.111 66.2774 106.111 65.7345ZM106.588 70.3152L109.959 70.3152L109.959 83.8031L106.588 83.8031L106.588 70.3152Z" fill="#000000" fill-rule="nonzero" opacity="1" stroke="none" vectornator:layerName="path"/>
<path d="M113.894 62.5599L117.265 62.5599L117.265 83.8031L113.894 83.8031L113.894 62.5599Z" fill="#000000" fill-rule="nonzero" opacity="1" stroke="none" vectornator:layerName="path"/>
<path d="M131.821 81.7787L131.763 81.7787C131.276 82.6032 130.621 83.2031 129.796 83.5767C128.972 83.9521 128.083 84.138 127.128 84.138C126.079 84.138 125.147 83.9558 124.332 83.5896C123.517 83.2234 122.819 82.7228 122.24 82.086C121.658 81.4493 121.218 80.7002 120.918 79.839C120.618 78.9777 120.469 78.0501 120.469 77.0563C120.469 76.0626 120.628 75.1369 120.948 74.2737C121.266 73.4125 121.712 72.6634 122.282 72.0267C122.853 71.3899 123.541 70.8893 124.347 70.5231C125.153 70.1587 126.033 69.9747 126.988 69.9747C127.625 69.9747 128.186 70.0409 128.674 70.1716C129.161 70.3023 129.592 70.4716 129.965 70.6777C130.341 70.8838 130.657 71.1047 130.921 71.3384C131.182 71.5721 131.399 71.8022 131.567 72.0267L131.651 72.0267L131.651 62.5581L135.023 62.5581L135.023 83.8012L131.819 83.8012L131.819 81.7787L131.821 81.7787ZM123.841 77.0582C123.841 77.5827 123.929 78.0888 124.108 78.5746C124.286 79.0623 124.547 79.493 124.893 79.8666C125.239 80.242 125.657 80.5401 126.143 80.7665C126.631 80.991 127.183 81.1033 127.801 81.1033C128.42 81.1033 128.972 80.991 129.459 80.7665C129.947 80.542 130.363 80.242 130.709 79.8666C131.055 79.4911 131.318 79.0605 131.497 78.5746C131.675 78.0869 131.763 77.5827 131.763 77.0582C131.763 76.5337 131.675 76.0276 131.497 75.5417C131.318 75.0541 131.057 74.6234 130.709 74.2498C130.363 73.8762 129.945 73.5763 129.459 73.3499C128.972 73.1254 128.42 73.0131 127.801 73.0131C127.183 73.0131 126.631 73.1254 126.143 73.3499C125.655 73.5744 125.239 73.8744 124.893 74.2498C124.547 74.6253 124.284 75.0559 124.108 75.5417C123.929 76.0294 123.841 76.5355 123.841 77.0582Z" fill="#000000" fill-rule="nonzero" opacity="1" stroke="none" vectornator:layerName="path"/>
<path d="M138.451 65.7345C138.451 65.1916 138.652 64.7187 139.055 64.3156C139.458 63.9126 139.968 63.712 140.586 63.712C141.204 63.712 141.723 63.9034 142.145 64.288C142.566 64.6727 142.778 65.1548 142.778 65.7345C142.778 66.3142 142.568 66.7983 142.145 67.181C141.723 67.5657 141.204 67.7571 140.586 67.7571C139.968 67.7571 139.458 67.5565 139.055 67.1534C138.652 66.7504 138.451 66.2774 138.451 65.7345ZM138.928 70.3152L142.299 70.3152L142.299 83.8031L138.928 83.8031L138.928 70.3152Z" fill="#000000" fill-rule="nonzero" opacity="1" stroke="none" vectornator:layerName="path"/>
<path d="M146.177 70.3152L149.381 70.3152L149.381 72.4794L149.436 72.4794C149.755 71.8058 150.242 71.2206 150.898 70.7237C151.553 70.2268 152.443 69.9784 153.566 69.9784C154.466 69.9784 155.228 70.1293 155.855 70.4274C156.483 70.7274 156.993 71.1212 157.387 71.6071C157.78 72.0948 158.06 72.6561 158.23 73.2928C158.399 73.9296 158.482 74.5958 158.482 75.2878L158.482 83.8012L155.11 83.8012L155.11 76.9735C155.11 76.5981 155.092 76.1822 155.053 75.7239C155.014 75.2657 154.917 74.8351 154.759 74.432C154.599 74.029 154.352 73.6922 154.013 73.4198C153.677 73.1493 153.216 73.0131 152.637 73.0131C152.057 73.0131 151.602 73.107 151.218 73.2947C150.833 73.4824 150.515 73.7345 150.263 74.0529C150.011 74.3713 149.827 74.7375 149.714 75.1479C149.602 75.5601 149.545 75.9908 149.545 76.4398L149.545 83.8012L146.173 83.8012L146.173 70.3133L146.177 70.3152Z" fill="#000000" fill-rule="nonzero" opacity="1" stroke="none" vectornator:layerName="path"/>
<path d="M170.737 81.948L170.652 81.948C170.164 82.7154 169.546 83.273 168.797 83.619C168.048 83.965 167.223 84.138 166.323 84.138C165.705 84.138 165.101 84.0533 164.511 83.8859C163.92 83.7166 163.395 83.4644 162.937 83.1277C162.477 82.7909 162.109 82.3694 161.827 81.8633C161.546 81.3572 161.406 80.7683 161.406 80.0929C161.406 79.3623 161.537 78.7403 161.8 78.225C162.061 77.7097 162.413 77.279 162.854 76.933C163.294 76.5871 163.806 76.311 164.385 76.1049C164.965 75.8988 165.571 75.7442 166.198 75.6411C166.826 75.5381 167.457 75.4718 168.096 75.4442C168.732 75.4166 169.332 75.4019 169.894 75.4019L170.737 75.4019L170.737 75.0375C170.737 74.1946 170.446 73.5615 169.866 73.1401C169.284 72.7187 168.545 72.507 167.647 72.507C166.934 72.507 166.27 72.634 165.652 72.8861C165.033 73.1383 164.5 73.4806 164.051 73.9112L162.28 72.1408C163.029 71.3734 163.905 70.8194 164.908 70.4826C165.909 70.1458 166.945 69.9765 168.013 69.9765C168.968 69.9765 169.774 70.0851 170.429 70.3004C171.084 70.5158 171.627 70.7918 172.06 71.1286C172.49 71.4654 172.823 71.8555 173.057 72.2954C173.291 72.7352 173.46 73.1806 173.563 73.6296C173.666 74.0787 173.727 74.5148 173.745 74.9363C173.764 75.3577 173.773 75.7276 173.773 76.046L173.773 83.8012L170.738 83.8012L170.738 81.9462L170.737 81.948ZM172.871 67.0835L163.879 67.0835L163.879 64.8917L172.871 64.8917L172.871 67.0835ZM170.54 77.7612L169.837 77.7612C169.367 77.7612 168.843 77.7796 168.263 77.8183C167.682 77.8569 167.135 77.9452 166.62 78.0851C166.104 78.225 165.668 78.4311 165.313 78.7035C164.958 78.9758 164.779 79.3549 164.779 79.8408C164.779 80.1592 164.849 80.426 164.989 80.6413C165.129 80.8567 165.313 81.0389 165.538 81.1898C165.762 81.3407 166.016 81.4474 166.296 81.5137C166.577 81.5799 166.857 81.6112 167.139 81.6112C168.3 81.6112 169.158 81.3352 169.71 80.7831C170.262 80.2309 170.538 79.4764 170.538 78.5213L170.538 77.763L170.54 77.7612Z" fill="#000000" fill-rule="nonzero" opacity="1" stroke="none" vectornator:layerName="path"/>
<path d="M175.821 73.1806L175.821 70.3152L178.604 70.3152L178.604 66.4099L181.976 66.4099L181.976 70.3152L185.684 70.3152L185.684 73.1806L181.976 73.1806L181.976 79.0807C181.976 79.7543 182.103 80.2898 182.355 80.6818C182.607 81.0757 183.109 81.2726 183.858 81.2726C184.158 81.2726 184.486 81.2395 184.841 81.175C185.196 81.1088 185.478 81.0021 185.684 80.8511L185.684 83.689C185.329 83.8583 184.892 83.9742 184.377 84.0405C183.862 84.1067 183.407 84.138 183.013 84.138C182.114 84.138 181.379 84.0405 180.807 83.8435C180.235 83.6466 179.786 83.3467 179.458 82.9436C179.13 82.5406 178.906 82.04 178.783 81.4401C178.661 80.8401 178.6 80.1481 178.6 79.3605L178.6 73.1787L175.818 73.1787L175.821 73.1806Z" fill="#000000" fill-rule="nonzero" opacity="1" stroke="none" vectornator:layerName="path"/>
<path d="M196.754 81.948L196.669 81.948C196.181 82.7154 195.563 83.273 194.814 83.619C194.065 83.965 193.24 84.138 192.34 84.138C191.722 84.138 191.118 84.0533 190.528 83.8859C189.937 83.7166 189.412 83.4644 188.954 83.1277C188.494 82.7909 188.126 82.3694 187.844 81.8633C187.563 81.3572 187.423 80.7683 187.423 80.0929C187.423 79.3623 187.554 78.7403 187.817 78.225C188.078 77.7097 188.43 77.279 188.871 76.933C189.311 76.5871 189.823 76.311 190.402 76.1049C190.982 75.8988 191.588 75.7442 192.215 75.6411C192.843 75.5381 193.474 75.4718 194.113 75.4442C194.749 75.4166 195.349 75.4019 195.911 75.4019L196.754 75.4019L196.754 75.0375C196.754 74.1946 196.463 73.5615 195.883 73.1401C195.301 72.7187 194.562 72.507 193.664 72.507C192.951 72.507 192.287 72.634 191.669 72.8861C191.05 73.1383 190.517 73.4806 190.068 73.9112L188.297 72.1408C189.046 71.3734 189.922 70.8194 190.925 70.4826C191.926 70.1458 192.962 69.9765 194.03 69.9765C194.985 69.9765 195.791 70.0851 196.446 70.3004C197.101 70.5158 197.644 70.7918 198.077 71.1286C198.507 71.4654 198.84 71.8555 199.074 72.2954C199.308 72.7352 199.477 73.1806 199.58 73.6296C199.683 74.0787 199.744 74.5148 199.762 74.9363C199.781 75.3577 199.79 75.7276 199.79 76.046L199.79 83.8012L196.755 83.8012L196.755 81.9462L196.754 81.948ZM198.89 67.0835L189.898 67.0835L189.898 64.8917L198.89 64.8917L198.89 67.0835ZM196.557 77.7612L195.854 77.7612C195.384 77.7612 194.86 77.7796 194.28 77.8183C193.699 77.8569 193.152 77.9452 192.637 78.0851C192.121 78.225 191.685 78.4311 191.33 78.7035C190.975 78.9758 190.796 79.3549 190.796 79.8408C190.796 80.1592 190.866 80.426 191.006 80.6413C191.146 80.8567 191.33 81.0389 191.555 81.1898C191.779 81.3407 192.033 81.4474 192.313 81.5137C192.594 81.5799 192.874 81.6112 193.156 81.6112C194.317 81.6112 195.174 81.3352 195.727 80.7831C196.279 80.2309 196.555 79.4764 196.555 78.5213L196.555 77.763L196.557 77.7612Z" fill="#000000" fill-rule="nonzero" opacity="1" stroke="none" vectornator:layerName="path"/>
<path d="M210.606 74.0529C209.951 73.1346 209.069 72.6763 207.965 72.6763C207.516 72.6763 207.074 72.7886 206.644 73.0131C206.213 73.2376 205.998 73.6039 205.998 74.1081C205.998 74.5204 206.176 74.8203 206.531 75.008C206.886 75.1958 207.337 75.354 207.88 75.4865C208.423 75.6172 209.008 75.7534 209.636 75.8933C210.263 76.0331 210.849 76.2503 211.392 76.5392C211.935 76.83 212.384 77.2275 212.741 77.7336C213.096 78.2397 213.274 78.9335 213.274 79.8132C213.274 80.6193 213.101 81.2983 212.755 81.8505C212.409 82.4026 211.958 82.8479 211.406 83.1847C210.854 83.5215 210.23 83.7663 209.538 83.9153C208.845 84.0644 208.153 84.1398 207.459 84.1398C206.41 84.1398 205.445 83.9889 204.564 83.6908C203.682 83.3908 202.897 82.8479 202.205 82.0603L204.452 79.9531C204.882 80.4407 205.346 80.8383 205.843 81.1474C206.34 81.4566 206.944 81.6112 207.656 81.6112C207.899 81.6112 208.153 81.5836 208.414 81.5266C208.675 81.4695 208.92 81.3775 209.145 81.245C209.369 81.1143 209.551 80.9505 209.693 80.7536C209.833 80.5567 209.905 80.3285 209.905 80.0653C209.905 79.5979 209.726 79.25 209.371 79.0255C209.016 78.801 208.565 78.6188 208.022 78.4771C207.479 78.3372 206.894 78.2066 206.266 78.0833C205.639 77.9618 205.053 77.7649 204.511 77.4925C203.968 77.222 203.517 76.841 203.162 76.3552C202.806 75.8675 202.628 75.1939 202.628 74.3326C202.628 73.5836 202.782 72.9321 203.092 72.38C203.401 71.8279 203.808 71.3734 204.314 71.0182C204.82 70.663 205.399 70.3998 206.056 70.2323C206.712 70.063 207.378 69.9802 208.051 69.9802C208.951 69.9802 209.84 70.1348 210.72 70.444C211.6 70.7532 212.312 71.2832 212.855 72.0322L210.608 74.0547L210.606 74.0529Z" fill="#000000" fill-rule="nonzero" opacity="1" stroke="none" vectornator:layerName="path"/>
<path d="M224.204 70.3152L227.576 70.3152L227.576 72.45L227.631 72.45C228.006 71.6641 228.54 71.055 229.232 70.6243C229.924 70.1937 230.721 69.9784 231.621 69.9784C231.827 69.9784 232.027 69.9968 232.224 70.0354C232.421 70.0741 232.622 70.1201 232.828 70.1753L232.828 73.4345C232.546 73.3591 232.27 73.2984 232 73.2524C231.727 73.2063 231.461 73.1824 231.199 73.1824C230.412 73.1824 229.78 73.3278 229.302 73.6186C228.823 73.9094 228.459 74.2425 228.205 74.616C227.953 74.9915 227.784 75.3651 227.699 75.7405C227.614 76.1159 227.572 76.3957 227.572 76.5834L227.572 83.8049L224.2 83.8049L224.2 70.317L224.204 70.3152Z" fill="#000000" fill-rule="nonzero" opacity="1" stroke="none" vectornator:layerName="path"/>
<path d="M237.328 78.2397C237.44 79.2519 237.834 80.0377 238.507 80.6009C239.181 81.1622 239.996 81.4437 240.951 81.4437C241.794 81.4437 242.501 81.2707 243.073 80.9248C243.644 80.5788 244.146 80.1426 244.577 79.6181L246.993 81.4437C246.205 82.4173 245.326 83.1111 244.352 83.5233C243.379 83.9356 242.357 84.1417 241.29 84.1417C240.278 84.1417 239.323 83.9724 238.424 83.6356C237.526 83.2988 236.748 82.8203 236.093 82.202C235.438 81.5836 234.917 80.8383 234.534 79.9678C234.149 79.0973 233.958 78.1274 233.958 77.06C233.958 75.9926 234.149 75.0228 234.534 74.1523C234.917 73.2818 235.438 72.5365 236.093 71.9181C236.748 71.2997 237.526 70.8231 238.424 70.4845C239.323 70.1458 240.28 69.9784 241.29 69.9784C242.227 69.9784 243.084 70.1422 243.861 70.4697C244.637 70.7973 245.304 71.2703 245.856 71.8887C246.408 72.507 246.839 73.2708 247.148 74.178C247.457 75.0872 247.611 76.1307 247.611 77.3103L247.611 78.2379L237.328 78.2379L237.328 78.2397ZM244.24 75.7092C244.222 74.7173 243.912 73.9351 243.312 73.3628C242.712 72.7923 241.879 72.5052 240.811 72.5052C239.799 72.5052 238.999 72.7959 238.41 73.3757C237.819 73.9572 237.458 74.7338 237.328 75.7074L244.24 75.7074L244.24 75.7092Z" fill="#000000" fill-rule="nonzero" opacity="1" stroke="none" vectornator:layerName="path"/>
<path d="M259.187 81.948L259.103 81.948C258.615 82.7154 257.997 83.273 257.248 83.619C256.499 83.965 255.674 84.138 254.774 84.138C254.156 84.138 253.552 84.0533 252.961 83.8859C252.371 83.7166 251.846 83.4644 251.388 83.1277C250.928 82.7909 250.56 82.3694 250.278 81.8633C249.997 81.3572 249.857 80.7683 249.857 80.0929C249.857 79.3623 249.987 78.7403 250.251 78.225C250.512 77.7097 250.863 77.279 251.305 76.933C251.745 76.5871 252.257 76.311 252.836 76.1049C253.416 75.8988 254.021 75.7442 254.649 75.6411C255.277 75.5381 255.908 75.4718 256.546 75.4442C257.183 75.4166 257.783 75.4019 258.344 75.4019L259.187 75.4019L259.187 75.0375C259.187 74.1946 258.896 73.5615 258.317 73.1401C257.735 72.7187 256.995 72.507 256.097 72.507C255.385 72.507 254.721 72.634 254.102 72.8861C253.484 73.1383 252.95 73.4806 252.501 73.9112L250.731 72.1408C251.48 71.3734 252.356 70.8194 253.359 70.4826C254.36 70.1458 255.396 69.9765 256.464 69.9765C257.419 69.9765 258.225 70.0851 258.88 70.3004C259.535 70.5158 260.078 70.7918 260.51 71.1286C260.941 71.4654 261.274 71.8555 261.508 72.2954C261.742 72.7352 261.911 73.1806 262.014 73.6296C262.117 74.0787 262.178 74.5148 262.196 74.9363C262.215 75.3577 262.224 75.7276 262.224 76.046L262.224 83.8012L259.189 83.8012L259.189 81.9462L259.187 81.948ZM258.99 77.7612L258.287 77.7612C257.818 77.7612 257.294 77.7796 256.714 77.8183C256.132 77.8569 255.586 77.9452 255.07 78.0851C254.555 78.225 254.119 78.4311 253.764 78.7035C253.409 78.9758 253.23 79.3549 253.23 79.8408C253.23 80.1592 253.3 80.426 253.44 80.6413C253.58 80.8567 253.764 81.0389 253.988 81.1898C254.213 81.3407 254.467 81.4474 254.747 81.5137C255.028 81.5799 255.308 81.6112 255.589 81.6112C256.751 81.6112 257.608 81.3352 258.16 80.7831C258.712 80.2309 258.989 79.4764 258.989 78.5213L258.989 77.763L258.99 77.7612Z" fill="#000000" fill-rule="nonzero" opacity="1" stroke="none" vectornator:layerName="path"/>
<path d="M265.903 62.5599L269.274 62.5599L269.274 83.8031L265.903 83.8031L265.903 62.5599Z" fill="#000000" fill-rule="nonzero" opacity="1" stroke="none" vectornator:layerName="path"/>
<path d="M272.758 65.7345C272.758 65.1916 272.959 64.7187 273.362 64.3156C273.765 63.9126 274.274 63.712 274.893 63.712C275.511 63.712 276.03 63.9034 276.452 64.288C276.873 64.6727 277.085 65.1548 277.085 65.7345C277.085 66.3142 276.875 66.7983 276.452 67.181C276.03 67.5657 275.511 67.7571 274.893 67.7571C274.274 67.7571 273.765 67.5565 273.362 67.1534C272.959 66.7504 272.758 66.2774 272.758 65.7345ZM273.236 70.3152L276.608 70.3152L276.608 83.8031L273.236 83.8031L273.236 70.3152Z" fill="#000000" fill-rule="nonzero" opacity="1" stroke="none" vectornator:layerName="path"/>
<path d="M278.912 73.1806L278.912 70.3152L281.695 70.3152L281.695 66.4099L285.066 66.4099L285.066 70.3152L288.775 70.3152L288.775 73.1806L285.066 73.1806L285.066 79.0807C285.066 79.7543 285.193 80.2898 285.445 80.6818C285.697 81.0757 286.2 81.2726 286.949 81.2726C287.249 81.2726 287.576 81.2395 287.932 81.175C288.287 81.1088 288.568 81.0021 288.775 80.8511L288.775 83.689C288.419 83.8583 287.983 83.9742 287.468 84.0405C286.953 84.1067 286.498 84.138 286.104 84.138C285.204 84.138 284.47 84.0405 283.898 83.8435C283.325 83.6466 282.876 83.3467 282.549 82.9436C282.221 82.5406 281.997 82.04 281.873 81.4401C281.752 80.8401 281.691 80.1481 281.691 79.3605L281.691 73.1787L278.908 73.1787L278.912 73.1806Z" fill="#000000" fill-rule="nonzero" opacity="1" stroke="none" vectornator:layerName="path"/>
<path d="M299.844 81.948L299.76 81.948C299.272 82.7154 298.654 83.273 297.904 83.619C297.155 83.965 296.331 84.138 295.431 84.138C294.813 84.138 294.209 84.0533 293.618 83.8859C293.028 83.7166 292.503 83.4644 292.045 83.1277C291.585 82.7909 291.217 82.3694 290.935 81.8633C290.654 81.3572 290.514 80.7683 290.514 80.0929C290.514 79.3623 290.644 78.7403 290.907 78.225C291.169 77.7097 291.52 77.279 291.962 76.933C292.402 76.5871 292.913 76.311 293.493 76.1049C294.073 75.8988 294.678 75.7442 295.306 75.6411C295.933 75.5381 296.565 75.4718 297.203 75.4442C297.84 75.4166 298.44 75.4019 299.001 75.4019L299.844 75.4019L299.844 75.0375C299.844 74.1946 299.553 73.5615 298.974 73.1401C298.392 72.7187 297.652 72.507 296.754 72.507C296.042 72.507 295.378 72.634 294.759 72.8861C294.141 73.1383 293.607 73.4806 293.158 73.9112L291.388 72.1408C292.137 71.3734 293.013 70.8194 294.016 70.4826C295.017 70.1458 296.053 69.9765 297.121 69.9765C298.076 69.9765 298.882 70.0851 299.537 70.3004C300.192 70.5158 300.735 70.7918 301.167 71.1286C301.598 71.4654 301.931 71.8555 302.165 72.2954C302.399 72.7352 302.568 73.1806 302.671 73.6296C302.774 74.0787 302.835 74.5148 302.853 74.9363C302.872 75.3577 302.881 75.7276 302.881 76.046L302.881 83.8012L299.846 83.8012L299.846 81.9462L299.844 81.948ZM301.979 67.0835L292.987 67.0835L292.987 64.8917L301.979 64.8917L301.979 67.0835ZM299.647 77.7612L298.944 77.7612C298.475 77.7612 297.95 77.7796 297.371 77.8183C296.789 77.8569 296.243 77.9452 295.727 78.0851C295.212 78.225 294.776 78.4311 294.421 78.7035C294.066 78.9758 293.887 79.3549 293.887 79.8408C293.887 80.1592 293.957 80.426 294.097 80.6413C294.237 80.8567 294.421 81.0389 294.645 81.1898C294.87 81.3407 295.124 81.4474 295.403 81.5137C295.685 81.5799 295.965 81.6112 296.246 81.6112C297.408 81.6112 298.265 81.3352 298.817 80.7831C299.369 80.2309 299.645 79.4764 299.645 78.5213L299.645 77.763L299.647 77.7612Z" fill="#000000" fill-rule="nonzero" opacity="1" stroke="none" vectornator:layerName="path"/>
<path d="M304.929 73.1806L304.929 70.3152L307.712 70.3152L307.712 66.4099L311.083 66.4099L311.083 70.3152L314.792 70.3152L314.792 73.1806L311.083 73.1806L311.083 79.0807C311.083 79.7543 311.21 80.2898 311.462 80.6818C311.714 81.0757 312.217 81.2726 312.966 81.2726C313.266 81.2726 313.593 81.2395 313.949 81.175C314.304 81.1088 314.585 81.0021 314.792 80.8511L314.792 83.689C314.436 83.8583 314 83.9742 313.485 84.0405C312.97 84.1067 312.515 84.138 312.121 84.138C311.221 84.138 310.487 84.0405 309.915 83.8435C309.342 83.6466 308.893 83.3467 308.566 82.9436C308.238 82.5406 308.014 82.04 307.89 81.4401C307.769 80.8401 307.708 80.1481 307.708 79.3605L307.708 73.1787L304.925 73.1787L304.929 73.1806Z" fill="#000000" fill-rule="nonzero" opacity="1" stroke="none" vectornator:layerName="path"/>
<path d="M320.13 78.2397C320.243 79.2519 320.636 80.0377 321.31 80.6009C321.984 81.1622 322.799 81.4437 323.754 81.4437C324.597 81.4437 325.304 81.2707 325.876 80.9248C326.446 80.5788 326.949 80.1426 327.379 79.6181L329.796 81.4437C329.008 82.4173 328.129 83.1111 327.155 83.5233C326.181 83.9356 325.16 84.1417 324.093 84.1417C323.08 84.1417 322.125 83.9724 321.227 83.6356C320.329 83.2988 319.551 82.8203 318.895 82.202C318.24 81.5836 317.72 80.8383 317.337 79.9678C316.952 79.0973 316.761 78.1274 316.761 77.06C316.761 75.9926 316.952 75.0228 317.337 74.1523C317.72 73.2818 318.24 72.5365 318.895 71.9181C319.551 71.2997 320.329 70.8231 321.227 70.4845C322.125 70.1458 323.082 69.9784 324.093 69.9784C325.029 69.9784 325.887 70.1422 326.664 70.4697C327.44 70.7973 328.106 71.2703 328.659 71.8887C329.211 72.507 329.641 73.2708 329.95 74.178C330.26 75.0872 330.414 76.1307 330.414 77.3103L330.414 78.2379L320.13 78.2379L320.13 78.2397ZM327.043 75.7092C327.024 74.7173 326.715 73.9351 326.115 73.3628C325.515 72.7923 324.682 72.5052 323.614 72.5052C322.602 72.5052 321.801 72.7959 321.212 73.3757C320.622 73.9572 320.261 74.7338 320.13 75.7074L327.043 75.7074L327.043 75.7092Z" fill="#000000" fill-rule="nonzero" opacity="1" stroke="none" vectornator:layerName="path"/>
<path d="M340.755 74.0529C340.1 73.1346 339.218 72.6763 338.114 72.6763C337.665 72.6763 337.223 72.7886 336.793 73.0131C336.362 73.2376 336.147 73.6039 336.147 74.1081C336.147 74.5204 336.325 74.8203 336.681 75.008C337.036 75.1958 337.487 75.354 338.03 75.4865C338.572 75.6172 339.158 75.7534 339.785 75.8933C340.413 76.0331 340.998 76.2503 341.541 76.5392C342.084 76.83 342.533 77.2275 342.89 77.7336C343.245 78.2397 343.424 78.9335 343.424 79.8132C343.424 80.6193 343.251 81.2983 342.905 81.8505C342.559 82.4026 342.108 82.8479 341.556 83.1847C341.004 83.5215 340.38 83.7663 339.688 83.9153C338.994 84.0644 338.302 84.1398 337.608 84.1398C336.559 84.1398 335.595 83.9889 334.713 83.6908C333.832 83.3908 333.046 82.8479 332.354 82.0603L334.601 79.9531C335.032 80.4407 335.495 80.8383 335.992 81.1474C336.489 81.4566 337.093 81.6112 337.805 81.6112C338.048 81.6112 338.302 81.5836 338.563 81.5266C338.825 81.4695 339.069 81.3775 339.294 81.245C339.518 81.1143 339.701 80.9505 339.842 80.7536C339.982 80.5567 340.054 80.3285 340.054 80.0653C340.054 79.5979 339.875 79.25 339.52 79.0255C339.165 78.801 338.714 78.6188 338.171 78.4771C337.628 78.3372 337.043 78.2066 336.416 78.0833C335.788 77.9618 335.203 77.7649 334.66 77.4925C334.117 77.222 333.666 76.841 333.311 76.3552C332.956 75.8675 332.777 75.1939 332.777 74.3326C332.777 73.5836 332.932 72.9321 333.241 72.38C333.55 71.8279 333.957 71.3734 334.463 71.0182C334.969 70.663 335.549 70.3998 336.206 70.2323C336.861 70.063 337.527 69.9802 338.201 69.9802C339.101 69.9802 339.99 70.1348 340.869 70.444C341.749 70.7532 342.461 71.2832 343.004 72.0322L340.757 74.0547L340.755 74.0529Z" fill="#000000" fill-rule="nonzero" opacity="1" stroke="none" vectornator:layerName="path"/>
<path d="M56.0406 96.2788L59.4121 96.2788L59.4121 109.625L64.6111 104.034L68.9377 104.034L63.1498 110.159L69.304 117.52L64.8356 117.52L59.4692 110.635L59.4139 110.635L59.4139 117.52L56.0424 117.52L56.0424 96.2769L56.0406 96.2788Z" fill="#000000" fill-rule="nonzero" opacity="1" stroke="none" vectornator:layerName="path"/>
<path d="M73.8257 111.957C73.938 112.969 74.3318 113.755 75.0054 114.318C75.6789 114.879 76.4942 115.161 77.4493 115.161C78.2922 115.161 78.9989 114.988 79.5713 114.642C80.1418 114.296 80.6442 113.86 81.0748 113.335L83.4912 115.161C82.7035 116.134 81.8238 116.828 80.8503 117.24C79.8768 117.653 78.8554 117.859 77.788 117.859C76.7758 117.859 75.8206 117.689 74.9225 117.353C74.0245 117.016 73.246 116.537 72.5908 115.919C71.9357 115.301 71.4148 114.555 71.0321 113.685C70.6474 112.814 70.456 111.844 70.456 110.777C70.456 109.71 70.6474 108.74 71.0321 107.869C71.4148 106.999 71.9357 106.253 72.5908 105.635C73.246 105.017 74.0245 104.54 74.9225 104.201C75.8206 103.863 76.7776 103.695 77.788 103.695C78.7247 103.695 79.5823 103.859 80.3589 104.187C81.1356 104.514 81.8018 104.987 82.3539 105.606C82.906 106.224 83.3366 106.988 83.6458 107.895C83.955 108.804 84.1096 109.848 84.1096 111.027L84.1096 111.955L73.8257 111.955L73.8257 111.957ZM80.738 109.428C80.7196 108.436 80.4105 107.654 79.8105 107.082C79.2106 106.511 78.3769 106.224 77.3095 106.224C76.2973 106.224 75.4967 106.515 74.9078 107.094C74.3171 107.676 73.9564 108.453 73.8257 109.426L80.738 109.426L80.738 109.428Z" fill="#000000" fill-rule="nonzero" opacity="1" stroke="none" vectornator:layerName="path"/>
<path d="M87.2565 104.034L90.6281 104.034L90.6281 106.169L90.6833 106.169C91.0587 105.383 91.5924 104.774 92.2844 104.343C92.9763 103.913 93.7732 103.697 94.6731 103.697C94.8793 103.697 95.0799 103.716 95.2768 103.754C95.4737 103.793 95.6743 103.839 95.8804 103.894L95.8804 107.153C95.5988 107.078 95.3228 107.017 95.0523 106.971C94.7799 106.925 94.513 106.901 94.2517 106.901C93.464 106.901 92.8328 107.047 92.3543 107.337C91.8758 107.628 91.5114 107.961 91.2575 108.335C91.0053 108.71 90.836 109.084 90.7514 109.459C90.6667 109.835 90.6244 110.114 90.6244 110.302L90.6244 117.524L87.2529 117.524L87.2529 104.036L87.2565 104.034Z" fill="#000000" fill-rule="nonzero" opacity="1" stroke="none" vectornator:layerName="path"/>
<path d="M106.617 115.665L106.532 115.665C106.045 116.432 105.426 116.99 104.677 117.336C103.928 117.682 103.104 117.855 102.204 117.855C101.585 117.855 100.982 117.77 100.391 117.603C99.8004 117.434 99.2759 117.181 98.8176 116.845C98.3575 116.508 97.9895 116.086 97.7079 115.58C97.4263 115.074 97.2864 114.485 97.2864 113.81C97.2864 113.079 97.4171 112.457 97.6803 111.942C97.9416 111.427 98.2931 110.996 98.7348 110.65C99.1746 110.304 99.6863 110.028 100.266 109.822C100.846 109.616 101.451 109.461 102.079 109.358C102.706 109.255 103.337 109.189 103.976 109.161C104.613 109.134 105.213 109.119 105.774 109.119L106.617 109.119L106.617 108.754C106.617 107.912 106.326 107.279 105.747 106.857C105.165 106.436 104.425 106.224 103.527 106.224C102.815 106.224 102.15 106.351 101.532 106.603C100.914 106.855 100.38 107.198 99.931 107.628L98.1606 105.858C98.9096 105.09 99.7856 104.536 100.789 104.2C101.79 103.863 102.826 103.694 103.893 103.694C104.848 103.694 105.654 103.802 106.31 104.017C106.965 104.233 107.508 104.509 107.94 104.846C108.371 105.182 108.704 105.573 108.938 106.012C109.171 106.452 109.341 106.898 109.444 107.347C109.547 107.796 109.608 108.232 109.626 108.653C109.644 109.075 109.654 109.445 109.654 109.763L109.654 117.518L106.619 117.518L106.619 115.663L106.617 115.665ZM106.42 111.48L105.717 111.48C105.248 111.48 104.723 111.498 104.144 111.537C103.562 111.576 103.015 111.664 102.5 111.804C101.985 111.944 101.549 112.15 101.193 112.422C100.838 112.695 100.66 113.074 100.66 113.56C100.66 113.878 100.73 114.145 100.87 114.36C101.009 114.576 101.193 114.758 101.418 114.909C101.643 115.06 101.897 115.166 102.176 115.233C102.458 115.299 102.738 115.33 103.019 115.33C104.18 115.33 105.038 115.054 105.59 114.502C106.142 113.95 106.418 113.195 106.418 112.24L106.418 111.482L106.42 111.48Z" fill="#000000" fill-rule="nonzero" opacity="1" stroke="none" vectornator:layerName="path"/>
<path d="M113.136 104.034L116.34 104.034L116.34 106.141L116.397 106.141C116.697 105.504 117.179 104.938 117.843 104.441C118.507 103.944 119.402 103.695 120.526 103.695C122.643 103.695 124.047 104.529 124.741 106.196C125.228 105.335 125.836 104.702 126.566 104.299C127.297 103.896 128.167 103.695 129.18 103.695C130.08 103.695 130.838 103.846 131.456 104.144C132.075 104.444 132.575 104.857 132.96 105.381C133.343 105.906 133.62 106.518 133.788 107.221C133.955 107.924 134.04 108.679 134.04 109.483L134.04 117.52L130.668 117.52L130.668 109.877C130.668 109.465 130.63 109.067 130.556 108.683C130.481 108.3 130.35 107.961 130.162 107.671C129.975 107.38 129.723 107.152 129.404 106.982C129.086 106.813 128.674 106.73 128.167 106.73C127.661 106.73 127.198 106.828 126.833 107.025C126.469 107.221 126.169 107.485 125.933 107.81C125.7 108.138 125.53 108.513 125.427 108.935C125.324 109.356 125.273 109.783 125.273 110.214L125.273 117.52L121.901 117.52L121.901 109.483C121.901 108.64 121.723 107.97 121.367 107.474C121.012 106.977 120.421 106.728 119.597 106.728C119.036 106.728 118.561 106.822 118.178 107.01C117.793 107.198 117.475 107.45 117.223 107.768C116.971 108.086 116.787 108.453 116.674 108.863C116.562 109.275 116.505 109.706 116.505 110.155L116.505 117.516L113.134 117.516L113.134 104.028L113.136 104.034Z" fill="#000000" fill-rule="nonzero" opacity="1" stroke="none" vectornator:layerName="path"/>
<path d="M137.299 99.4534C137.299 98.9105 137.5 98.4375 137.903 98.0345C138.306 97.6314 138.816 97.4308 139.434 97.4308C140.052 97.4308 140.571 97.6222 140.993 98.0069C141.414 98.3915 141.626 98.8737 141.626 99.4534C141.626 100.033 141.416 100.517 140.993 100.9C140.571 101.285 140.052 101.476 139.434 101.476C138.816 101.476 138.306 101.275 137.903 100.872C137.5 100.469 137.299 99.9963 137.299 99.4534ZM137.778 104.034L141.149 104.034L141.149 117.522L137.778 117.522L137.778 104.034Z" fill="#000000" fill-rule="nonzero" opacity="1" stroke="none" vectornator:layerName="path"/>
<path d="M145.027 96.2788L148.398 96.2788L148.398 109.625L153.597 104.034L157.924 104.034L152.136 110.159L158.29 117.52L153.822 117.52L148.455 110.635L148.4 110.635L148.4 117.52L145.029 117.52L145.029 96.2769L145.027 96.2788Z" fill="#000000" fill-rule="nonzero" opacity="1" stroke="none" vectornator:layerName="path"/>
<path d="M168.545 115.665L168.46 115.665C167.972 116.432 167.354 116.99 166.605 117.336C165.856 117.682 165.031 117.855 164.132 117.855C163.513 117.855 162.91 117.77 162.319 117.603C161.728 117.434 161.204 117.181 160.745 116.845C160.285 116.508 159.917 116.086 159.636 115.58C159.354 115.074 159.214 114.485 159.214 113.81C159.214 113.079 159.345 112.457 159.608 111.942C159.869 111.427 160.221 110.996 160.662 110.65C161.102 110.304 161.614 110.028 162.194 109.822C162.773 109.616 163.379 109.461 164.006 109.358C164.634 109.255 165.265 109.189 165.904 109.161C166.541 109.134 167.14 109.119 167.702 109.119L168.545 109.119L168.545 108.754C168.545 107.912 168.254 107.279 167.674 106.857C167.093 106.436 166.353 106.224 165.455 106.224C164.743 106.224 164.078 106.351 163.46 106.603C162.841 106.855 162.308 107.198 161.859 107.628L160.088 105.858C160.837 105.09 161.713 104.536 162.716 104.2C163.717 103.863 164.754 103.694 165.821 103.694C166.776 103.694 167.582 103.802 168.237 104.017C168.892 104.233 169.435 104.509 169.868 104.846C170.299 105.182 170.632 105.573 170.865 106.012C171.099 106.452 171.268 106.898 171.371 107.347C171.475 107.796 171.535 108.232 171.554 108.653C171.572 109.075 171.581 109.445 171.581 109.763L171.581 117.518L168.547 117.518L168.547 115.663L168.545 115.665ZM168.348 111.48L167.645 111.48C167.175 111.48 166.651 111.498 166.071 111.537C165.49 111.576 164.943 111.664 164.428 111.804C163.913 111.944 163.476 112.15 163.121 112.422C162.766 112.695 162.587 113.074 162.587 113.56C162.587 113.878 162.657 114.145 162.797 114.36C162.937 114.576 163.121 114.758 163.346 114.909C163.57 115.06 163.824 115.166 164.104 115.233C164.385 115.299 164.665 115.33 164.947 115.33C166.108 115.33 166.966 115.054 167.518 114.502C168.07 113.95 168.346 113.195 168.346 112.24L168.346 111.482L168.348 111.48Z" fill="#000000" fill-rule="nonzero" opacity="1" stroke="none" vectornator:layerName="path"/>
<path d="M182.397 107.77C181.742 106.852 180.86 106.393 179.756 106.393C179.307 106.393 178.865 106.506 178.435 106.73C178.004 106.955 177.789 107.321 177.789 107.825C177.789 108.237 177.967 108.537 178.322 108.725C178.678 108.913 179.129 109.071 179.671 109.204C180.214 109.334 180.8 109.47 181.427 109.61C182.055 109.75 182.64 109.967 183.183 110.256C183.726 110.547 184.175 110.944 184.532 111.451C184.887 111.957 185.065 112.65 185.065 113.53C185.065 114.336 184.892 115.015 184.546 115.567C184.2 116.12 183.75 116.565 183.198 116.902C182.645 117.238 182.022 117.483 181.33 117.632C180.636 117.781 179.944 117.857 179.25 117.857C178.201 117.857 177.237 117.706 176.355 117.408C175.474 117.108 174.688 116.565 173.996 115.777L176.243 113.67C176.673 114.158 177.137 114.555 177.634 114.864C178.131 115.174 178.735 115.328 179.447 115.328C179.69 115.328 179.944 115.301 180.205 115.244C180.466 115.186 180.711 115.094 180.936 114.962C181.16 114.831 181.342 114.668 181.484 114.471C181.624 114.274 181.696 114.045 181.696 113.782C181.696 113.315 181.517 112.967 181.162 112.743C180.807 112.518 180.356 112.336 179.813 112.194C179.27 112.054 178.685 111.924 178.057 111.8C177.43 111.679 176.845 111.482 176.302 111.21C175.759 110.939 175.308 110.558 174.953 110.072C174.598 109.584 174.419 108.911 174.419 108.05C174.419 107.301 174.574 106.649 174.883 106.097C175.192 105.545 175.599 105.09 176.105 104.735C176.611 104.38 177.191 104.117 177.848 103.949C178.503 103.78 179.169 103.697 179.843 103.697C180.742 103.697 181.631 103.852 182.511 104.161C183.391 104.47 184.103 105 184.646 105.749L182.399 107.772L182.397 107.77Z" fill="#000000" fill-rule="nonzero" opacity="1" stroke="none" vectornator:layerName="path"/>
<path d="M195.574 99.4534C195.574 98.9105 195.774 98.4375 196.177 98.0345C196.581 97.6314 197.09 97.4308 197.709 97.4308C198.327 97.4308 198.846 97.6222 199.267 98.0069C199.689 98.3915 199.9 98.8737 199.9 99.4534C199.9 100.033 199.691 100.517 199.267 100.9C198.846 101.285 198.327 101.476 197.709 101.476C197.09 101.476 196.581 101.275 196.177 100.872C195.774 100.469 195.574 99.9963 195.574 99.4534ZM196.05 104.034L199.422 104.034L199.422 117.522L196.05 117.522L196.05 104.034Z" fill="#000000" fill-rule="nonzero" opacity="1" stroke="none" vectornator:layerName="path"/>
<path d="M202.346 114.401L209.568 106.785L209.568 106.728L202.683 106.728L202.683 104.03L213.641 104.03L213.641 107.093L206.334 114.82L213.977 114.82L213.977 117.518L202.344 117.518L202.344 114.399L202.346 114.401Z" fill="#000000" fill-rule="nonzero" opacity="1" stroke="none" vectornator:layerName="path"/>
<path d="M224.037 107.77C223.381 106.852 222.5 106.393 221.396 106.393C220.947 106.393 220.505 106.506 220.074 106.73C219.644 106.955 219.428 107.321 219.428 107.825C219.428 108.237 219.607 108.537 219.962 108.725C220.317 108.913 220.768 109.071 221.311 109.204C221.854 109.334 222.439 109.47 223.067 109.61C223.694 109.75 224.28 109.967 224.822 110.256C225.365 110.547 225.814 110.944 226.171 111.451C226.527 111.957 226.705 112.65 226.705 113.53C226.705 114.336 226.532 115.015 226.186 115.567C225.84 116.12 225.389 116.565 224.837 116.902C224.285 117.238 223.661 117.483 222.969 117.632C222.275 117.781 221.583 117.857 220.89 117.857C219.841 117.857 218.876 117.706 217.995 117.408C217.113 117.108 216.327 116.565 215.635 115.777L217.883 113.67C218.313 114.158 218.777 114.555 219.274 114.864C219.771 115.174 220.374 115.328 221.087 115.328C221.329 115.328 221.583 115.301 221.845 115.244C222.106 115.186 222.351 115.094 222.575 114.962C222.8 114.831 222.982 114.668 223.124 114.471C223.264 114.274 223.335 114.045 223.335 113.782C223.335 113.315 223.157 112.967 222.802 112.743C222.447 112.518 221.996 112.336 221.453 112.194C220.91 112.054 220.325 111.924 219.697 111.8C219.07 111.679 218.484 111.482 217.941 111.21C217.399 110.939 216.948 110.558 216.592 110.072C216.237 109.584 216.059 108.911 216.059 108.05C216.059 107.301 216.213 106.649 216.523 106.097C216.832 105.545 217.238 105.09 217.745 104.735C218.251 104.38 218.83 104.117 219.487 103.949C220.142 103.78 220.809 103.697 221.482 103.697C222.382 103.697 223.271 103.852 224.151 104.161C225.03 104.47 225.743 105 226.286 105.749L224.038 107.772L224.037 107.77Z" fill="#000000" fill-rule="nonzero" opacity="1" stroke="none" vectornator:layerName="path"/>
<path d="M227.745 106.899L227.745 104.034L230.528 104.034L230.528 100.129L233.899 100.129L233.899 104.034L237.607 104.034L237.607 106.899L233.899 106.899L233.899 112.8C233.899 113.473 234.026 114.009 234.278 114.401C234.53 114.795 235.033 114.991 235.782 114.991C236.082 114.991 236.409 114.958 236.764 114.894C237.12 114.828 237.401 114.721 237.607 114.57L237.607 117.408C237.252 117.577 236.816 117.693 236.301 117.759C235.785 117.826 235.331 117.857 234.937 117.857C234.037 117.857 233.303 117.759 232.73 117.562C232.158 117.365 231.709 117.065 231.381 116.662C231.054 116.259 230.829 115.759 230.706 115.159C230.585 114.559 230.524 113.867 230.524 113.079L230.524 106.898L227.741 106.898L227.745 106.899Z" fill="#000000" fill-rule="nonzero" opacity="1" stroke="none" vectornator:layerName="path"/>
<path d="M248.679 115.665L248.594 115.665C248.107 116.432 247.488 116.99 246.739 117.336C245.99 117.682 245.166 117.855 244.266 117.855C243.647 117.855 243.044 117.77 242.453 117.603C241.862 117.434 241.338 117.181 240.88 116.845C240.419 116.508 240.051 116.086 239.77 115.58C239.488 115.074 239.348 114.485 239.348 113.81C239.348 113.079 239.479 112.457 239.742 111.942C240.003 111.427 240.355 110.996 240.797 110.65C241.237 110.304 241.748 110.028 242.328 109.822C242.908 109.616 243.513 109.461 244.141 109.358C244.768 109.255 245.399 109.189 246.038 109.161C246.675 109.134 247.275 109.119 247.836 109.119L248.679 109.119L248.679 108.754C248.679 107.912 248.388 107.279 247.808 106.857C247.227 106.436 246.487 106.224 245.589 106.224C244.877 106.224 244.212 106.351 243.594 106.603C242.976 106.855 242.442 107.198 241.993 107.628L240.222 105.858C240.972 105.09 241.848 104.536 242.851 104.2C243.852 103.863 244.888 103.694 245.955 103.694C246.91 103.694 247.716 103.802 248.372 104.017C249.027 104.233 249.57 104.509 250.002 104.846C250.433 105.182 250.766 105.573 251 106.012C251.233 106.452 251.403 106.898 251.506 107.347C251.609 107.796 251.669 108.232 251.688 108.653C251.706 109.075 251.715 109.445 251.715 109.763L251.715 117.518L248.681 117.518L248.681 115.663L248.679 115.665ZM250.814 100.802L241.822 100.802L241.822 98.6105L250.814 98.6105L250.814 100.802ZM248.482 111.48L247.779 111.48C247.31 111.48 246.785 111.498 246.205 111.537C245.624 111.576 245.077 111.664 244.562 111.804C244.047 111.944 243.611 112.15 243.255 112.422C242.9 112.695 242.722 113.074 242.722 113.56C242.722 113.878 242.792 114.145 242.931 114.36C243.071 114.576 243.255 114.758 243.48 114.909C243.704 115.06 243.958 115.166 244.238 115.233C244.52 115.299 244.799 115.33 245.081 115.33C246.242 115.33 247.1 115.054 247.652 114.502C248.204 113.95 248.48 113.195 248.48 112.24L248.48 111.482L248.482 111.48Z" fill="#000000" fill-rule="nonzero" opacity="1" stroke="none" vectornator:layerName="path"/>
<path d="M266.015 115.498L265.958 115.498C265.47 116.322 264.815 116.922 263.991 117.296C263.166 117.671 262.277 117.857 261.322 117.857C260.273 117.857 259.342 117.675 258.527 117.308C257.711 116.942 257.014 116.442 256.434 115.805C255.853 115.168 255.413 114.419 255.113 113.558C254.813 112.697 254.664 111.769 254.664 110.775C254.664 109.781 254.822 108.856 255.142 107.993C255.461 107.131 255.906 106.382 256.476 105.746C257.047 105.109 257.735 104.608 258.541 104.242C259.347 103.878 260.227 103.694 261.182 103.694C261.819 103.694 262.38 103.76 262.868 103.89C263.356 104.021 263.786 104.19 264.16 104.397C264.535 104.603 264.852 104.824 265.115 105.057C265.376 105.291 265.594 105.521 265.761 105.746L265.846 105.746L265.846 96.2769L269.217 96.2769L269.217 117.52L266.013 117.52L266.013 115.498L266.015 115.498ZM258.035 110.777C258.035 111.302 258.124 111.808 258.302 112.293C258.481 112.781 258.742 113.212 259.088 113.585C259.434 113.961 259.852 114.259 260.337 114.485C260.825 114.71 261.377 114.822 261.996 114.822C262.614 114.822 263.166 114.71 263.654 114.485C264.141 114.261 264.557 113.961 264.903 113.585C265.249 113.21 265.513 112.779 265.691 112.293C265.87 111.806 265.958 111.302 265.958 110.777C265.958 110.253 265.87 109.746 265.691 109.261C265.513 108.773 265.251 108.342 264.903 107.969C264.557 107.595 264.14 107.295 263.654 107.069C263.166 106.844 262.614 106.732 261.996 106.732C261.377 106.732 260.825 106.844 260.337 107.069C259.85 107.293 259.434 107.593 259.088 107.969C258.742 108.344 258.479 108.775 258.302 109.261C258.124 109.748 258.035 110.254 258.035 110.777Z" fill="#000000" fill-rule="nonzero" opacity="1" stroke="none" vectornator:layerName="path"/>
<path d="M275.738 111.957C275.85 112.969 276.244 113.755 276.917 114.318C277.591 114.879 278.406 115.161 279.361 115.161C280.204 115.161 280.911 114.988 281.483 114.642C282.054 114.296 282.556 113.86 282.987 113.335L285.403 115.161C284.615 116.134 283.736 116.828 282.762 117.24C281.789 117.653 280.767 117.859 279.7 117.859C278.688 117.859 277.732 117.689 276.834 117.353C275.936 117.016 275.158 116.537 274.503 115.919C273.847 115.301 273.327 114.555 272.944 113.685C272.559 112.814 272.368 111.844 272.368 110.777C272.368 109.71 272.559 108.74 272.944 107.869C273.327 106.999 273.847 106.253 274.503 105.635C275.158 105.017 275.936 104.54 276.834 104.201C277.732 103.863 278.689 103.695 279.7 103.695C280.637 103.695 281.494 103.859 282.271 104.187C283.047 104.514 283.714 104.987 284.266 105.606C284.818 106.224 285.248 106.988 285.558 107.895C285.867 108.804 286.021 109.848 286.021 111.027L286.021 111.955L275.738 111.955L275.738 111.957ZM282.648 109.428C282.63 108.436 282.32 107.654 281.72 107.082C281.121 106.511 280.287 106.224 279.219 106.224C278.207 106.224 277.407 106.515 276.818 107.094C276.227 107.676 275.866 108.453 275.736 109.426L282.648 109.426L282.648 109.428Z" fill="#000000" fill-rule="nonzero" opacity="1" stroke="none" vectornator:layerName="path"/>
</g>
</g>
</svg>
