<?xml version="1.0" encoding="UTF-8" standalone="no"?>
<!DOCTYPE svg PUBLIC "-//W3C//DTD SVG 1.1//EN" "http://www.w3.org/Graphics/SVG/1.1/DTD/svg11.dtd">
<!-- Created with Vectornator (http://vectornator.io/) -->
<svg height="100%" stroke-miterlimit="10" style="fill-rule:nonzero;clip-rule:evenodd;stroke-linecap:round;stroke-linejoin:round;" version="1.1" viewBox="0 0 168.157 115.589" width="100%" xml:space="preserve" xmlns="http://www.w3.org/2000/svg" xmlns:vectornator="http://vectornator.io" xmlns:xlink="http://www.w3.org/1999/xlink">
<defs/>
<g id="Layer-1" vectornator:layerName="Layer 1">
<g opacity="1" vectornator:layerName="Group 2">
<path d="M88.1915 83.0559C87.8625 83.0559 87.5413 82.9266 87.3062 82.6798C86.323 81.6653 81.3874 76.4672 80.7685 73.6155C80.4669 72.2249 81.2503 69.3536 81.7125 67.8572C80.8977 66.8153 79.8989 65.3228 79.8636 64.2769C79.8479 63.7951 80.0791 63.1645 80.553 62.4045L78.4064 57.9468C78.2536 57.6295 78.2419 57.2574 78.379 56.9322C78.5161 56.6071 78.7864 56.3525 79.1193 56.2389L90.9531 52.212C91.3292 52.0828 91.7444 52.1454 92.0695 52.3766C92.3947 52.6077 92.5866 52.9837 92.5866 53.3793L92.5866 59.9014C93.2212 60.3049 93.6364 60.7084 93.8244 61.0962C94.0947 61.6603 94.1065 62.6278 94.032 63.5366C95.4775 64.3279 97.9805 65.8281 98.7248 67.113C100.068 69.4319 100.158 76.4633 100.162 77.8499C100.162 78.367 99.8412 78.8332 99.3555 79.0133L88.6224 82.9775C88.4814 83.0284 88.3365 83.0559 88.1954 83.0559L88.1915 83.0559ZM82.3471 64.2691C82.4881 64.6961 83.2559 65.8673 84.0354 66.8113C84.3057 67.1404 84.3919 67.583 84.2587 67.9865C83.6202 69.9216 83.0365 72.4364 83.1775 73.0906C83.5105 74.6261 86.4327 78.1437 88.5245 80.3765L97.6789 76.996C97.6202 73.9876 97.299 69.5847 96.586 68.3508C96.2217 67.724 93.9968 66.2825 92.1479 65.3346C91.6817 65.0956 91.4193 64.5864 91.4898 64.0693C91.5838 63.3838 91.623 62.5808 91.5916 62.2165C91.4154 62.0755 91.0746 61.86 90.7769 61.7033C90.3734 61.4879 90.1188 61.0688 90.1188 60.6105L90.1188 55.099L81.2385 58.123L83.0874 61.9619C83.2833 62.3693 83.2402 62.8511 82.9778 63.2193C82.7192 63.5758 82.4489 64.0301 82.351 64.2613L82.3471 64.2691Z" fill="#000000" fill-rule="nonzero" opacity="1" stroke="none" vectornator:layerName="path"/>
<path d="M56.4271 0C37.609 0 22.8687 7.4818 22.8687 17.0358C22.8687 20.6396 24.6667 25.6105 32.9241 29.4023L29.0304 31.2199L32.3718 32.4342L37.7383 29.9311L35.2352 24.5646L31.8939 23.3503L33.5939 26.9893C29.4731 25.0229 25.3404 21.85 25.3404 17.0397C25.3404 9.1466 39.5755 2.47565 56.4271 2.47565C73.2788 2.47565 87.5139 9.1466 87.5139 17.0397C87.5139 24.9328 73.2788 31.6038 56.4271 31.6038C55.7456 31.6038 55.1932 32.1561 55.1932 32.8377C55.1932 33.5193 55.7456 34.0716 56.4271 34.0716C75.2453 34.0716 89.9856 26.5898 89.9856 17.0358C89.9856 7.4818 75.2453 0 56.4271 0Z" fill="#000000" fill-rule="nonzero" opacity="1" stroke="none" vectornator:layerName="path"/>
<g opacity="1" vectornator:layerName="g">
<path d="M47.3197 21.141C46.6851 21.141 46.1485 21.0666 45.7019 20.9138C45.2554 20.761 44.8911 20.5691 44.6051 20.3301C44.3192 20.0912 44.1115 19.8366 43.9705 19.5624C43.8295 19.2882 43.759 19.0296 43.7512 18.7789C43.7512 18.7045 43.7786 18.6458 43.8295 18.5948C43.8804 18.5478 43.9431 18.5204 44.0175 18.5204L45.6001 18.5204C45.698 18.5204 45.7763 18.54 45.8312 18.5752C45.886 18.6105 45.9409 18.6693 45.9879 18.7515C46.0505 18.9043 46.1485 19.0296 46.2738 19.1276C46.3992 19.2255 46.5519 19.2921 46.7282 19.3273C46.9045 19.3626 47.1004 19.3822 47.3119 19.3822C47.7271 19.3822 48.0483 19.2882 48.2794 19.0962C48.5105 18.9043 48.6281 18.6458 48.6281 18.3128C48.6281 17.9798 48.5184 17.7135 48.299 17.5646C48.0796 17.4158 47.7663 17.3374 47.3628 17.3374L46.0114 17.3374C45.9213 17.3374 45.8508 17.31 45.792 17.2512C45.7333 17.1964 45.7058 17.122 45.7058 17.0319L45.7058 16.3503C45.7058 16.2524 45.7254 16.1662 45.7685 16.0957C45.8077 16.0212 45.8547 15.9703 45.9017 15.939L47.8995 14.2468L44.515 14.2468C44.4328 14.2468 44.3622 14.2193 44.3035 14.1606C44.2408 14.1018 44.2134 14.0313 44.2134 13.9412L44.2134 12.7974C44.2134 12.7073 44.2447 12.6368 44.3035 12.5781C44.3662 12.5232 44.4367 12.4919 44.515 12.4919L50.1127 12.4919C50.2028 12.4919 50.2772 12.5193 50.3399 12.5781C50.4025 12.6368 50.43 12.7073 50.43 12.7974L50.43 13.8315C50.43 13.9216 50.4104 14 50.3673 14.0705C50.3242 14.141 50.2811 14.1958 50.2341 14.235L48.3852 15.9507L48.4714 15.9742C48.9336 16.0291 49.3488 16.1544 49.7131 16.3464C50.0774 16.5383 50.3673 16.8008 50.5749 17.1455C50.7864 17.4863 50.8922 17.9211 50.8922 18.446C50.8922 18.9709 50.7355 19.4762 50.4221 19.8757C50.1087 20.2792 49.6857 20.5887 49.149 20.808C48.6124 21.0274 48.0013 21.1371 47.3119 21.1371L47.3197 21.141Z" fill="#000000" fill-rule="nonzero" opacity="1" stroke="none" vectornator:layerName="path"/>
<path d="M55.4008 21.141C54.6879 21.141 54.0573 21.0117 53.5128 20.7532C52.9683 20.4947 52.5452 20.1343 52.2397 19.676C51.9341 19.2177 51.7853 18.6928 51.7853 18.1013C51.7853 17.8506 51.8245 17.5999 51.8989 17.3531C51.9772 17.1063 52.0712 16.8713 52.1848 16.648C52.2984 16.4247 52.412 16.2249 52.5256 16.0526C52.6392 15.8763 52.7333 15.7392 52.8038 15.6334L54.9465 12.7504C54.9856 12.7112 55.0405 12.6603 55.1031 12.5976C55.1658 12.535 55.2598 12.5075 55.3813 12.5075L56.9991 12.5075C57.0735 12.5075 57.1322 12.535 57.1832 12.5859C57.2302 12.6368 57.2576 12.7034 57.2576 12.7739C57.2576 12.8052 57.2576 12.8366 57.2458 12.864C57.2341 12.8914 57.2263 12.9149 57.2106 12.9306L55.5654 15.1712C55.6124 15.1556 55.6711 15.1438 55.7416 15.1399C55.8122 15.136 55.8748 15.132 55.9297 15.132C56.294 15.1477 56.6543 15.23 57.0147 15.3749C57.3712 15.5198 57.6963 15.7196 57.9901 15.9703C58.28 16.221 58.515 16.5226 58.6913 16.8752C58.8636 17.2277 58.9537 17.6234 58.9537 18.0621C58.9537 18.6223 58.8088 19.1354 58.515 19.6015C58.2212 20.0677 57.8099 20.4398 57.2811 20.7219C56.7484 21 56.1216 21.141 55.4008 21.141ZM55.3891 19.3861C55.6241 19.3861 55.8435 19.3352 56.0472 19.2333C56.2509 19.1315 56.4154 18.9865 56.5407 18.7946C56.6661 18.6027 56.7288 18.3676 56.7288 18.0817C56.7288 17.7957 56.6661 17.5607 56.5447 17.3688C56.4232 17.1768 56.2587 17.0358 56.0589 16.9379C55.8552 16.8399 55.632 16.7929 55.3891 16.7929C55.1462 16.7929 54.919 16.8399 54.7153 16.9379C54.5077 17.0358 54.3432 17.1807 54.2218 17.3688C54.1003 17.5607 54.0377 17.7957 54.0377 18.0817C54.0377 18.3676 54.1003 18.6027 54.2257 18.7946C54.351 18.9865 54.5156 19.1315 54.7193 19.2333C54.923 19.3352 55.1462 19.3861 55.3891 19.3861Z" fill="#000000" fill-rule="nonzero" opacity="1" stroke="none" vectornator:layerName="path"/>
<path d="M63.435 21.141C62.8513 21.141 62.3421 21.0587 61.9151 20.8903C61.4881 20.7219 61.1317 20.4947 60.8496 20.2009C60.5715 19.9071 60.3561 19.5663 60.2111 19.1785C60.0662 18.7907 59.98 18.3716 59.9565 17.925C59.9487 17.7056 59.9409 17.4549 59.9369 17.1768C59.933 16.8987 59.933 16.6127 59.9369 16.3229C59.9369 16.0369 59.9487 15.7784 59.9565 15.5512C59.98 15.1046 60.0701 14.6894 60.219 14.3055C60.3678 13.9216 60.5872 13.5848 60.8771 13.2949C61.163 13.0089 61.5234 12.7817 61.9464 12.6211C62.3734 12.4605 62.8709 12.3783 63.4389 12.3783C64.0069 12.3783 64.5122 12.4605 64.9353 12.6211C65.3583 12.7817 65.7109 13.0089 66.0007 13.2949C66.2867 13.5848 66.51 13.9216 66.6627 14.3055C66.8155 14.6894 66.9017 15.1085 66.9173 15.5512C66.933 15.7784 66.9448 16.0369 66.9487 16.3229C66.9487 16.6127 66.9487 16.8948 66.9487 17.1768C66.9448 17.4549 66.933 17.7056 66.9173 17.925C66.9017 18.3716 66.8194 18.7907 66.6666 19.1785C66.5178 19.5663 66.3023 19.9071 66.0203 20.2009C65.7422 20.4947 65.3857 20.7219 64.9627 20.8903C64.5357 21.0548 64.0265 21.141 63.435 21.141ZM63.435 19.3743C63.858 19.3743 64.1636 19.2372 64.3555 18.967C64.5475 18.6967 64.6454 18.3285 64.6532 17.8662C64.6689 17.6312 64.6806 17.3844 64.6846 17.1259C64.6885 16.8674 64.6885 16.6049 64.6846 16.3464C64.6846 16.0878 64.6689 15.8489 64.6532 15.6295C64.6454 15.183 64.5475 14.8226 64.3555 14.5445C64.1636 14.2703 63.858 14.1253 63.435 14.1175C63.0119 14.1253 62.7103 14.2664 62.5223 14.5445C62.3342 14.8226 62.2363 15.183 62.2167 15.6295C62.2089 15.8489 62.2011 16.0878 62.1971 16.3464C62.1971 16.6049 62.1971 16.8674 62.1971 17.1259C62.2011 17.3844 62.2089 17.6312 62.2167 17.8662C62.2324 18.3285 62.3382 18.6967 62.534 18.967C62.7299 19.2372 63.0276 19.3743 63.435 19.3743Z" fill="#000000" fill-rule="nonzero" opacity="1" stroke="none" vectornator:layerName="path"/>
</g>
<path d="M66.3102 10.8976C66.3102 10.0582 66.9906 9.37776 67.83 9.37776C68.6694 9.37776 69.3499 10.0582 69.3499 10.8976C69.3499 11.737 68.6694 12.4175 67.83 12.4175C66.9906 12.4175 66.3102 11.737 66.3102 10.8976Z" fill="#000000" fill-rule="nonzero" opacity="1" stroke="none" vectornator:layerName="circle"/>
<path d="M85.3046 42.3956L76.867 45.5763C76.3342 45.7761 76.0679 46.3715 76.2676 46.9043C76.4243 47.3156 76.816 47.5702 77.2313 47.5702C77.3527 47.5702 77.4741 47.5506 77.5956 47.5036L86.0332 44.3228C86.5659 44.1231 86.8323 43.5277 86.6325 42.9949C86.4327 42.4622 85.8373 42.1919 85.3046 42.3956Z" fill="#000000" fill-rule="nonzero" opacity="1" stroke="none" vectornator:layerName="path"/>
<path d="M101.894 92.1006L99.093 93.1583C98.5603 93.358 98.2939 93.9535 98.4937 94.4862C98.6504 94.8975 99.0421 95.1521 99.4573 95.1521C99.5788 95.1521 99.7002 95.1325 99.8216 95.0855L102.622 94.0279C103.155 93.8281 103.421 93.2327 103.222 92.7C103.022 92.1672 102.427 91.8969 101.894 92.1006Z" fill="#000000" fill-rule="nonzero" opacity="1" stroke="none" vectornator:layerName="path"/>
<path d="M145.226 102.148L133.787 71.8097C133.748 71.7 132.749 69.1538 128.895 67.5595C122.843 65.0564 107.444 58.6558 107.444 58.6558L107.421 58.7106L99.2654 37.0761C98.1411 34.0951 94.7763 32.5909 91.764 33.7269L67.0897 43.0302C64.0774 44.1662 62.5458 47.5153 63.67 50.5002L65.0959 54.2803L38.6275 54.2803L38.6275 89.7347L74.0819 89.7347L74.0819 78.1124L82.6252 100.769C83.4948 103.077 85.7041 104.498 88.0544 104.498C88.7438 104.498 89.4411 104.377 90.1227 104.119L112.913 95.5282C113.657 95.2461 114.033 94.4157 113.751 93.6714C113.469 92.9272 112.639 92.5511 111.894 92.8292L89.1042 101.42C87.5804 101.995 85.8804 101.243 85.3163 99.7509L66.365 49.4818C65.8009 47.9854 66.5805 46.301 68.1042 45.7291L92.7785 36.4258C94.3023 35.85 96.0024 36.6021 96.5664 38.0945L107.468 67.0033C107.75 67.7475 108.58 68.1236 109.325 67.8455C110.069 67.5634 110.445 66.733 110.163 65.9887L108.385 61.2764C112.576 63.0156 123.289 67.4655 128.104 69.4594C131.077 70.6893 131.829 72.4677 131.856 72.5343L143.294 102.873C143.451 103.284 143.843 103.539 144.258 103.539C144.379 103.539 144.501 103.519 144.622 103.472C145.155 103.272 145.421 102.677 145.222 102.144L145.226 102.148ZM53.3169 74.9395L47.6057 74.9395L47.6057 69.0716L53.3169 69.0716L53.3169 74.9395ZM65.2447 80.921L59.3768 80.921L59.3768 63.2859L65.2447 63.2859L65.2447 80.921Z" fill="#000000" fill-rule="nonzero" opacity="1" stroke="none" vectornator:layerName="path"/>
<path d="M125.06 77.2584L103.261 67.9591L102.904 69.0167C102.705 69.616 101.698 72.6675 101.698 73.9014C101.702 77.1919 103.371 79.6518 104.93 80.8544C107.01 82.4605 112.721 84.8852 114.644 85.6804C114.687 86.9456 114.879 89.6171 115.702 91.3211C116.959 93.9182 120.117 96.0217 120.25 96.1118C120.426 96.2254 120.622 96.2803 120.814 96.2803C121.147 96.2803 121.476 96.1196 121.672 95.818C121.985 95.344 121.856 94.7055 121.382 94.3922C121.354 94.3726 118.561 92.508 117.551 90.4241C116.822 88.9238 116.677 85.9938 116.685 84.991L116.685 84.2898L116.039 84.0273C115.964 83.996 108.42 80.9523 106.183 79.2249C105.067 78.3592 103.758 76.4476 103.754 73.8975C103.754 73.3922 104.131 71.982 104.51 70.7364L124.245 79.1583C124.766 79.3816 125.373 79.1387 125.597 78.6138C125.82 78.0889 125.577 77.4856 125.052 77.2624L125.06 77.2584Z" fill="#000000" fill-rule="nonzero" opacity="1" stroke="none" vectornator:layerName="path"/>
<path d="M118.017 101.964L117.751 101.263L117.002 101.298C116.979 101.306 114.562 101.392 112.31 99.8175C111.843 99.4923 111.201 99.6059 110.876 100.072C110.551 100.538 110.664 101.181 111.131 101.506C113.148 102.916 115.24 103.261 116.336 103.339L119.541 111.835C119.697 112.247 120.089 112.501 120.504 112.501C120.626 112.501 120.747 112.482 120.869 112.435C121.401 112.235 121.668 111.639 121.468 111.107L118.021 101.96L118.017 101.964Z" fill="#000000" fill-rule="nonzero" opacity="1" stroke="none" vectornator:layerName="path"/>
</g>
</g>
</svg>
