<?xml version="1.0" encoding="UTF-8" standalone="no"?>
<!DOCTYPE svg PUBLIC "-//W3C//DTD SVG 1.1//EN" "http://www.w3.org/Graphics/SVG/1.1/DTD/svg11.dtd">
<!-- Created with Vectornator (http://vectornator.io/) -->
<svg height="100%" stroke-miterlimit="10" style="fill-rule:nonzero;clip-rule:evenodd;stroke-linecap:round;stroke-linejoin:round;" version="1.1" viewBox="0 0 168.157 118.35" width="100%" xml:space="preserve" xmlns="http://www.w3.org/2000/svg" xmlns:vectornator="http://vectornator.io" xmlns:xlink="http://www.w3.org/1999/xlink">
<defs/>
<clipPath id="ArtboardFrame">
<rect height="118.35" width="168.157" x="0" y="0"/>
</clipPath>
<g clip-path="url(#ArtboardFrame)" id="Layer-1" vectornator:layerName="Layer 1">
<g opacity="1" vectornator:layerName="Group 2">
<path d="M87.7412 294.032C87.4121 294.032 87.0909 293.903 86.8559 293.656C85.8727 292.642 80.9371 287.444 80.3181 284.592C80.0165 283.201 80.8 280.33 81.2622 278.834C80.4474 277.792 79.4485 276.299 79.4133 275.253C79.3976 274.771 79.6287 274.141 80.1027 273.381L77.9561 268.923C77.8033 268.606 77.7916 268.234 77.9287 267.909C78.0658 267.583 78.336 267.329 78.669 267.215L90.5028 263.188C90.8788 263.059 91.2941 263.122 91.6192 263.353C91.9443 263.584 92.1363 263.96 92.1363 264.356L92.1363 270.878C92.7708 271.281 93.1861 271.685 93.3741 272.073C93.6444 272.637 93.6561 273.604 93.5817 274.513C95.0271 275.304 97.5302 276.804 98.2745 278.089C99.6181 280.408 99.7082 287.44 99.7121 288.826C99.7121 289.343 99.3909 289.81 98.9051 289.99L88.1721 293.954C88.0311 294.005 87.8861 294.032 87.7451 294.032L87.7412 294.032ZM81.8968 275.245C82.0378 275.672 82.8055 276.844 83.5851 277.788C83.8553 278.117 83.9415 278.559 83.8083 278.963C83.1698 280.898 82.5862 283.413 82.7272 284.067C83.0602 285.602 85.9824 289.12 88.0741 291.353L97.2286 287.972C97.1698 284.964 96.8486 280.561 96.1357 279.327C95.7714 278.7 93.5464 277.259 91.6975 276.311C91.2314 276.072 90.9689 275.563 91.0394 275.046C91.1335 274.36 91.1726 273.557 91.1413 273.193C90.965 273.052 90.6242 272.836 90.3265 272.68C89.9231 272.464 89.6684 272.045 89.6684 271.587L89.6684 266.075L80.7882 269.099L82.6371 272.938C82.833 273.346 82.7899 273.827 82.5274 274.196C82.2689 274.552 81.9986 275.007 81.9007 275.238L81.8968 275.245Z" fill="#000000" fill-rule="nonzero" opacity="1" stroke="none" vectornator:layerName="path"/>
<path d="M55.9768 210.976C37.1587 210.976 22.4184 218.458 22.4184 228.012C22.4184 231.616 24.2164 236.587 32.4738 240.379L28.5801 242.196L31.9214 243.411L37.288 240.907L34.7849 235.541L31.4435 234.327L33.1436 237.966C29.0227 235.999 24.8901 232.826 24.8901 228.016C24.8901 220.123 39.1251 213.452 55.9768 213.452C72.8285 213.452 87.0635 220.123 87.0635 228.016C87.0635 235.909 72.8285 242.58 55.9768 242.58C55.2952 242.58 54.7429 243.132 54.7429 243.814C54.7429 244.496 55.2952 245.048 55.9768 245.048C74.7949 245.048 89.5353 237.566 89.5353 228.012C89.5353 218.458 74.7949 210.976 55.9768 210.976Z" fill="#000000" fill-rule="nonzero" opacity="1" stroke="none" vectornator:layerName="path"/>
<g opacity="1" vectornator:layerName="g">
<path d="M46.8694 232.117C46.2348 232.117 45.6981 232.043 45.2516 231.89C44.805 231.737 44.4407 231.545 44.1548 231.307C43.8688 231.068 43.6612 230.813 43.5202 230.539C43.3792 230.265 43.3087 230.006 43.3008 229.755C43.3008 229.681 43.3283 229.622 43.3792 229.571C43.4301 229.524 43.4928 229.497 43.5672 229.497L45.1497 229.497C45.2477 229.497 45.326 229.516 45.3809 229.552C45.4357 229.587 45.4905 229.646 45.5375 229.728C45.6002 229.881 45.6981 230.006 45.8235 230.104C45.9488 230.202 46.1016 230.268 46.2779 230.304C46.4542 230.339 46.65 230.359 46.8615 230.359C47.2768 230.359 47.598 230.265 47.8291 230.073C48.0602 229.881 48.1777 229.622 48.1777 229.289C48.1777 228.956 48.068 228.69 47.8487 228.541C47.6293 228.392 47.3159 228.314 46.9125 228.314L45.561 228.314C45.4709 228.314 45.4004 228.286 45.3417 228.228C45.2829 228.173 45.2555 228.098 45.2555 228.008L45.2555 227.327C45.2555 227.229 45.2751 227.143 45.3182 227.072C45.3574 226.998 45.4044 226.947 45.4514 226.915L47.4491 225.223L44.0647 225.223C43.9824 225.223 43.9119 225.196 43.8532 225.137C43.7905 225.078 43.7631 225.008 43.7631 224.918L43.7631 223.774C43.7631 223.684 43.7944 223.613 43.8532 223.554C43.9158 223.5 43.9863 223.468 44.0647 223.468L49.6623 223.468C49.7524 223.468 49.8268 223.496 49.8895 223.554C49.9522 223.613 49.9796 223.684 49.9796 223.774L49.9796 224.808C49.9796 224.898 49.96 224.976 49.9169 225.047C49.8739 225.117 49.8308 225.172 49.7838 225.211L47.9349 226.927L48.021 226.951C48.4833 227.005 48.8985 227.131 49.2628 227.323C49.6271 227.515 49.9169 227.777 50.1246 228.122C50.3361 228.463 50.4418 228.897 50.4418 229.422C50.4418 229.947 50.2852 230.453 49.9718 230.852C49.6584 231.256 49.2354 231.565 48.6987 231.784C48.162 232.004 47.551 232.113 46.8615 232.113L46.8694 232.117Z" fill="#000000" fill-rule="nonzero" opacity="1" stroke="none" vectornator:layerName="path"/>
<path d="M54.9505 232.117C54.2376 232.117 53.6069 231.988 53.0624 231.73C52.5179 231.471 52.0949 231.111 51.7894 230.652C51.4838 230.194 51.335 229.669 51.335 229.078C51.335 228.827 51.3741 228.576 51.4486 228.329C51.5269 228.083 51.6209 227.848 51.7345 227.624C51.8481 227.401 51.9617 227.201 52.0753 227.029C52.1889 226.853 52.2829 226.716 52.3534 226.61L54.4961 223.727C54.5353 223.688 54.5901 223.637 54.6528 223.574C54.7155 223.511 54.8095 223.484 54.9309 223.484L56.5487 223.484C56.6231 223.484 56.6819 223.511 56.7328 223.562C56.7798 223.613 56.8073 223.68 56.8073 223.75C56.8073 223.782 56.8073 223.813 56.7955 223.84C56.7838 223.868 56.7759 223.891 56.7602 223.907L55.115 226.148C55.162 226.132 55.2208 226.12 55.2913 226.116C55.3618 226.112 55.4245 226.108 55.4793 226.108C55.8436 226.124 56.204 226.206 56.5644 226.351C56.9209 226.496 57.246 226.696 57.5398 226.947C57.8296 227.197 58.0647 227.499 58.2409 227.852C58.4133 228.204 58.5034 228.6 58.5034 229.038C58.5034 229.599 58.3585 230.112 58.0647 230.578C57.7709 231.044 57.3596 231.416 56.8308 231.698C56.298 231.976 55.6713 232.117 54.9505 232.117ZM54.9388 230.362C55.1738 230.362 55.3932 230.312 55.5968 230.21C55.8005 230.108 55.9651 229.963 56.0904 229.771C56.2158 229.579 56.2784 229.344 56.2784 229.058C56.2784 228.772 56.2158 228.537 56.0943 228.345C55.9729 228.153 55.8084 228.012 55.6086 227.914C55.4049 227.816 55.1816 227.769 54.9388 227.769C54.6959 227.769 54.4687 227.816 54.265 227.914C54.0574 228.012 53.8929 228.157 53.7714 228.345C53.65 228.537 53.5873 228.772 53.5873 229.058C53.5873 229.344 53.65 229.579 53.7754 229.771C53.9007 229.963 54.0652 230.108 54.2689 230.21C54.4726 230.312 54.6959 230.362 54.9388 230.362Z" fill="#000000" fill-rule="nonzero" opacity="1" stroke="none" vectornator:layerName="path"/>
<path d="M62.9846 232.117C62.401 232.117 61.8917 232.035 61.4648 231.867C61.0378 231.698 60.6813 231.471 60.3993 231.177C60.1212 230.883 59.9057 230.543 59.7608 230.155C59.6159 229.767 59.5297 229.348 59.5062 228.901C59.4984 228.682 59.4905 228.431 59.4866 228.153C59.4827 227.875 59.4827 227.589 59.4866 227.299C59.4866 227.013 59.4984 226.755 59.5062 226.528C59.5297 226.081 59.6198 225.666 59.7686 225.282C59.9175 224.898 60.1369 224.561 60.4267 224.271C60.7127 223.985 61.0731 223.758 61.4961 223.598C61.9231 223.437 62.4206 223.355 62.9886 223.355C63.5565 223.355 64.0619 223.437 64.4849 223.598C64.908 223.758 65.2605 223.985 65.5504 224.271C65.8363 224.561 66.0596 224.898 66.2124 225.282C66.3652 225.666 66.4513 226.085 66.467 226.528C66.4827 226.755 66.4944 227.013 66.4983 227.299C66.4983 227.589 66.4983 227.871 66.4983 228.153C66.4944 228.431 66.4827 228.682 66.467 228.901C66.4513 229.348 66.3691 229.767 66.2163 230.155C66.0675 230.543 65.852 230.883 65.57 231.177C65.2919 231.471 64.9354 231.698 64.5123 231.867C64.0854 232.031 63.5761 232.117 62.9846 232.117ZM62.9846 230.351C63.4077 230.351 63.7132 230.214 63.9052 229.943C64.0971 229.673 64.195 229.305 64.2029 228.843C64.2185 228.608 64.2303 228.361 64.2342 228.102C64.2381 227.844 64.2381 227.581 64.2342 227.323C64.2342 227.064 64.2185 226.825 64.2029 226.606C64.195 226.159 64.0971 225.799 63.9052 225.521C63.7132 225.247 63.4077 225.102 62.9846 225.094C62.5616 225.102 62.26 225.243 62.0719 225.521C61.8839 225.799 61.786 226.159 61.7664 226.606C61.7586 226.825 61.7507 227.064 61.7468 227.323C61.7468 227.581 61.7468 227.844 61.7468 228.102C61.7507 228.361 61.7586 228.608 61.7664 228.843C61.7821 229.305 61.8878 229.673 62.0837 229.943C62.2795 230.214 62.5773 230.351 62.9846 230.351Z" fill="#000000" fill-rule="nonzero" opacity="1" stroke="none" vectornator:layerName="path"/>
</g>
<path d="M65.8598 221.874C65.8598 221.035 66.5403 220.354 67.3797 220.354C68.2191 220.354 68.8996 221.035 68.8996 221.874C68.8996 222.713 68.2191 223.394 67.3797 223.394C66.5403 223.394 65.8598 222.713 65.8598 221.874Z" fill="#000000" fill-rule="nonzero" opacity="1" stroke="none" vectornator:layerName="circle"/>
<path d="M84.8542 253.372L76.4166 256.553C75.8839 256.752 75.6175 257.348 75.8173 257.881C75.974 258.292 76.3657 258.547 76.7809 258.547C76.9024 258.547 77.0238 258.527 77.1452 258.48L85.5828 255.299C86.1156 255.099 86.3819 254.504 86.1822 253.971C85.9824 253.439 85.387 253.168 84.8542 253.372Z" fill="#000000" fill-rule="nonzero" opacity="1" stroke="none" vectornator:layerName="path"/>
<path d="M101.443 303.077L98.6427 304.135C98.11 304.334 97.8436 304.93 98.0434 305.463C98.2 305.874 98.5918 306.128 99.007 306.128C99.1284 306.128 99.2498 306.109 99.3713 306.062L102.172 305.004C102.705 304.804 102.971 304.209 102.771 303.676C102.572 303.144 101.976 302.873 101.443 303.077Z" fill="#000000" fill-rule="nonzero" opacity="1" stroke="none" vectornator:layerName="path"/>
<path d="M144.775 313.125L133.337 282.786C133.298 282.676 132.299 280.13 128.445 278.536C122.393 276.033 106.994 269.632 106.994 269.632L106.971 269.687L98.815 248.052C97.6908 245.071 94.326 243.567 91.3137 244.703L66.6394 254.007C63.6271 255.143 62.0954 258.492 63.2197 261.477L64.6455 265.257L38.1772 265.257L38.1772 300.711L73.6315 300.711L73.6315 289.089L82.1749 311.746C83.0445 314.053 85.2538 315.475 87.6041 315.475C88.2935 315.475 88.9908 315.353 89.6724 315.095L112.462 306.505C113.207 306.222 113.583 305.392 113.301 304.648C113.019 303.904 112.188 303.527 111.444 303.806L88.6539 312.396C87.1301 312.972 85.4301 312.22 84.866 310.727L65.9147 260.458C65.3506 258.962 66.1301 257.277 67.6539 256.705L92.3282 247.402C93.852 246.826 95.552 247.578 96.1161 249.071L107.018 277.98C107.3 278.724 108.13 279.1 108.874 278.822C109.619 278.54 109.995 277.709 109.713 276.965L107.934 272.253C112.126 273.992 122.839 278.442 127.653 280.436C130.626 281.666 131.379 283.444 131.406 283.511L142.844 313.849C143.001 314.261 143.392 314.515 143.808 314.515C143.929 314.515 144.051 314.496 144.172 314.449C144.705 314.249 144.971 313.653 144.771 313.121L144.775 313.125ZM52.8666 285.916L47.1553 285.916L47.1553 280.048L52.8666 280.048L52.8666 285.916ZM64.7944 291.897L58.9264 291.897L58.9264 274.262L64.7944 274.262L64.7944 291.897Z" fill="#000000" fill-rule="nonzero" opacity="1" stroke="none" vectornator:layerName="path"/>
<path d="M124.61 288.235L102.811 278.935L102.454 279.993C102.254 280.592 101.248 283.644 101.248 284.878C101.252 288.168 102.92 290.628 104.479 291.831C106.559 293.437 112.271 295.862 114.194 296.657C114.237 297.922 114.429 300.593 115.252 302.297C116.509 304.895 119.666 306.998 119.799 307.088C119.976 307.202 120.171 307.257 120.363 307.257C120.696 307.257 121.025 307.096 121.221 306.794C121.535 306.32 121.405 305.682 120.931 305.369C120.904 305.349 118.111 303.484 117.1 301.4C116.372 299.9 116.227 296.97 116.235 295.967L116.235 295.266L115.588 295.004C115.514 294.972 107.969 291.929 105.733 290.201C104.616 289.336 103.308 287.424 103.304 284.874C103.304 284.369 103.68 282.958 104.06 281.713L123.795 290.135C124.316 290.358 124.923 290.115 125.146 289.59C125.37 289.065 125.127 288.462 124.602 288.239L124.61 288.235Z" fill="#000000" fill-rule="nonzero" opacity="1" stroke="none" vectornator:layerName="path"/>
<path d="M117.567 312.94L117.3 312.239L116.552 312.275C116.529 312.282 114.112 312.369 111.859 310.794C111.393 310.469 110.751 310.582 110.426 311.048C110.1 311.515 110.214 312.157 110.68 312.482C112.698 313.892 114.789 314.237 115.886 314.315L119.09 322.812C119.247 323.223 119.639 323.478 120.054 323.478C120.175 323.478 120.297 323.458 120.418 323.411C120.951 323.211 121.217 322.616 121.018 322.083L117.57 312.937L117.567 312.94Z" fill="#000000" fill-rule="nonzero" opacity="1" stroke="none" vectornator:layerName="path"/>
</g>
<g opacity="1" vectornator:layerName="Group 1">
<path d="M93.1435 8.75137L80.6296 8.75137C79.9561 8.75137 79.4079 8.20325 79.4079 7.52971C79.4079 6.85617 79.9561 6.30805 80.6296 6.30805L93.1435 6.30805C93.8171 6.30805 94.3652 6.85617 94.3652 7.52971C94.3652 8.20325 93.8171 8.75137 93.1435 8.75137Z" fill="#000000" fill-rule="nonzero" opacity="1" stroke="none" vectornator:layerName="path"/>
<g opacity="1" vectornator:layerName="g">
<path d="M84.7823 83.7187C84.1088 83.7187 83.5607 84.2668 83.5607 84.9403C83.5607 85.6139 84.1088 86.162 84.7823 86.162L88.9397 86.162C89.6132 86.162 90.1614 85.6139 90.1614 84.9403C90.1614 84.2668 89.6132 83.7187 88.9397 83.7187L84.7823 83.7187Z" fill="#000000" fill-rule="nonzero" opacity="1" stroke="none" vectornator:layerName="path"/>
<path d="M136.492 62.4348C130.76 57.0604 117.391 44.5001 113.865 41.1881L113.865 7.94313C113.865 3.56279 110.265 0 105.843 0L67.9624 0C63.5403 0 59.9403 3.56279 59.9403 7.94313L59.9403 32.5343L26.5513 32.5343L26.5513 74.5771L59.9403 74.5771L59.9403 85.1215C59.9403 89.5018 63.5403 93.0646 67.9624 93.0646L102.949 93.0646C103.892 93.0646 104.659 92.2982 104.659 91.3552C104.659 90.4123 103.892 89.6458 102.949 89.6458L67.9624 89.6458C65.4215 89.6458 63.3591 87.6159 63.3591 85.1215L63.3591 7.94313C63.3591 5.44871 65.4262 3.4188 67.9624 3.4188L105.843 3.4188C108.384 3.4188 110.447 5.44871 110.447 7.94313L110.447 52.3317C110.447 53.2747 111.213 54.0411 112.156 54.0411C113.099 54.0411 113.865 53.2747 113.865 52.3317L113.865 44.5419C118.831 49.2102 129.779 59.4945 134.824 64.2185C138.159 67.3447 138.257 70.0946 138.261 70.2014L138.261 115.208C138.261 115.881 138.81 116.429 139.483 116.429C140.157 116.429 140.705 115.881 140.705 115.208L140.705 70.2014C140.705 70.0435 140.658 66.3367 136.496 62.4395L136.492 62.4348ZM43.9612 57.0233L37.1886 57.0233L37.1886 50.0649L43.9612 50.0649L43.9612 57.0233ZM58.1102 64.1164L51.1518 64.1164L51.1518 43.2041L58.1102 43.2041L58.1102 64.1164Z" fill="#000000" fill-rule="nonzero" opacity="1" stroke="none" vectornator:layerName="path"/>
<path d="M104.111 51.4584C103.864 51.2215 103.53 51.1054 103.191 51.124C102.852 51.1426 102.536 51.3052 102.318 51.5699C101.765 52.2435 98.9824 55.6948 98.3925 57.2648C96.8131 61.4733 97.7561 65.4123 99.1636 67.6977C101.096 70.8285 107.478 76.8997 109.48 78.7716C108.937 80.3603 107.822 84.0113 108.064 86.6544C108.421 90.5888 111.459 94.8205 111.585 94.997C111.821 95.3268 112.198 95.5033 112.574 95.5033C112.82 95.5033 113.071 95.429 113.289 95.2711C113.837 94.8762 113.958 94.1144 113.563 93.5663C113.536 93.5291 110.79 89.6969 110.493 86.4314C110.237 83.6026 112.021 78.9064 112.04 78.8599C112.221 78.3908 112.096 77.8612 111.729 77.5221C111.645 77.4432 103.316 69.7787 101.24 66.411C100.134 64.618 99.4051 61.5012 100.673 58.1195C100.947 57.3856 102.257 55.5833 103.377 54.148L125.051 74.9116C125.538 75.3761 126.31 75.3621 126.779 74.8744C127.243 74.3867 127.229 73.6156 126.742 73.1464L104.101 51.4584L104.111 51.4584Z" fill="#000000" fill-rule="nonzero" opacity="1" stroke="none" vectornator:layerName="path"/>
<path d="M104.594 100.961C104.561 100.952 101.314 99.8697 99.1171 96.6599C98.7362 96.1025 97.9791 95.9632 97.4217 96.3441C96.8642 96.725 96.7249 97.4868 97.1011 98.0395C99.066 100.91 101.672 102.359 103 102.954L103 115.691C103 116.364 103.549 116.913 104.222 116.913C104.896 116.913 105.444 116.364 105.444 115.691L105.444 101.235L104.594 100.961Z" fill="#000000" fill-rule="nonzero" opacity="1" stroke="none" vectornator:layerName="path"/>
</g>
<path d="M91.9915 60.809L91.9869 60.809L78.4185 60.7487C77.8379 60.7487 77.313 60.4003 77.0807 59.8707C76.4119 58.3378 73.086 50.5108 73.5876 47.0874C73.8292 45.4198 75.8962 42.5538 77.0297 41.0813C76.5605 39.5856 76.0681 37.5138 76.4676 36.334C76.6302 35.8602 77.0436 35.3399 77.7078 34.7872L75.2413 29.5986C75.023 29.1434 75.0555 28.6092 75.3249 28.1865C75.5943 27.7638 76.0588 27.5037 76.5605 27.5037L76.5605 27.5037L93.752 27.5455C94.2305 27.5455 94.681 27.7824 94.9551 28.1772C95.2292 28.572 95.2896 29.0737 95.1223 29.5243L92.4096 36.7706C92.9484 37.486 93.2411 38.1038 93.2875 38.6101C93.3525 39.3533 92.9624 40.431 92.5025 41.4064C93.7799 42.8836 95.9352 45.5917 96.2279 47.329C96.7574 50.4644 93.9332 58.31 93.3618 59.8521C93.1482 60.4281 92.6 60.809 91.9869 60.809L91.9915 60.809ZM79.394 57.8222L90.965 57.8733C92.1495 54.5056 93.6266 49.4843 93.3433 47.8167C93.1993 46.9666 91.3273 44.4443 89.669 42.6188C89.2509 42.159 89.1673 41.4854 89.4599 40.9419C89.8455 40.2173 90.2264 39.344 90.3425 38.926C90.2032 38.6983 89.9152 38.3175 89.655 38.0202C89.2974 37.616 89.1905 37.04 89.381 36.5337L91.6524 30.4719L78.8923 30.4394L80.8758 34.6153C81.187 35.2749 80.9687 36.0599 80.3648 36.4641C79.9328 36.7521 79.4405 37.1469 79.2361 37.3606C79.2129 37.8947 79.5798 39.5112 80.0536 40.8862C80.2208 41.3646 80.1279 41.8895 79.8121 42.2844C78.2978 44.1703 76.6023 46.7158 76.4908 47.5055C76.2214 49.3496 78.0051 54.4685 79.3987 57.8222L79.394 57.8222Z" fill="#000000" fill-rule="nonzero" opacity="1" stroke="none" vectornator:layerName="path"/>
</g>
</g>
</svg>
