<?xml version="1.0" encoding="UTF-8" standalone="no"?>
<!DOCTYPE svg PUBLIC "-//W3C//DTD SVG 1.1//EN" "http://www.w3.org/Graphics/SVG/1.1/DTD/svg11.dtd">
<!-- Created with Vectornator (http://vectornator.io/) -->
<svg height="100%" stroke-miterlimit="10" style="fill-rule:nonzero;clip-rule:evenodd;stroke-linecap:round;stroke-linejoin:round;" version="1.1" viewBox="0 0 168.157 388.814" width="100%" xml:space="preserve" xmlns="http://www.w3.org/2000/svg" xmlns:vectornator="http://vectornator.io" xmlns:xlink="http://www.w3.org/1999/xlink">
<defs/>
<g id="Layer-1" vectornator:layerName="Layer 1">
<g opacity="1" vectornator:layerName="g">
<path d="M8.81625 135.906L14.5918 135.906C15.6437 135.906 16.5076 136.05 17.1916 136.334C17.8715 136.622 18.4115 136.982 18.8034 137.426C19.1994 137.866 19.4714 138.362 19.6274 138.91C19.7793 139.458 19.8593 139.99 19.8593 140.498C19.8593 141.006 19.7793 141.538 19.6274 142.086C19.4714 142.634 19.1994 143.13 18.8034 143.57C18.4075 144.01 17.8715 144.374 17.1916 144.662C16.5116 144.95 15.6437 145.09 14.5918 145.09L11.0401 145.09L11.0401 152.329L8.81225 152.329L8.81225 135.906L8.81625 135.906ZM11.0401 143.146L13.9638 143.146C14.3958 143.146 14.8238 143.11 15.2517 143.042C15.6757 142.974 16.0556 142.846 16.3876 142.658C16.7196 142.474 16.9876 142.206 17.1876 141.858C17.3875 141.51 17.4875 141.058 17.4875 140.502C17.4875 139.946 17.3875 139.494 17.1876 139.146C16.9876 138.798 16.7196 138.53 16.3876 138.346C16.0556 138.162 15.6757 138.034 15.2517 137.962C14.8278 137.894 14.3958 137.858 13.9638 137.858L11.0401 137.858L11.0401 143.146Z" fill="#000000" fill-rule="nonzero" opacity="1" stroke="none" vectornator:layerName="path"/>
<path d="M22.0831 142.682C22.6711 142.142 23.351 141.734 24.123 141.466C24.8949 141.194 25.6708 141.058 26.4428 141.058C27.2147 141.058 27.9387 141.158 28.5186 141.358C29.0986 141.558 29.5745 141.83 29.9465 142.17C30.3185 142.51 30.5904 142.902 30.7704 143.342C30.9464 143.782 31.0384 144.242 31.0384 144.722L31.0384 150.337C31.0384 150.725 31.0464 151.081 31.0624 151.405C31.0784 151.729 31.1024 152.041 31.1304 152.333L29.2745 152.333C29.2266 151.777 29.2066 151.221 29.2066 150.661L29.1586 150.661C28.6946 151.373 28.1466 151.877 27.5107 152.169C26.8747 152.461 26.1428 152.609 25.3069 152.609C24.7949 152.609 24.311 152.541 23.847 152.401C23.383 152.261 22.9751 152.053 22.6311 151.773C22.2831 151.493 22.0072 151.149 21.8072 150.741C21.6072 150.333 21.5072 149.857 21.5072 149.313C21.5072 148.601 21.6672 148.005 21.9832 147.525C22.2991 147.046 22.7351 146.658 23.283 146.354C23.831 146.054 24.4749 145.834 25.2069 145.706C25.9428 145.574 26.7268 145.51 27.5627 145.51L29.0946 145.51L29.0946 145.046C29.0946 144.766 29.0386 144.49 28.9306 144.21C28.8226 143.93 28.6586 143.682 28.4426 143.458C28.2266 143.234 27.9547 143.054 27.6307 142.926C27.3067 142.794 26.9187 142.73 26.4708 142.73C26.0668 142.73 25.7188 142.77 25.4149 142.846C25.1149 142.922 24.8389 143.018 24.5909 143.134C24.343 143.25 24.119 143.386 23.919 143.538C23.719 143.694 23.523 143.838 23.339 143.978L22.0871 142.678L22.0831 142.682ZM27.9747 147.042C27.4787 147.042 26.9747 147.07 26.4548 147.122C25.9348 147.178 25.4629 147.282 25.0389 147.434C24.6149 147.589 24.267 147.805 23.995 148.081C23.723 148.361 23.587 148.717 23.587 149.149C23.587 149.785 23.799 150.241 24.227 150.517C24.6509 150.797 25.2269 150.933 25.9548 150.933C26.5268 150.933 27.0147 150.837 27.4147 150.645C27.8187 150.453 28.1426 150.201 28.3906 149.893C28.6386 149.585 28.8146 149.241 28.9226 148.861C29.0306 148.481 29.0866 148.109 29.0866 147.737L29.0866 147.042L27.9747 147.042Z" fill="#000000" fill-rule="nonzero" opacity="1" stroke="none" vectornator:layerName="path"/>
<path d="M32.7543 141.338L35.1661 141.338L38.4618 149.757L41.6175 141.338L43.8453 141.338L39.5297 152.333L37.2339 152.333L32.7583 141.338L32.7543 141.338Z" fill="#000000" fill-rule="nonzero" opacity="1" stroke="none" vectornator:layerName="path"/>
<path d="M47.2531 147.601C47.2531 148.081 47.357 148.517 47.565 148.913C47.773 149.309 48.049 149.645 48.389 149.921C48.7289 150.201 49.1249 150.417 49.5729 150.569C50.0208 150.725 50.4848 150.801 50.9647 150.801C51.6127 150.801 52.1806 150.649 52.6566 150.349C53.1366 150.049 53.5765 149.649 53.9805 149.153L55.5564 150.361C54.3965 151.861 52.7726 152.613 50.6848 152.613C49.8168 152.613 49.0329 152.465 48.329 152.173C47.625 151.881 47.0291 151.473 46.5411 150.957C46.0532 150.441 45.6772 149.829 45.4172 149.125C45.1532 148.421 45.0212 147.661 45.0212 146.842C45.0212 146.022 45.1652 145.262 45.4492 144.558C45.7332 143.854 46.1291 143.242 46.6331 142.726C47.1371 142.21 47.737 141.802 48.433 141.51C49.1289 141.218 49.8848 141.07 50.7048 141.07C51.6807 141.07 52.5006 141.242 53.1766 141.582C53.8485 141.922 54.4005 142.366 54.8364 142.914C55.2684 143.462 55.5844 144.082 55.7763 144.77C55.9683 145.458 56.0683 146.158 56.0683 146.87L56.0683 147.613L47.2531 147.613L47.2531 147.601ZM53.8405 145.93C53.8245 145.466 53.7525 145.042 53.6205 144.654C53.4885 144.266 53.2925 143.93 53.0286 143.646C52.7646 143.362 52.4366 143.134 52.0447 142.974C51.6487 142.81 51.1887 142.73 50.6648 142.73C50.1408 142.73 49.6848 142.826 49.2609 143.018C48.8369 143.21 48.4769 143.462 48.181 143.77C47.889 144.078 47.661 144.422 47.497 144.802C47.333 145.182 47.2531 145.558 47.2531 145.926L53.8405 145.926L53.8405 145.93ZM53.9565 138.414L47.277 138.414L47.277 136.882L53.9565 136.882L53.9565 138.414Z" fill="#000000" fill-rule="nonzero" opacity="1" stroke="none" vectornator:layerName="path"/>
<path d="M58.5761 141.338L60.6639 141.338L60.6639 143.03L60.7119 143.03C60.8519 142.738 61.0359 142.47 61.2679 142.23C61.4999 141.99 61.7598 141.786 62.0438 141.614C62.3278 141.446 62.6438 141.31 62.9837 141.21C63.3237 141.11 63.6637 141.058 64.0037 141.058C64.3436 141.058 64.6516 141.106 64.9316 141.198L64.8396 143.45C64.6676 143.402 64.4996 143.366 64.3276 143.334C64.1556 143.302 63.9877 143.286 63.8157 143.286C62.7958 143.286 62.0158 143.574 61.4719 144.146C60.9319 144.718 60.6599 145.606 60.6599 146.814L60.6599 152.333L58.5721 152.333L58.5721 141.338L58.5761 141.338Z" fill="#000000" fill-rule="nonzero" opacity="1" stroke="none" vectornator:layerName="path"/>
<path d="M73.0029 144.098C72.7549 143.79 72.451 143.53 72.087 143.322C71.723 143.114 71.279 143.01 70.7551 143.01C70.2591 143.01 69.8312 143.114 69.4672 143.322C69.1032 143.53 68.9232 143.838 68.9232 144.238C68.9232 144.562 69.0272 144.826 69.2352 145.026C69.4432 145.226 69.6912 145.39 69.9792 145.514C70.2631 145.638 70.5711 145.73 70.8951 145.794C71.2191 145.858 71.499 145.91 71.731 145.958C72.179 146.066 72.6029 146.198 72.9949 146.354C73.3909 146.51 73.7308 146.71 74.0148 146.958C74.2988 147.206 74.5268 147.505 74.6868 147.861C74.8508 148.217 74.9307 148.649 74.9307 149.161C74.9307 149.781 74.7988 150.309 74.5348 150.749C74.2708 151.189 73.9308 151.549 73.5149 151.829C73.0989 152.109 72.6229 152.309 72.087 152.433C71.555 152.557 71.0151 152.617 70.4751 152.617C69.5632 152.617 68.7633 152.477 68.0753 152.201C67.3874 151.921 66.7714 151.413 66.2315 150.669L67.8073 149.369C68.1473 149.709 68.5273 150.009 68.9432 150.273C69.3592 150.537 69.8712 150.669 70.4751 150.669C70.7391 150.669 71.0031 150.641 71.2751 150.589C71.547 150.537 71.787 150.449 71.995 150.333C72.203 150.217 72.375 150.069 72.5069 149.893C72.6389 149.717 72.7029 149.509 72.7029 149.277C72.7029 148.969 72.6069 148.713 72.411 148.513C72.219 148.313 71.987 148.153 71.715 148.037C71.443 147.921 71.1591 147.829 70.8551 147.757C70.5551 147.689 70.2871 147.629 70.0552 147.585C69.6072 147.477 69.1792 147.354 68.7793 147.214C68.3753 147.074 68.0193 146.89 67.7113 146.658C67.4034 146.426 67.1554 146.134 66.9674 145.778C66.7834 145.422 66.6874 144.982 66.6874 144.454C66.6874 143.882 66.8074 143.382 67.0474 142.958C67.2874 142.534 67.6034 142.182 67.9993 141.902C68.3953 141.622 68.8433 141.414 69.3432 141.274C69.8472 141.134 70.3511 141.066 70.8631 141.066C71.607 141.066 72.315 141.206 72.9989 141.482C73.6788 141.762 74.2188 142.226 74.6228 142.874L72.9989 144.102L73.0029 144.098Z" fill="#000000" fill-rule="nonzero" opacity="1" stroke="none" vectornator:layerName="path"/>
<path d="M83.906 134.795L85.9938 134.795L85.9938 146.114L90.7254 141.358L93.6252 141.358L88.4976 146.346L94.0652 152.329L91.0974 152.329L85.9938 146.622L85.9938 152.329L83.906 152.329L83.906 134.791L83.906 134.795Z" fill="#000000" fill-rule="nonzero" opacity="1" stroke="none" vectornator:layerName="path"/>
<path d="M95.993 142.682C96.5809 142.142 97.2609 141.734 98.0328 141.466C98.8048 141.194 99.5807 141.058 100.353 141.058C101.125 141.058 101.849 141.158 102.428 141.358C103.008 141.558 103.484 141.83 103.856 142.17C104.228 142.51 104.5 142.902 104.68 143.342C104.856 143.782 104.948 144.242 104.948 144.722L104.948 150.337C104.948 150.725 104.956 151.081 104.972 151.405C104.988 151.729 105.012 152.041 105.04 152.333L103.184 152.333C103.136 151.777 103.116 151.221 103.116 150.661L103.068 150.661C102.604 151.373 102.056 151.877 101.421 152.169C100.785 152.461 100.053 152.609 99.2167 152.609C98.7048 152.609 98.2208 152.541 97.7568 152.401C97.2929 152.261 96.8889 152.053 96.5409 151.773C96.193 151.493 95.917 151.149 95.717 150.741C95.517 150.333 95.417 149.857 95.417 149.313C95.417 148.601 95.577 148.005 95.893 147.525C96.209 147.046 96.6449 146.658 97.1929 146.354C97.7408 146.054 98.3848 145.834 99.1167 145.706C99.8527 145.574 100.637 145.51 101.473 145.51L103.004 145.51L103.004 145.046C103.004 144.766 102.948 144.49 102.84 144.21C102.732 143.93 102.568 143.682 102.352 143.458C102.136 143.234 101.865 143.054 101.541 142.926C101.217 142.798 100.829 142.73 100.381 142.73C99.9767 142.73 99.6287 142.77 99.3247 142.846C99.0207 142.922 98.7488 143.018 98.5008 143.134C98.2528 143.25 98.0288 143.386 97.8288 143.538C97.6289 143.694 97.4329 143.838 97.2489 143.978L95.997 142.678L95.993 142.682ZM101.885 147.042C101.389 147.042 100.885 147.07 100.365 147.122C99.8447 147.178 99.3727 147.282 98.9487 147.434C98.5248 147.589 98.1768 147.805 97.9048 148.081C97.6329 148.361 97.4969 148.717 97.4969 149.149C97.4969 149.785 97.7088 150.241 98.1328 150.517C98.5568 150.797 99.1327 150.933 99.8607 150.933C100.433 150.933 100.921 150.837 101.321 150.645C101.721 150.453 102.048 150.201 102.296 149.893C102.544 149.585 102.72 149.241 102.828 148.861C102.936 148.481 102.992 148.109 102.992 147.737L102.992 147.042L101.881 147.042L101.885 147.042Z" fill="#000000" fill-rule="nonzero" opacity="1" stroke="none" vectornator:layerName="path"/>
<path d="M107.984 141.338L109.932 141.338L109.932 143.054L109.98 143.054C110.028 142.898 110.148 142.706 110.34 142.474C110.532 142.242 110.78 142.022 111.084 141.814C111.384 141.606 111.74 141.426 112.152 141.282C112.56 141.134 113.016 141.062 113.508 141.062C114.327 141.062 115.015 141.234 115.571 141.574C116.127 141.914 116.583 142.426 116.939 143.106C117.295 142.426 117.799 141.914 118.447 141.574C119.095 141.234 119.755 141.062 120.419 141.062C121.267 141.062 121.967 141.202 122.507 141.478C123.047 141.758 123.475 142.122 123.783 142.578C124.091 143.034 124.307 143.554 124.419 144.134C124.535 144.714 124.595 145.314 124.595 145.934L124.595 152.337L122.507 152.337L122.507 146.214C122.507 145.798 122.479 145.394 122.427 145.006C122.375 144.618 122.259 144.278 122.091 143.986C121.919 143.694 121.679 143.458 121.371 143.278C121.063 143.102 120.651 143.01 120.143 143.01C119.139 143.01 118.419 143.318 117.987 143.938C117.555 144.558 117.339 145.354 117.339 146.326L117.339 152.333L115.251 152.333L115.251 146.582C115.251 146.058 115.223 145.578 115.171 145.142C115.115 144.71 115.007 144.334 114.847 144.018C114.683 143.702 114.451 143.454 114.151 143.274C113.852 143.098 113.444 143.006 112.936 143.006C112.564 143.006 112.204 143.078 111.856 143.226C111.508 143.374 111.204 143.594 110.94 143.886C110.676 144.182 110.468 144.554 110.312 145.01C110.156 145.466 110.08 146.002 110.08 146.622L110.08 152.329L107.992 152.329L107.992 141.334L107.984 141.338Z" fill="#000000" fill-rule="nonzero" opacity="1" stroke="none" vectornator:layerName="path"/>
<path d="M129.326 147.601C129.326 148.081 129.43 148.517 129.638 148.913C129.846 149.309 130.122 149.645 130.462 149.921C130.802 150.201 131.198 150.417 131.646 150.569C132.094 150.725 132.558 150.801 133.038 150.801C133.686 150.801 134.254 150.649 134.73 150.349C135.206 150.049 135.65 149.649 136.054 149.153L137.63 150.361C136.47 151.861 134.846 152.613 132.758 152.613C131.89 152.613 131.106 152.465 130.402 152.173C129.698 151.881 129.102 151.473 128.618 150.957C128.13 150.441 127.754 149.829 127.494 149.125C127.23 148.421 127.098 147.661 127.098 146.842C127.098 146.022 127.242 145.262 127.526 144.558C127.81 143.854 128.206 143.242 128.71 142.726C129.214 142.21 129.81 141.802 130.51 141.51C131.206 141.218 131.962 141.07 132.782 141.07C133.758 141.07 134.582 141.242 135.254 141.582C135.926 141.922 136.478 142.366 136.914 142.914C137.346 143.462 137.662 144.082 137.854 144.77C138.045 145.458 138.141 146.158 138.141 146.87L138.141 147.613L129.326 147.613L129.326 147.601ZM135.918 145.93C135.902 145.466 135.83 145.042 135.698 144.654C135.566 144.266 135.37 143.93 135.106 143.646C134.842 143.362 134.514 143.134 134.122 142.974C133.726 142.81 133.266 142.73 132.742 142.73C132.218 142.73 131.762 142.826 131.338 143.018C130.914 143.21 130.554 143.462 130.258 143.77C129.966 144.078 129.738 144.422 129.574 144.802C129.41 145.182 129.33 145.558 129.33 145.926L135.918 145.926L135.918 145.93Z" fill="#000000" fill-rule="nonzero" opacity="1" stroke="none" vectornator:layerName="path"/>
<path d="M140.649 141.338L142.737 141.338L142.737 143.03L142.785 143.03C142.925 142.738 143.109 142.47 143.341 142.23C143.573 141.99 143.833 141.786 144.117 141.614C144.401 141.446 144.717 141.31 145.057 141.21C145.397 141.11 145.737 141.058 146.077 141.058C146.417 141.058 146.725 141.106 147.005 141.198L146.913 143.45C146.741 143.402 146.573 143.366 146.401 143.334C146.229 143.302 146.061 143.286 145.889 143.286C144.869 143.286 144.089 143.574 143.545 144.146C143.001 144.718 142.733 145.606 142.733 146.814L142.733 152.333L140.645 152.333L140.645 141.338L140.649 141.338Z" fill="#000000" fill-rule="nonzero" opacity="1" stroke="none" vectornator:layerName="path"/>
<path d="M158.976 152.333L156.888 152.333L156.888 150.641L156.84 150.641C156.576 151.229 156.12 151.705 155.472 152.069C154.824 152.433 154.072 152.613 153.22 152.613C152.68 152.613 152.168 152.533 151.688 152.369C151.208 152.205 150.788 151.957 150.424 151.617C150.06 151.277 149.773 150.841 149.553 150.305C149.333 149.769 149.229 149.141 149.229 148.413L149.229 141.338L151.316 141.338L151.316 147.833C151.316 148.345 151.384 148.781 151.524 149.145C151.664 149.509 151.848 149.801 152.08 150.025C152.312 150.249 152.58 150.413 152.88 150.513C153.18 150.613 153.496 150.665 153.82 150.665C154.252 150.665 154.656 150.597 155.028 150.457C155.4 150.317 155.724 150.097 156.004 149.797C156.284 149.497 156.5 149.113 156.652 148.649C156.804 148.185 156.884 147.637 156.884 147.002L156.884 141.342L158.972 141.342L158.972 152.337L158.976 152.333Z" fill="#000000" fill-rule="nonzero" opacity="1" stroke="none" vectornator:layerName="path"/>
<path d="M8.2803 168.664L10.3681 168.664L10.3681 170.24L10.4161 170.24C10.8201 169.652 11.372 169.196 12.076 168.872C12.7799 168.548 13.5039 168.384 14.2438 168.384C15.0957 168.384 15.8637 168.532 16.5516 168.824C17.2395 169.12 17.8275 169.528 18.3155 170.052C18.8034 170.576 19.1754 171.192 19.4394 171.895C19.7033 172.599 19.8353 173.355 19.8353 174.159C19.8353 174.963 19.7033 175.739 19.4394 176.443C19.1754 177.147 18.8034 177.759 18.3155 178.275C17.8275 178.795 17.2395 179.199 16.5516 179.491C15.8637 179.783 15.0957 179.931 14.2438 179.931C13.4559 179.931 12.7119 179.763 12.016 179.431C11.32 179.099 10.7881 178.647 10.4161 178.075L10.3681 178.075L10.3681 186.194L8.2803 186.194L8.2803 168.656L8.2803 168.664ZM13.9878 170.336C13.4319 170.336 12.9279 170.432 12.4799 170.628C12.032 170.824 11.652 171.084 11.344 171.416C11.0361 171.747 10.7961 172.151 10.6241 172.623C10.4521 173.095 10.3681 173.607 10.3681 174.167C10.3681 174.727 10.4521 175.239 10.6241 175.711C10.7921 176.183 11.0321 176.583 11.344 176.919C11.652 177.251 12.032 177.515 12.4799 177.707C12.9279 177.899 13.4319 177.999 13.9878 177.999C14.5438 177.999 15.0477 177.903 15.4957 177.707C15.9437 177.515 16.3236 177.251 16.6316 176.919C16.9396 176.587 17.1796 176.183 17.3515 175.711C17.5195 175.239 17.6075 174.727 17.6075 174.167C17.6075 173.607 17.5235 173.095 17.3515 172.623C17.1796 172.151 16.9436 171.751 16.6316 171.416C16.3236 171.084 15.9437 170.82 15.4957 170.628C15.0477 170.436 14.5438 170.336 13.9878 170.336Z" fill="#000000" fill-rule="nonzero" opacity="1" stroke="none" vectornator:layerName="path"/>
<path d="M22.4551 168.664L24.5429 168.664L24.5429 170.356L24.5909 170.356C24.7309 170.064 24.9149 169.796 25.1469 169.556C25.3789 169.316 25.6389 169.112 25.9228 168.94C26.2068 168.772 26.5228 168.636 26.8627 168.536C27.2027 168.436 27.5427 168.384 27.8827 168.384C28.2226 168.384 28.5306 168.432 28.8106 168.524L28.7186 170.776C28.5466 170.728 28.3786 170.692 28.2066 170.66C28.0347 170.628 27.8667 170.612 27.6947 170.612C26.6748 170.612 25.8948 170.9 25.3509 171.471C24.8069 172.043 24.5389 172.931 24.5389 174.139L24.5389 179.659L22.4511 179.659L22.4511 168.664L22.4551 168.664Z" fill="#000000" fill-rule="nonzero" opacity="1" stroke="none" vectornator:layerName="path"/>
<path d="M32.1983 174.927C32.1983 175.407 32.3023 175.843 32.5103 176.239C32.7183 176.635 32.9942 176.971 33.3342 177.247C33.6742 177.527 34.0701 177.743 34.5181 177.895C34.9661 178.051 35.43 178.127 35.91 178.127C36.5579 178.127 37.1259 177.975 37.6019 177.675C38.0818 177.375 38.5218 176.975 38.9257 176.479L40.5016 177.687C39.3417 179.187 37.7178 179.939 35.63 179.939C34.7621 179.939 33.9782 179.791 33.2742 179.499C32.5703 179.207 31.9743 178.799 31.4864 178.283C30.9984 177.767 30.6224 177.155 30.3625 176.451C30.0985 175.747 29.9665 174.987 29.9665 174.167C29.9665 173.347 30.1105 172.587 30.3945 171.883C30.6784 171.18 31.0744 170.568 31.5784 170.052C32.0823 169.536 32.6783 169.128 33.3782 168.836C34.0741 168.544 34.8301 168.396 35.65 168.396C36.6259 168.396 37.4499 168.568 38.1218 168.908C38.7938 169.248 39.3457 169.692 39.7817 170.24C40.2136 170.788 40.5296 171.408 40.7216 172.095C40.9136 172.783 41.0136 173.483 41.0136 174.195L41.0136 174.939L32.1983 174.939L32.1983 174.927ZM38.7858 173.259C38.7698 172.795 38.6978 172.371 38.5658 171.983C38.4338 171.595 38.2378 171.26 37.9738 170.976C37.7098 170.692 37.3819 170.464 36.9899 170.304C36.5939 170.14 36.134 170.06 35.61 170.06C35.0861 170.06 34.6301 170.156 34.2061 170.348C33.7822 170.54 33.4222 170.792 33.1262 171.1C32.8303 171.408 32.6023 171.751 32.4423 172.131C32.2783 172.511 32.1983 172.887 32.1983 173.255L38.7858 173.255L38.7858 173.259Z" fill="#000000" fill-rule="nonzero" opacity="1" stroke="none" vectornator:layerName="path"/>
<path d="M49.4129 170.476L46.4211 170.476L46.4211 175.463C46.4211 175.771 46.4291 176.079 46.4451 176.379C46.4611 176.679 46.5171 176.951 46.6211 177.191C46.7211 177.431 46.8771 177.623 47.0851 177.771C47.293 177.919 47.601 177.991 48.001 177.991C48.249 177.991 48.5049 177.967 48.7649 177.923C49.0289 177.875 49.2689 177.791 49.4849 177.667L49.4849 179.571C49.2369 179.711 48.9169 179.807 48.5209 179.863C48.125 179.915 47.821 179.943 47.605 179.943C46.8011 179.943 46.1771 179.831 45.7372 179.607C45.2972 179.383 44.9732 179.091 44.7613 178.735C44.5533 178.379 44.4293 177.983 44.3893 177.539C44.3493 177.099 44.3333 176.655 44.3333 176.207L44.3333 170.476L41.9215 170.476L41.9215 168.668L44.3333 168.668L44.3333 165.584L46.4211 165.584L46.4211 168.668L49.4129 168.668L49.4129 170.476Z" fill="#000000" fill-rule="nonzero" opacity="1" stroke="none" vectornator:layerName="path"/>
<path d="M58.5521 168.664L60.4999 168.664L60.4999 170.38L60.5479 170.38C60.5959 170.224 60.7159 170.032 60.9079 169.8C61.0999 169.568 61.3479 169.348 61.6519 169.14C61.9518 168.932 62.3078 168.752 62.7198 168.608C63.1277 168.46 63.5797 168.388 64.0756 168.388C64.8956 168.388 65.5835 168.56 66.1395 168.9C66.6954 169.24 67.1514 169.752 67.5074 170.432C67.8633 169.752 68.3673 169.24 69.0152 168.9C69.6632 168.56 70.3231 168.388 70.9871 168.388C71.839 168.388 72.5349 168.528 73.0749 168.804C73.6149 169.084 74.0428 169.448 74.3508 169.904C74.6588 170.36 74.8748 170.88 74.9907 171.46C75.1067 172.039 75.1667 172.639 75.1667 173.259L75.1667 179.663L73.0789 179.663L73.0789 173.539C73.0789 173.123 73.0509 172.719 72.9989 172.331C72.9429 171.943 72.8309 171.603 72.6629 171.312C72.4909 171.02 72.255 170.784 71.943 170.604C71.635 170.428 71.2231 170.336 70.7151 170.336C69.7112 170.336 68.9912 170.644 68.5593 171.264C68.1273 171.883 67.9113 172.679 67.9113 173.651L67.9113 179.659L65.8235 179.659L65.8235 173.907C65.8235 173.383 65.7955 172.903 65.7435 172.467C65.6915 172.035 65.5795 171.659 65.4195 171.344C65.2556 171.028 65.0236 170.78 64.7236 170.6C64.4236 170.424 64.0157 170.332 63.5077 170.332C63.1357 170.332 62.7758 170.404 62.4278 170.552C62.0798 170.7 61.7758 170.92 61.5119 171.212C61.2479 171.507 61.0399 171.879 60.8839 172.335C60.7279 172.791 60.6519 173.327 60.6519 173.947L60.6519 179.655L58.5641 179.655L58.5641 168.66L58.5521 168.664Z" fill="#000000" fill-rule="nonzero" opacity="1" stroke="none" vectornator:layerName="path"/>
<path d="M78.3625 170.012C78.9504 169.472 79.6304 169.064 80.4023 168.796C81.1742 168.524 81.9502 168.388 82.7221 168.388C83.494 168.388 84.218 168.488 84.7979 168.688C85.3779 168.888 85.8538 169.16 86.2258 169.5C86.5978 169.84 86.8698 170.232 87.0497 170.672C87.2257 171.112 87.3177 171.571 87.3177 172.051L87.3177 177.667C87.3177 178.055 87.3257 178.411 87.3417 178.735C87.3577 179.059 87.3817 179.371 87.4097 179.663L85.5539 179.663C85.5059 179.107 85.4859 178.551 85.4859 177.991L85.4379 177.991C84.9739 178.703 84.426 179.207 83.79 179.499C83.1541 179.791 82.4221 179.939 81.5862 179.939C81.0742 179.939 80.5903 179.871 80.1263 179.731C79.6624 179.591 79.2584 179.383 78.9104 179.103C78.5624 178.823 78.2865 178.479 78.0865 178.071C77.8865 177.663 77.7865 177.187 77.7865 176.643C77.7865 175.931 77.9465 175.335 78.2625 174.855C78.5784 174.375 79.0144 173.987 79.5624 173.683C80.1103 173.383 80.7543 173.163 81.4862 173.035C82.2181 172.907 83.0061 172.839 83.842 172.839L85.3739 172.839L85.3739 172.375C85.3739 172.095 85.3179 171.819 85.2099 171.539C85.1019 171.26 84.9379 171.012 84.7219 170.788C84.5059 170.564 84.234 170.384 83.91 170.256C83.586 170.124 83.1981 170.06 82.7501 170.06C82.3461 170.06 81.9982 170.1 81.6942 170.176C81.3902 170.252 81.1182 170.348 80.8703 170.464C80.6223 170.58 80.3983 170.716 80.1983 170.868C79.9983 171.024 79.8023 171.168 79.6184 171.308L78.3665 170.008L78.3625 170.012ZM84.254 174.371C83.758 174.371 83.2541 174.399 82.7341 174.451C82.2181 174.507 81.7462 174.611 81.3182 174.763C80.8942 174.919 80.5463 175.135 80.2743 175.411C80.0023 175.691 79.8703 176.047 79.8703 176.479C79.8703 177.115 80.0823 177.571 80.5063 177.847C80.9302 178.127 81.5062 178.263 82.2341 178.263C82.8061 178.263 83.294 178.167 83.694 177.975C84.094 177.783 84.422 177.531 84.6699 177.223C84.9179 176.915 85.0939 176.571 85.2019 176.191C85.3099 175.811 85.3659 175.439 85.3659 175.067L85.3659 174.371L84.25 174.371L84.254 174.371Z" fill="#000000" fill-rule="nonzero" opacity="1" stroke="none" vectornator:layerName="path"/>
<path d="M90.3575 168.664L92.4453 168.664L92.4453 170.356L92.4933 170.356C92.6333 170.064 92.8173 169.796 93.0492 169.556C93.2812 169.316 93.5412 169.112 93.8252 168.94C94.1091 168.772 94.4251 168.636 94.7651 168.536C95.1051 168.436 95.445 168.384 95.785 168.384C96.125 168.384 96.433 168.432 96.7129 168.524L96.6209 170.776C96.449 170.728 96.281 170.692 96.109 170.66C95.937 170.628 95.769 170.612 95.597 170.612C94.5771 170.612 93.7972 170.9 93.2532 171.471C92.7093 172.043 92.4413 172.931 92.4413 174.139L92.4413 179.659L90.3535 179.659L90.3535 168.664L90.3575 168.664Z" fill="#000000" fill-rule="nonzero" opacity="1" stroke="none" vectornator:layerName="path"/>
<path d="M98.9407 162.124L101.029 162.124L101.029 173.443L105.76 168.688L108.66 168.688L103.532 173.675L109.1 179.659L106.132 179.659L101.029 173.951L101.029 179.659L98.9407 179.659L98.9407 162.12L98.9407 162.124ZM102.952 185.114L101.121 185.114L102.604 180.707L104.76 180.707C104.76 180.707 102.952 185.114 102.952 185.114Z" fill="#000000" fill-rule="nonzero" opacity="1" stroke="none" vectornator:layerName="path"/>
<path d="M110.656 164.72C110.656 164.304 110.808 163.944 111.108 163.64C111.408 163.336 111.768 163.188 112.188 163.188C112.608 163.188 112.964 163.34 113.268 163.64C113.568 163.94 113.72 164.3 113.72 164.72C113.72 165.14 113.568 165.496 113.268 165.8C112.968 166.1 112.608 166.252 112.188 166.252C111.768 166.252 111.412 166.1 111.108 165.8C110.804 165.5 110.656 165.14 110.656 164.72ZM111.14 168.664L113.228 168.664L113.228 179.659L111.14 179.659L111.14 168.664Z" fill="#000000" fill-rule="nonzero" opacity="1" stroke="none" vectornator:layerName="path"/>
<path d="M118.123 174.927C118.123 175.407 118.227 175.843 118.435 176.239C118.643 176.635 118.919 176.971 119.259 177.247C119.599 177.527 119.995 177.743 120.443 177.895C120.891 178.051 121.355 178.127 121.835 178.127C122.483 178.127 123.051 177.975 123.527 177.675C124.007 177.375 124.447 176.975 124.851 176.479L126.426 177.687C125.267 179.187 123.643 179.939 121.555 179.939C120.687 179.939 119.903 179.791 119.199 179.499C118.495 179.207 117.899 178.799 117.411 178.283C116.923 177.767 116.547 177.155 116.287 176.451C116.023 175.747 115.891 174.987 115.891 174.167C115.891 173.347 116.035 172.587 116.319 171.883C116.603 171.18 116.999 170.568 117.503 170.052C118.007 169.536 118.603 169.128 119.299 168.836C119.995 168.544 120.751 168.396 121.571 168.396C122.547 168.396 123.371 168.568 124.043 168.908C124.715 169.248 125.267 169.692 125.703 170.24C126.134 170.788 126.45 171.408 126.642 172.095C126.834 172.783 126.93 173.483 126.93 174.195L126.93 174.939L118.115 174.939L118.123 174.927ZM124.711 173.259C124.695 172.795 124.623 172.371 124.491 171.983C124.359 171.595 124.163 171.26 123.899 170.976C123.635 170.692 123.307 170.464 122.915 170.304C122.519 170.14 122.059 170.06 121.535 170.06C121.011 170.06 120.555 170.156 120.131 170.348C119.707 170.54 119.347 170.792 119.051 171.1C118.755 171.408 118.527 171.751 118.367 172.131C118.203 172.511 118.123 172.887 118.123 173.255L124.711 173.255L124.711 173.259Z" fill="#000000" fill-rule="nonzero" opacity="1" stroke="none" vectornator:layerName="path"/>
<path d="M129.442 168.664L131.53 168.664L131.53 170.356L131.578 170.356C131.718 170.064 131.902 169.796 132.134 169.556C132.366 169.316 132.626 169.112 132.91 168.94C133.194 168.772 133.51 168.636 133.85 168.536C134.19 168.436 134.53 168.384 134.87 168.384C135.21 168.384 135.518 168.432 135.798 168.524L135.706 170.776C135.534 170.728 135.366 170.692 135.194 170.66C135.022 170.628 134.854 170.612 134.682 170.612C133.662 170.612 132.882 170.9 132.338 171.471C131.794 172.043 131.526 172.931 131.526 174.139L131.526 179.659L129.438 179.659L129.438 168.664L129.442 168.664Z" fill="#000000" fill-rule="nonzero" opacity="1" stroke="none" vectornator:layerName="path"/>
<path d="M137.702 164.72C137.702 164.304 137.854 163.944 138.153 163.64C138.453 163.336 138.813 163.188 139.233 163.188C139.653 163.188 140.009 163.34 140.313 163.64C140.617 163.94 140.765 164.3 140.765 164.72C140.765 165.14 140.613 165.496 140.313 165.8C140.013 166.104 139.653 166.252 139.233 166.252C138.813 166.252 138.457 166.1 138.153 165.8C137.85 165.5 137.702 165.14 137.702 164.72ZM138.189 168.664L140.277 168.664L140.277 179.659L138.189 179.659L138.189 168.664Z" fill="#000000" fill-rule="nonzero" opacity="1" stroke="none" vectornator:layerName="path"/>
</g>
<g opacity="1" vectornator:layerName="g">
<path d="M7.24227 337.039L9.26179 337.039L16.2881 353.459L13.6887 353.459L12.0411 349.4L4.22299 349.4L2.59938 353.459L0 353.459L7.23827 337.039L7.24227 337.039ZM11.2333 347.452L8.17005 339.914L8.12206 339.914L5.0148 347.452L11.2293 347.452L11.2333 347.452Z" fill="#000000" fill-rule="nonzero" opacity="1" stroke="none" vectornator:layerName="path"/>
<path d="M17.8877 342.465L19.9752 342.465L19.9752 344.041L20.0232 344.041C20.4231 343.453 20.979 342.997 21.6828 342.673C22.3867 342.349 23.1105 342.185 23.8503 342.185C24.7021 342.185 25.4699 342.333 26.1578 342.625C26.8456 342.921 27.4334 343.329 27.9213 343.853C28.4092 344.377 28.7851 344.993 29.0451 345.697C29.309 346.4 29.441 347.156 29.441 347.96C29.441 348.764 29.309 349.54 29.0451 350.243C28.7811 350.947 28.4092 351.559 27.9213 352.075C27.4334 352.595 26.8456 352.999 26.1578 353.291C25.4699 353.583 24.7021 353.731 23.8503 353.731C23.0625 353.731 22.3187 353.563 21.6228 353.231C20.927 352.899 20.3951 352.447 20.0232 351.875L19.9752 351.875L19.9752 359.993L17.8877 359.993L17.8877 342.457L17.8877 342.465ZM23.5944 344.137C23.0385 344.137 22.5346 344.233 22.0867 344.429C21.6388 344.621 21.2589 344.885 20.951 345.217C20.6431 345.549 20.4031 345.952 20.2312 346.424C20.0592 346.896 19.9752 347.408 19.9752 347.968C19.9752 348.528 20.0592 349.04 20.2312 349.512C20.3991 349.984 20.6391 350.383 20.951 350.719C21.2589 351.051 21.6388 351.315 22.0867 351.507C22.5346 351.699 23.0385 351.799 23.5944 351.799C24.1502 351.799 24.6541 351.703 25.102 351.507C25.5499 351.315 25.9298 351.051 26.2377 350.719C26.5457 350.387 26.7856 349.984 26.9576 349.512C27.1255 349.04 27.2135 348.528 27.2135 347.968C27.2135 347.408 27.1295 346.896 26.9576 346.424C26.7856 345.952 26.5457 345.553 26.2377 345.217C25.9298 344.885 25.5499 344.621 25.102 344.429C24.6541 344.237 24.1502 344.137 23.5944 344.137Z" fill="#000000" fill-rule="nonzero" opacity="1" stroke="none" vectornator:layerName="path"/>
<path d="M37.9069 345.225C37.659 344.917 37.3551 344.657 36.9912 344.449C36.6272 344.241 36.1834 344.137 35.6595 344.137C35.1636 344.137 34.7357 344.241 34.3718 344.449C34.0079 344.657 33.8279 344.965 33.8279 345.365C33.8279 345.689 33.9319 345.952 34.1398 346.152C34.3478 346.352 34.5957 346.516 34.8837 346.64C35.1676 346.764 35.4755 346.856 35.7994 346.92C36.1234 346.984 36.4033 347.036 36.6352 347.084C37.0831 347.192 37.503 347.324 37.8989 347.48C38.2949 347.636 38.6348 347.836 38.9187 348.084C39.2026 348.332 39.4306 348.632 39.5905 348.988C39.7545 349.344 39.8345 349.776 39.8345 350.287C39.8345 350.907 39.7025 351.435 39.4386 351.875C39.1746 352.315 38.8347 352.675 38.4188 352.955C38.0029 353.235 37.527 353.435 36.9912 353.559C36.4593 353.683 35.9194 353.743 35.3795 353.743C34.4678 353.743 33.668 353.603 32.9801 353.327C32.2923 353.047 31.6764 352.539 31.1366 351.795L32.7122 350.495C33.0521 350.835 33.432 351.135 33.8479 351.399C34.2638 351.663 34.7757 351.795 35.3795 351.795C35.6435 351.795 35.9074 351.767 36.1794 351.715C36.4513 351.663 36.6912 351.575 36.8992 351.459C37.1071 351.343 37.2791 351.195 37.4111 351.019C37.543 350.843 37.607 350.635 37.607 350.403C37.607 350.095 37.511 349.84 37.3191 349.64C37.1271 349.44 36.8952 349.28 36.6233 349.164C36.3513 349.048 36.0674 348.956 35.7635 348.884C35.4595 348.812 35.1956 348.756 34.9636 348.712C34.5158 348.604 34.0919 348.48 33.688 348.34C33.284 348.2 32.9321 348.016 32.6202 347.784C32.3083 347.552 32.0643 347.26 31.8764 346.904C31.6924 346.548 31.5965 346.108 31.5965 345.581C31.5965 345.009 31.7164 344.509 31.9564 344.085C32.1963 343.661 32.5122 343.309 32.9081 343.029C33.304 342.749 33.7519 342.541 34.2518 342.401C34.7557 342.261 35.2596 342.193 35.7715 342.193C36.5153 342.193 37.2231 342.333 37.9069 342.609C38.5868 342.889 39.1267 343.353 39.5306 344.001L37.9069 345.229L37.9069 345.225Z" fill="#000000" fill-rule="nonzero" opacity="1" stroke="none" vectornator:layerName="path"/>
<path d="M42.3579 335.927L44.4454 335.927L44.4454 347.244L49.1763 342.489L52.0756 342.489L46.9488 347.476L52.5155 353.459L49.5482 353.459L44.4454 347.752L44.4454 353.459L42.3579 353.459L42.3579 335.923L42.3579 335.927Z" fill="#000000" fill-rule="nonzero" opacity="1" stroke="none" vectornator:layerName="path"/>
<path d="M54.443 343.813C55.0309 343.273 55.7107 342.865 56.4825 342.597C57.2543 342.325 58.0301 342.189 58.802 342.189C59.5738 342.189 60.2976 342.289 60.8775 342.489C61.4573 342.689 61.9332 342.961 62.3051 343.301C62.677 343.641 62.949 344.033 63.1289 344.473C63.3049 344.913 63.3969 345.373 63.3969 345.853L63.3969 351.467C63.3969 351.855 63.4049 352.211 63.4208 352.535C63.4368 352.859 63.4608 353.171 63.4888 353.463L61.6333 353.463C61.5853 352.907 61.5653 352.351 61.5653 351.791L61.5173 351.791C61.0534 352.503 60.5055 353.007 59.8697 353.299C59.2338 353.591 58.502 353.739 57.6662 353.739C57.1543 353.739 56.6705 353.671 56.2066 353.531C55.7427 353.391 55.3388 353.183 54.9909 352.903C54.6429 352.623 54.367 352.279 54.1671 351.871C53.9671 351.463 53.8671 350.987 53.8671 350.443C53.8671 349.732 54.0271 349.136 54.343 348.656C54.6589 348.176 55.0948 347.788 55.6427 347.484C56.1906 347.184 56.8344 346.964 57.5662 346.836C58.3021 346.704 59.0859 346.64 59.9217 346.64L61.4533 346.64L61.4533 346.176C61.4533 345.896 61.3973 345.621 61.2894 345.341C61.1814 345.061 61.0174 344.813 60.8015 344.589C60.5855 344.365 60.3136 344.185 59.9897 344.057C59.6657 343.929 59.2778 343.861 58.8299 343.861C58.426 343.861 58.0781 343.901 57.7742 343.977C57.4703 344.053 57.1983 344.149 56.9504 344.265C56.7025 344.381 56.4785 344.517 56.2786 344.669C56.0786 344.825 55.8826 344.969 55.6987 345.109L54.447 343.809L54.443 343.813ZM60.3336 348.172C59.8377 348.172 59.3338 348.2 58.8139 348.252C58.2941 348.308 57.8222 348.412 57.3983 348.564C56.9744 348.72 56.6265 348.936 56.3545 349.212C56.0826 349.492 55.9466 349.848 55.9466 350.279C55.9466 350.915 56.1586 351.371 56.5825 351.647C57.0064 351.927 57.5822 352.063 58.3101 352.063C58.8819 352.063 59.3698 351.967 59.7697 351.775C60.1696 351.583 60.4975 351.331 60.7455 351.023C60.9934 350.715 61.1694 350.371 61.2774 349.992C61.3853 349.612 61.4413 349.24 61.4413 348.868L61.4413 348.172L60.3296 348.172L60.3336 348.172Z" fill="#000000" fill-rule="nonzero" opacity="1" stroke="none" vectornator:layerName="path"/>
<path d="M72.3267 344.277L69.3354 344.277L69.3354 349.264C69.3354 349.572 69.3434 349.88 69.3594 350.179C69.3754 350.479 69.4314 350.751 69.5354 350.991C69.6354 351.231 69.7913 351.423 69.9993 351.571C70.2072 351.719 70.5152 351.791 70.9151 351.791C71.163 351.791 71.4189 351.767 71.6789 351.723C71.9428 351.675 72.1828 351.591 72.3987 351.467L72.3987 353.371C72.1508 353.511 71.8308 353.607 71.4349 353.663C71.039 353.715 70.7351 353.743 70.5192 353.743C69.7153 353.743 69.0915 353.631 68.6516 353.407C68.2117 353.183 67.8878 352.891 67.6758 352.535C67.4679 352.179 67.3439 351.783 67.3039 351.339C67.2639 350.899 67.2479 350.455 67.2479 350.008L67.2479 344.277L64.8365 344.277L64.8365 342.469L67.2479 342.469L67.2479 339.386L69.3354 339.386L69.3354 342.469L72.3267 342.469C72.3267 342.469 72.3267 344.277 72.3267 344.277Z" fill="#000000" fill-rule="nonzero" opacity="1" stroke="none" vectornator:layerName="path"/>
<path d="M74.6902 338.522C74.6902 338.106 74.8421 337.746 75.142 337.443C75.442 337.139 75.8019 336.991 76.2218 336.991C76.6417 336.991 76.9976 337.143 77.3015 337.443C77.6055 337.742 77.7534 338.102 77.7534 338.522C77.7534 338.942 77.6015 339.298 77.3015 339.602C77.0016 339.906 76.6417 340.054 76.2218 340.054C75.8019 340.054 75.446 339.902 75.142 339.602C74.8381 339.302 74.6902 338.942 74.6902 338.522ZM75.178 342.465L77.2655 342.465L77.2655 353.459L75.178 353.459L75.178 342.465Z" fill="#000000" fill-rule="nonzero" opacity="1" stroke="none" vectornator:layerName="path"/>
<path d="M86.4993 347.964C86.4993 347.16 86.6513 346.408 86.9512 345.713C87.2512 345.017 87.6671 344.405 88.1909 343.881C88.7148 343.357 89.3347 342.941 90.0465 342.641C90.7583 342.341 91.5221 342.189 92.3419 342.189C93.1617 342.189 93.9256 342.341 94.6374 342.641C95.3492 342.941 95.9691 343.357 96.4929 343.881C97.0168 344.409 97.4327 345.017 97.7327 345.713C98.0326 346.408 98.1845 347.16 98.1845 347.964C98.1845 348.768 98.0326 349.524 97.7327 350.227C97.4327 350.931 97.0168 351.543 96.4929 352.059C95.9691 352.579 95.3492 352.987 94.6374 353.287C93.9256 353.587 93.1617 353.739 92.3419 353.739C91.5221 353.739 90.7583 353.587 90.0465 353.287C89.3347 352.987 88.7148 352.575 88.1909 352.059C87.6631 351.543 87.2512 350.931 86.9512 350.227C86.6513 349.524 86.4993 348.772 86.4993 347.964ZM88.7228 347.964C88.7228 348.52 88.8068 349.036 88.9787 349.508C89.1467 349.98 89.3866 350.379 89.6986 350.715C90.0065 351.047 90.3864 351.311 90.8343 351.503C91.2822 351.695 91.7861 351.795 92.3419 351.795C92.8978 351.795 93.4017 351.699 93.8496 351.503C94.2975 351.311 94.6774 351.047 94.9853 350.715C95.2932 350.383 95.5332 349.98 95.7051 349.508C95.8731 349.036 95.9611 348.524 95.9611 347.964C95.9611 347.404 95.8771 346.892 95.7051 346.42C95.5332 345.948 95.2932 345.549 94.9853 345.213C94.6774 344.881 94.2975 344.617 93.8496 344.425C93.4017 344.233 92.8978 344.133 92.3419 344.133C91.7861 344.133 91.2822 344.229 90.8343 344.425C90.3864 344.621 90.0065 344.881 89.6986 345.213C89.3906 345.545 89.1507 345.948 88.9787 346.42C88.8068 346.892 88.7228 347.404 88.7228 347.964Z" fill="#000000" fill-rule="nonzero" opacity="1" stroke="none" vectornator:layerName="path"/>
<path d="M100.808 335.927L102.895 335.927L102.895 344.045L102.943 344.045C103.315 343.473 103.847 343.021 104.543 342.689C105.239 342.357 105.983 342.189 106.77 342.189C107.622 342.189 108.39 342.337 109.078 342.629C109.766 342.925 110.354 343.329 110.842 343.845C111.329 344.365 111.701 344.973 111.965 345.677C112.229 346.38 112.361 347.14 112.361 347.96C112.361 348.78 112.229 349.536 111.965 350.231C111.701 350.927 111.329 351.539 110.842 352.063C110.354 352.591 109.766 352.999 109.078 353.291C108.39 353.583 107.622 353.731 106.77 353.731C106.027 353.731 105.307 353.567 104.603 353.243C103.899 352.919 103.347 352.463 102.943 351.875L102.895 351.875L102.895 353.451L100.808 353.451L100.808 335.915L100.808 335.927ZM106.515 351.791C107.07 351.791 107.574 351.695 108.022 351.499C108.47 351.307 108.85 351.043 109.158 350.711C109.466 350.379 109.706 349.976 109.878 349.504C110.046 349.032 110.134 348.52 110.134 347.96C110.134 347.4 110.05 346.888 109.878 346.416C109.706 345.944 109.47 345.545 109.158 345.209C108.85 344.877 108.47 344.613 108.022 344.421C107.574 344.229 107.07 344.129 106.515 344.129C105.959 344.129 105.455 344.225 105.007 344.421C104.559 344.617 104.179 344.877 103.871 345.209C103.563 345.541 103.323 345.944 103.151 346.416C102.979 346.888 102.895 347.4 102.895 347.96C102.895 348.52 102.979 349.032 103.151 349.504C103.319 349.976 103.559 350.375 103.871 350.711C104.179 351.043 104.559 351.307 105.007 351.499C105.455 351.691 105.959 351.791 106.515 351.791Z" fill="#000000" fill-rule="nonzero" opacity="1" stroke="none" vectornator:layerName="path"/>
<path d="M117.232 342.465L117.232 355.038C117.232 355.318 117.212 355.682 117.172 356.138C117.132 356.594 117.008 357.034 116.8 357.462C116.592 357.89 116.26 358.254 115.804 358.561C115.348 358.869 114.705 359.025 113.869 359.025C113.637 359.025 113.409 359.009 113.185 358.977C112.961 358.945 112.741 358.893 112.525 358.813L112.757 356.89C112.881 356.938 113.021 356.978 113.173 357.018C113.329 357.058 113.473 357.074 113.613 357.074C114.185 357.074 114.585 356.89 114.809 356.53C115.033 356.166 115.144 355.638 115.144 354.942L115.144 342.465L117.232 342.465ZM114.657 338.522C114.657 338.106 114.809 337.746 115.109 337.443C115.408 337.143 115.768 336.991 116.188 336.991C116.608 336.991 116.964 337.143 117.268 337.443C117.568 337.742 117.72 338.102 117.72 338.522C117.72 338.942 117.568 339.298 117.268 339.602C116.968 339.902 116.608 340.054 116.188 340.054C115.768 340.054 115.412 339.902 115.109 339.602C114.809 339.302 114.657 338.942 114.657 338.522Z" fill="#000000" fill-rule="nonzero" opacity="1" stroke="none" vectornator:layerName="path"/>
<path d="M122.123 348.728C122.123 349.208 122.227 349.644 122.435 350.04C122.643 350.435 122.919 350.771 123.259 351.047C123.598 351.327 123.994 351.543 124.442 351.695C124.89 351.851 125.354 351.927 125.834 351.927C126.482 351.927 127.05 351.775 127.526 351.475C128.001 351.175 128.445 350.775 128.849 350.279L130.425 351.487C129.265 352.987 127.642 353.739 125.554 353.739C124.686 353.739 123.902 353.591 123.199 353.299C122.495 353.007 121.899 352.599 121.415 352.083C120.927 351.567 120.551 350.955 120.291 350.251C120.027 349.548 119.895 348.788 119.895 347.968C119.895 347.148 120.039 346.388 120.323 345.685C120.607 344.981 121.003 344.369 121.507 343.853C122.011 343.337 122.607 342.929 123.307 342.637C124.002 342.345 124.758 342.197 125.578 342.197C126.554 342.197 127.378 342.369 128.049 342.709C128.721 343.049 129.273 343.493 129.709 344.041C130.141 344.589 130.457 345.209 130.649 345.896C130.841 346.584 130.937 347.284 130.937 347.996L130.937 348.74L122.123 348.74L122.123 348.728ZM128.709 347.06C128.693 346.596 128.621 346.172 128.489 345.785C128.357 345.397 128.161 345.061 127.897 344.777C127.634 344.493 127.306 344.265 126.914 344.105C126.518 343.941 126.058 343.861 125.534 343.861C125.01 343.861 124.554 343.957 124.13 344.149C123.706 344.341 123.347 344.593 123.051 344.901C122.759 345.209 122.531 345.553 122.367 345.932C122.203 346.312 122.123 346.688 122.123 347.056L128.709 347.056L128.709 347.06Z" fill="#000000" fill-rule="nonzero" opacity="1" stroke="none" vectornator:layerName="path"/>
<path d="M133.444 335.927L135.532 335.927L135.532 347.244L140.262 342.489L143.162 342.489L138.035 347.476L143.602 353.459L140.634 353.459L135.532 347.752L135.532 353.459L133.444 353.459L133.444 335.923L133.444 335.927Z" fill="#000000" fill-rule="nonzero" opacity="1" stroke="none" vectornator:layerName="path"/>
<path d="M151.372 344.277L148.381 344.277L148.381 349.264C148.381 349.572 148.389 349.88 148.405 350.179C148.421 350.479 148.477 350.751 148.581 350.991C148.68 351.231 148.836 351.423 149.044 351.571C149.252 351.719 149.556 351.791 149.96 351.791C150.208 351.791 150.464 351.767 150.724 351.723C150.988 351.675 151.228 351.591 151.444 351.467L151.444 353.371C151.196 353.511 150.876 353.607 150.48 353.663C150.084 353.715 149.78 353.743 149.564 353.743C148.76 353.743 148.137 353.631 147.697 353.407C147.257 353.183 146.933 352.891 146.721 352.535C146.513 352.179 146.389 351.783 146.349 351.339C146.309 350.899 146.293 350.455 146.293 350.008L146.293 344.277L143.882 344.277L143.882 342.469L146.293 342.469L146.293 339.386L148.381 339.386L148.381 342.469L151.372 342.469C151.372 342.469 151.372 344.277 151.372 344.277Z" fill="#000000" fill-rule="nonzero" opacity="1" stroke="none" vectornator:layerName="path"/>
<path d="M163.805 353.459L161.717 353.459L161.717 351.767L161.669 351.767C161.405 352.355 160.95 352.831 160.302 353.195C159.654 353.559 158.902 353.739 158.05 353.739C157.51 353.739 156.998 353.659 156.519 353.495C156.039 353.331 155.619 353.083 155.255 352.743C154.891 352.403 154.603 351.967 154.383 351.431C154.163 350.895 154.059 350.267 154.059 349.54L154.059 342.465L156.147 342.465L156.147 348.96C156.147 349.472 156.215 349.908 156.355 350.271C156.495 350.635 156.679 350.927 156.911 351.151C157.142 351.375 157.41 351.539 157.71 351.639C158.01 351.739 158.326 351.791 158.65 351.791C159.082 351.791 159.486 351.723 159.858 351.583C160.23 351.443 160.554 351.223 160.834 350.923C161.114 350.623 161.329 350.239 161.481 349.776C161.633 349.312 161.713 348.764 161.713 348.128L161.713 342.469L163.801 342.469L163.801 353.463L163.805 353.459Z" fill="#000000" fill-rule="nonzero" opacity="1" stroke="none" vectornator:layerName="path"/>
<path d="M1.55963 369.791L3.64713 369.791L3.64713 371.482L3.69512 371.482C3.95905 370.895 4.41495 370.419 5.06279 370.055C5.71064 369.691 6.46246 369.511 7.31425 369.511C7.83813 369.511 8.34601 369.591 8.83389 369.755C9.32177 369.919 9.74567 370.171 10.1096 370.507C10.4735 370.847 10.7614 371.282 10.9774 371.818C11.1933 372.35 11.3013 372.982 11.3013 373.71L11.3013 380.784L9.2138 380.784L9.2138 374.29C9.2138 373.778 9.14582 373.342 9.00585 372.978C8.86588 372.614 8.68193 372.322 8.44998 372.098C8.21804 371.874 7.9501 371.71 7.65017 371.61C7.35024 371.51 7.03432 371.458 6.7104 371.458C6.2785 371.458 5.8746 371.526 5.50269 371.666C5.13077 371.806 4.80685 372.026 4.52692 372.326C4.24699 372.626 4.03104 373.01 3.87907 373.474C3.72311 373.938 3.64713 374.486 3.64713 375.122L3.64713 380.78L1.55963 380.78L1.55963 369.787L1.55963 369.791Z" fill="#000000" fill-rule="nonzero" opacity="1" stroke="none" vectornator:layerName="path"/>
<path d="M13.9247 375.289C13.9247 374.486 14.0766 373.734 14.3766 373.038C14.6765 372.342 15.0924 371.73 15.6163 371.206C16.1401 370.683 16.76 370.267 17.4718 369.967C18.1837 369.667 18.9475 369.515 19.7673 369.515C20.5871 369.515 21.3509 369.667 22.0627 369.967C22.7746 370.267 23.3944 370.683 23.9183 371.206C24.4422 371.734 24.8581 372.342 25.158 373.038C25.4579 373.734 25.6099 374.486 25.6099 375.289C25.6099 376.093 25.4579 376.849 25.158 377.553C24.8581 378.257 24.4422 378.869 23.9183 379.384C23.3904 379.904 22.7746 380.312 22.0627 380.612C21.3509 380.912 20.5871 381.064 19.7673 381.064C18.9475 381.064 18.1837 380.912 17.4718 380.612C16.76 380.312 16.1401 379.9 15.6163 379.384C15.0884 378.869 14.6765 378.257 14.3766 377.553C14.0766 376.849 13.9247 376.097 13.9247 375.289ZM16.1521 375.289C16.1521 375.845 16.2361 376.361 16.4081 376.833C16.58 377.305 16.816 377.705 17.1279 378.041C17.4358 378.373 17.8157 378.637 18.2636 378.829C18.7115 379.021 19.2154 379.121 19.7713 379.121C20.3271 379.121 20.831 379.025 21.2789 378.829C21.7268 378.637 22.1067 378.373 22.4146 378.041C22.7226 377.709 22.9625 377.305 23.1345 376.833C23.3064 376.361 23.3904 375.849 23.3904 375.289C23.3904 374.73 23.3064 374.218 23.1345 373.746C22.9625 373.274 22.7226 372.874 22.4146 372.538C22.1067 372.206 21.7268 371.942 21.2789 371.75C20.831 371.558 20.3271 371.458 19.7713 371.458C19.2154 371.458 18.7115 371.554 18.2636 371.75C17.8157 371.942 17.4358 372.206 17.1279 372.538C16.82 372.87 16.58 373.274 16.4081 373.746C16.2361 374.218 16.1521 374.73 16.1521 375.289Z" fill="#000000" fill-rule="nonzero" opacity="1" stroke="none" vectornator:layerName="path"/>
<path d="M33.36 369.791L35.7715 369.791L39.0667 378.209L42.2219 369.791L44.4494 369.791L40.1344 380.784L37.839 380.784L33.364 369.791L33.36 369.791Z" fill="#000000" fill-rule="nonzero" opacity="1" stroke="none" vectornator:layerName="path"/>
<path d="M45.953 365.848C45.953 365.432 46.105 365.072 46.4049 364.768C46.7048 364.464 47.0648 364.316 47.4847 364.316C47.9046 364.316 48.2605 364.468 48.5644 364.768C48.8643 365.068 49.0163 365.428 49.0163 365.848C49.0163 366.268 48.8643 366.624 48.5644 366.927C48.2645 367.227 47.9046 367.379 47.4847 367.379C47.0648 367.379 46.7088 367.227 46.4049 366.927C46.101 366.628 45.953 366.268 45.953 365.848ZM46.4409 369.791L48.5284 369.791L48.5284 380.784L46.4409 380.784L46.4409 369.791Z" fill="#000000" fill-rule="nonzero" opacity="1" stroke="none" vectornator:layerName="path"/>
<path d="M57.6902 372.55C57.4423 372.242 57.1383 371.982 56.7744 371.774C56.4105 371.566 55.9666 371.462 55.4388 371.462C54.9429 371.462 54.515 371.566 54.1511 371.774C53.7872 371.982 53.6072 372.29 53.6072 372.69C53.6072 373.014 53.7112 373.278 53.9191 373.478C54.1271 373.678 54.375 373.842 54.6629 373.966C54.9469 374.09 55.2548 374.182 55.5787 374.246C55.9026 374.31 56.1826 374.362 56.4145 374.41C56.8624 374.518 57.2823 374.65 57.6782 374.806C58.0741 374.962 58.414 375.162 58.698 375.409C58.9819 375.657 59.2099 375.957 59.3698 376.313C59.5338 376.669 59.6138 377.101 59.6138 377.613C59.6138 378.233 59.4818 378.761 59.2179 379.201C58.9539 379.64 58.614 380 58.1981 380.28C57.7822 380.56 57.3063 380.76 56.7704 380.884C56.2386 381.008 55.6987 381.068 55.1588 381.068C54.247 381.068 53.4472 380.928 52.7594 380.652C52.0716 380.372 51.4557 379.864 50.9158 379.121L52.4915 377.821C52.8314 378.161 53.2113 378.461 53.6272 378.725C54.0431 378.989 54.555 379.121 55.1588 379.121C55.4228 379.121 55.6867 379.093 55.9586 379.041C56.2306 378.989 56.4705 378.901 56.6785 378.785C56.8864 378.669 57.0584 378.521 57.1903 378.345C57.3223 378.169 57.3863 377.961 57.3863 377.729C57.3863 377.421 57.2903 377.165 57.0944 376.965C56.9024 376.765 56.6705 376.605 56.3985 376.489C56.1266 376.373 55.8427 376.281 55.5387 376.209C55.2348 376.137 54.9709 376.081 54.7389 376.037C54.291 375.929 53.8671 375.805 53.4632 375.665C53.0593 375.525 52.7074 375.341 52.3955 375.11C52.0836 374.878 51.8396 374.586 51.6517 374.23C51.4677 373.874 51.3717 373.434 51.3717 372.906C51.3717 372.334 51.4917 371.834 51.7316 371.41C51.9716 370.987 52.2875 370.635 52.6834 370.355C53.0793 370.075 53.5272 369.867 54.0271 369.727C54.527 369.587 55.0349 369.519 55.5467 369.519C56.2906 369.519 56.9984 369.659 57.6822 369.935C58.3621 370.215 58.9019 370.679 59.3058 371.326L57.6822 372.554L57.6902 372.55Z" fill="#000000" fill-rule="nonzero" opacity="1" stroke="none" vectornator:layerName="path"/>
<path d="M62.1891 371.134C62.777 370.595 63.4568 370.187 64.2287 369.919C65.0005 369.647 65.7763 369.511 66.5481 369.511C67.3199 369.511 68.0437 369.611 68.6236 369.811C69.2035 370.011 69.6794 370.283 70.0513 370.623C70.4232 370.963 70.6951 371.354 70.8751 371.794C71.055 372.234 71.143 372.694 71.143 373.174L71.143 378.789C71.143 379.177 71.151 379.532 71.167 379.856C71.183 380.18 71.207 380.492 71.235 380.784L69.3794 380.784C69.3314 380.228 69.3114 379.672 69.3114 379.113L69.2635 379.113C68.7996 379.824 68.2517 380.328 67.6158 380.62C66.98 380.912 66.2482 381.06 65.4124 381.06C64.9005 381.06 64.4166 380.992 63.9527 380.852C63.4888 380.712 63.0849 380.504 62.737 380.224C62.3891 379.944 62.1132 379.6 61.9132 379.193C61.7133 378.785 61.6133 378.309 61.6133 377.765C61.6133 377.053 61.7732 376.457 62.0892 375.977C62.4051 375.497 62.841 375.11 63.3889 374.806C63.9367 374.506 64.5806 374.286 65.3124 374.158C66.0482 374.026 66.832 373.962 67.6678 373.962L69.1995 373.962L69.1995 373.498C69.1995 373.218 69.1435 372.942 69.0355 372.662C68.9275 372.382 68.7636 372.134 68.5476 371.91C68.3317 371.686 68.0597 371.506 67.7358 371.378C67.4119 371.25 67.024 371.182 66.5761 371.182C66.1722 371.182 65.8243 371.222 65.5203 371.298C65.2204 371.374 64.9445 371.47 64.6965 371.586C64.4486 371.702 64.2247 371.838 64.0247 371.99C63.8248 372.146 63.6288 372.29 63.4448 372.43L62.1931 371.13L62.1891 371.134ZM69.7273 366.867L63.0489 366.867L63.0489 365.336L69.7273 365.336L69.7273 366.867ZM68.0797 375.497C67.5839 375.497 67.08 375.525 66.5601 375.577C66.0402 375.633 65.5723 375.737 65.1444 375.889C64.7205 376.045 64.3726 376.261 64.1007 376.537C63.8288 376.817 63.6968 377.173 63.6968 377.605C63.6968 378.241 63.9087 378.697 64.3326 378.973C64.7565 379.253 65.3324 379.388 66.0602 379.388C66.6321 379.388 67.12 379.293 67.5199 379.101C67.9238 378.909 68.2477 378.657 68.4956 378.349C68.7436 378.041 68.9195 377.697 69.0275 377.317C69.1355 376.937 69.1915 376.565 69.1915 376.193L69.1915 375.497C69.1915 375.497 68.0797 375.497 68.0797 375.497Z" fill="#000000" fill-rule="nonzero" opacity="1" stroke="none" vectornator:layerName="path"/>
<path d="M74.1823 369.791L76.1298 369.791L76.1298 371.506L76.1778 371.506C76.2258 371.35 76.3458 371.158 76.5377 370.927C76.7297 370.695 76.9776 370.475 77.2815 370.267C77.5815 370.059 77.9374 369.879 78.3493 369.735C78.7612 369.591 79.2131 369.515 79.705 369.515C80.5248 369.515 81.2126 369.687 81.7685 370.027C82.3243 370.367 82.7802 370.879 83.1361 371.558C83.4921 370.879 83.9959 370.367 84.6438 370.027C85.2916 369.687 85.9515 369.515 86.6153 369.515C87.4671 369.515 88.1629 369.655 88.7028 369.931C89.2427 370.211 89.6706 370.575 89.9785 371.03C90.2864 371.486 90.4984 372.006 90.6184 372.586C90.7343 373.166 90.7903 373.766 90.7903 374.386L90.7903 380.788L88.7028 380.788L88.7028 374.666C88.7028 374.25 88.6748 373.846 88.6228 373.458C88.5668 373.07 88.4549 372.73 88.2869 372.438C88.1189 372.146 87.879 371.91 87.5671 371.73C87.2592 371.554 86.8473 371.462 86.3394 371.462C85.3356 371.462 84.6158 371.77 84.1839 372.39C83.752 373.01 83.536 373.806 83.536 374.778L83.536 380.784L81.4485 380.784L81.4485 375.034C81.4485 374.51 81.4205 374.03 81.3686 373.594C81.3126 373.162 81.2046 372.786 81.0446 372.47C80.8807 372.154 80.6487 371.906 80.3488 371.726C80.0489 371.55 79.641 371.458 79.1331 371.458C78.7612 371.458 78.4013 371.53 78.0534 371.678C77.7054 371.826 77.4015 372.046 77.1376 372.338C76.8736 372.634 76.6657 373.006 76.5097 373.462C76.3538 373.918 76.2778 374.454 76.2778 375.074L76.2778 380.78L74.1903 380.78L74.1903 369.787L74.1823 369.791Z" fill="#000000" fill-rule="nonzero" opacity="1" stroke="none" vectornator:layerName="path"/>
<path d="M100.392 369.791L102.48 369.791L102.48 371.366L102.528 371.366C102.931 370.779 103.483 370.323 104.187 369.999C104.891 369.675 105.615 369.511 106.355 369.511C107.206 369.511 107.974 369.659 108.662 369.951C109.35 370.247 109.938 370.655 110.426 371.178C110.914 371.702 111.289 372.318 111.549 373.022C111.813 373.726 111.945 374.482 111.945 375.285C111.945 376.089 111.813 376.865 111.549 377.569C111.285 378.273 110.91 378.885 110.426 379.4C109.938 379.92 109.35 380.324 108.662 380.616C107.974 380.908 107.202 381.056 106.355 381.056C105.567 381.056 104.823 380.888 104.127 380.556C103.431 380.224 102.899 379.772 102.528 379.201L102.48 379.201L102.48 387.319L100.392 387.319L100.392 369.783L100.392 369.791ZM106.099 371.462C105.543 371.462 105.039 371.558 104.591 371.754C104.143 371.946 103.763 372.21 103.455 372.542C103.147 372.874 102.907 373.278 102.735 373.75C102.563 374.222 102.48 374.734 102.48 375.293C102.48 375.853 102.563 376.365 102.735 376.837C102.907 377.309 103.147 377.709 103.455 378.045C103.763 378.377 104.143 378.641 104.591 378.833C105.039 379.025 105.543 379.125 106.099 379.125C106.655 379.125 107.158 379.029 107.606 378.833C108.054 378.641 108.434 378.377 108.742 378.045C109.05 377.713 109.29 377.309 109.462 376.837C109.634 376.365 109.718 375.853 109.718 375.293C109.718 374.734 109.634 374.222 109.462 373.75C109.29 373.278 109.054 372.878 108.742 372.542C108.434 372.21 108.054 371.946 107.606 371.754C107.158 371.562 106.655 371.462 106.099 371.462Z" fill="#000000" fill-rule="nonzero" opacity="1" stroke="none" vectornator:layerName="path"/>
<path d="M124.306 380.784L122.219 380.784L122.219 379.093L122.171 379.093C121.907 379.68 121.451 380.156 120.803 380.52C120.155 380.884 119.403 381.064 118.552 381.064C118.012 381.064 117.5 380.984 117.02 380.82C116.54 380.656 116.12 380.408 115.756 380.068C115.392 379.728 115.105 379.293 114.885 378.757C114.669 378.225 114.561 377.593 114.561 376.865L114.561 369.791L116.648 369.791L116.648 376.285C116.648 376.797 116.716 377.233 116.856 377.597C116.996 377.961 117.18 378.253 117.412 378.477C117.644 378.701 117.912 378.865 118.212 378.965C118.512 379.065 118.828 379.117 119.152 379.117C119.583 379.117 119.987 379.049 120.359 378.909C120.731 378.769 121.055 378.549 121.335 378.249C121.615 377.949 121.831 377.565 121.983 377.101C122.135 376.637 122.215 376.089 122.215 375.453L122.215 369.795L124.302 369.795L124.302 380.788L124.306 380.784Z" fill="#000000" fill-rule="nonzero" opacity="1" stroke="none" vectornator:layerName="path"/>
<path d="M133.304 372.55C133.056 372.242 132.752 371.982 132.388 371.774C132.024 371.566 131.581 371.462 131.057 371.462C130.561 371.462 130.133 371.566 129.769 371.774C129.405 371.982 129.225 372.29 129.225 372.69C129.225 373.014 129.329 373.278 129.537 373.478C129.745 373.678 129.993 373.842 130.281 373.966C130.565 374.09 130.873 374.182 131.197 374.246C131.521 374.31 131.801 374.362 132.032 374.41C132.48 374.518 132.904 374.65 133.296 374.806C133.692 374.962 134.032 375.162 134.316 375.409C134.6 375.657 134.828 375.957 134.988 376.313C135.152 376.669 135.232 377.101 135.232 377.613C135.232 378.233 135.1 378.761 134.836 379.201C134.572 379.64 134.232 380 133.816 380.28C133.4 380.56 132.924 380.76 132.388 380.884C131.856 381.008 131.317 381.068 130.777 381.068C129.865 381.068 129.065 380.928 128.377 380.652C127.689 380.372 127.074 379.864 126.534 379.121L128.109 377.821C128.449 378.161 128.829 378.461 129.245 378.725C129.661 378.989 130.173 379.121 130.777 379.121C131.041 379.121 131.305 379.093 131.577 379.041C131.849 378.989 132.088 378.901 132.296 378.785C132.504 378.669 132.676 378.521 132.808 378.345C132.94 378.169 133.004 377.961 133.004 377.729C133.004 377.421 132.908 377.165 132.712 376.965C132.52 376.765 132.288 376.605 132.016 376.489C131.745 376.373 131.461 376.281 131.157 376.209C130.857 376.141 130.589 376.081 130.357 376.037C129.909 375.929 129.481 375.805 129.081 375.665C128.677 375.525 128.321 375.341 128.013 375.11C127.705 374.878 127.458 374.586 127.27 374.23C127.086 373.874 126.99 373.434 126.99 372.906C126.99 372.334 127.11 371.834 127.35 371.41C127.59 370.987 127.905 370.635 128.301 370.355C128.697 370.075 129.145 369.867 129.645 369.727C130.149 369.587 130.653 369.519 131.165 369.519C131.908 369.519 132.616 369.659 133.3 369.935C133.98 370.215 134.52 370.679 134.924 371.326L133.3 372.554L133.304 372.55Z" fill="#000000" fill-rule="nonzero" opacity="1" stroke="none" vectornator:layerName="path"/>
<path d="M139.335 376.053C139.335 376.533 139.439 376.969 139.647 377.365C139.855 377.761 140.131 378.097 140.47 378.373C140.81 378.653 141.206 378.869 141.654 379.021C142.102 379.177 142.566 379.253 143.046 379.253C143.694 379.253 144.262 379.101 144.737 378.801C145.217 378.501 145.657 378.101 146.061 377.605L147.637 378.813C146.477 380.312 144.853 381.064 142.766 381.064C141.898 381.064 141.114 380.916 140.41 380.624C139.707 380.332 139.111 379.924 138.623 379.408C138.135 378.893 137.759 378.281 137.499 377.577C137.235 376.873 137.103 376.113 137.103 375.293C137.103 374.474 137.247 373.714 137.531 373.01C137.815 372.306 138.211 371.694 138.715 371.178C139.219 370.663 139.819 370.255 140.514 369.963C141.21 369.671 141.966 369.523 142.786 369.523C143.762 369.523 144.581 369.695 145.257 370.035C145.929 370.375 146.481 370.819 146.917 371.366C147.349 371.914 147.665 372.534 147.857 373.222C148.049 373.91 148.149 374.61 148.149 375.321L148.149 376.065L139.335 376.065L139.335 376.053ZM145.921 374.382C145.905 373.918 145.833 373.494 145.701 373.106C145.569 372.718 145.373 372.382 145.109 372.098C144.845 371.814 144.517 371.586 144.126 371.426C143.73 371.262 143.27 371.182 142.746 371.182C142.222 371.182 141.766 371.278 141.342 371.47C140.918 371.662 140.558 371.914 140.262 372.222C139.971 372.53 139.743 372.874 139.579 373.254C139.415 373.634 139.335 374.01 139.335 374.378L145.921 374.378L145.921 374.382ZM146.037 366.867L139.359 366.867L139.359 365.336L146.037 365.336L146.037 366.867Z" fill="#000000" fill-rule="nonzero" opacity="1" stroke="none" vectornator:layerName="path"/>
<path d="M150.652 369.791L152.6 369.791L152.6 371.506L152.648 371.506C152.696 371.35 152.811 371.158 153.007 370.927C153.199 370.695 153.447 370.475 153.751 370.267C154.051 370.059 154.407 369.879 154.819 369.735C155.231 369.591 155.683 369.515 156.175 369.515C156.994 369.515 157.682 369.687 158.238 370.027C158.794 370.367 159.25 370.879 159.606 371.558C159.962 370.879 160.466 370.367 161.114 370.027C161.761 369.687 162.421 369.515 163.085 369.515C163.937 369.515 164.633 369.655 165.173 369.931C165.712 370.211 166.14 370.575 166.448 371.03C166.756 371.486 166.968 372.006 167.084 372.586C167.2 373.166 167.256 373.766 167.256 374.386L167.256 380.788L165.169 380.788L165.169 374.666C165.169 374.25 165.141 373.846 165.089 373.458C165.033 373.07 164.921 372.73 164.753 372.438C164.581 372.146 164.341 371.91 164.033 371.73C163.725 371.554 163.313 371.462 162.805 371.462C161.801 371.462 161.082 371.77 160.65 372.39C160.218 373.01 160.002 373.806 160.002 374.778L160.002 380.784L157.914 380.784L157.914 375.034C157.914 374.51 157.886 374.03 157.834 373.594C157.778 373.162 157.67 372.786 157.51 372.47C157.346 372.154 157.114 371.906 156.815 371.726C156.515 371.55 156.107 371.458 155.599 371.458C155.227 371.458 154.867 371.53 154.519 371.678C154.171 371.826 153.867 372.046 153.603 372.338C153.339 372.634 153.131 373.006 152.975 373.462C152.819 373.918 152.744 374.454 152.744 375.074L152.744 380.78L150.656 380.78L150.656 369.787L150.652 369.791Z" fill="#000000" fill-rule="nonzero" opacity="1" stroke="none" vectornator:layerName="path"/>
</g>
<g opacity="1" vectornator:layerName="Group 2">
<path d="M87.7412 294.032C87.4121 294.032 87.0909 293.903 86.8559 293.656C85.8727 292.642 80.9371 287.444 80.3181 284.592C80.0165 283.201 80.8 280.33 81.2622 278.834C80.4474 277.792 79.4485 276.299 79.4133 275.253C79.3976 274.771 79.6287 274.141 80.1027 273.381L77.9561 268.923C77.8033 268.606 77.7916 268.234 77.9287 267.909C78.0658 267.583 78.336 267.329 78.669 267.215L90.5028 263.188C90.8788 263.059 91.2941 263.122 91.6192 263.353C91.9443 263.584 92.1363 263.96 92.1363 264.356L92.1363 270.878C92.7708 271.281 93.1861 271.685 93.3741 272.073C93.6444 272.637 93.6561 273.604 93.5817 274.513C95.0271 275.304 97.5302 276.804 98.2745 278.089C99.6181 280.408 99.7082 287.44 99.7121 288.826C99.7121 289.343 99.3909 289.81 98.9051 289.99L88.1721 293.954C88.0311 294.005 87.8861 294.032 87.7451 294.032L87.7412 294.032ZM81.8968 275.245C82.0378 275.672 82.8055 276.844 83.5851 277.788C83.8553 278.117 83.9415 278.559 83.8083 278.963C83.1698 280.898 82.5862 283.413 82.7272 284.067C83.0602 285.602 85.9824 289.12 88.0741 291.353L97.2286 287.972C97.1698 284.964 96.8486 280.561 96.1357 279.327C95.7714 278.7 93.5464 277.259 91.6975 276.311C91.2314 276.072 90.9689 275.563 91.0394 275.046C91.1335 274.36 91.1726 273.557 91.1413 273.193C90.965 273.052 90.6242 272.836 90.3265 272.68C89.9231 272.464 89.6684 272.045 89.6684 271.587L89.6684 266.075L80.7882 269.099L82.6371 272.938C82.833 273.346 82.7899 273.827 82.5274 274.196C82.2689 274.552 81.9986 275.007 81.9007 275.238L81.8968 275.245Z" fill="#000000" fill-rule="nonzero" opacity="1" stroke="none" vectornator:layerName="path"/>
<path d="M55.9768 210.976C37.1587 210.976 22.4184 218.458 22.4184 228.012C22.4184 231.616 24.2164 236.587 32.4738 240.379L28.5801 242.196L31.9214 243.411L37.288 240.907L34.7849 235.541L31.4435 234.327L33.1436 237.966C29.0227 235.999 24.8901 232.826 24.8901 228.016C24.8901 220.123 39.1251 213.452 55.9768 213.452C72.8285 213.452 87.0635 220.123 87.0635 228.016C87.0635 235.909 72.8285 242.58 55.9768 242.58C55.2952 242.58 54.7429 243.132 54.7429 243.814C54.7429 244.496 55.2952 245.048 55.9768 245.048C74.7949 245.048 89.5353 237.566 89.5353 228.012C89.5353 218.458 74.7949 210.976 55.9768 210.976Z" fill="#000000" fill-rule="nonzero" opacity="1" stroke="none" vectornator:layerName="path"/>
<g opacity="1" vectornator:layerName="g">
<path d="M46.8694 232.117C46.2348 232.117 45.6981 232.043 45.2516 231.89C44.805 231.737 44.4407 231.545 44.1548 231.307C43.8688 231.068 43.6612 230.813 43.5202 230.539C43.3792 230.265 43.3087 230.006 43.3008 229.755C43.3008 229.681 43.3283 229.622 43.3792 229.571C43.4301 229.524 43.4928 229.497 43.5672 229.497L45.1497 229.497C45.2477 229.497 45.326 229.516 45.3809 229.552C45.4357 229.587 45.4905 229.646 45.5375 229.728C45.6002 229.881 45.6981 230.006 45.8235 230.104C45.9488 230.202 46.1016 230.268 46.2779 230.304C46.4542 230.339 46.65 230.359 46.8615 230.359C47.2768 230.359 47.598 230.265 47.8291 230.073C48.0602 229.881 48.1777 229.622 48.1777 229.289C48.1777 228.956 48.068 228.69 47.8487 228.541C47.6293 228.392 47.3159 228.314 46.9125 228.314L45.561 228.314C45.4709 228.314 45.4004 228.286 45.3417 228.228C45.2829 228.173 45.2555 228.098 45.2555 228.008L45.2555 227.327C45.2555 227.229 45.2751 227.143 45.3182 227.072C45.3574 226.998 45.4044 226.947 45.4514 226.915L47.4491 225.223L44.0647 225.223C43.9824 225.223 43.9119 225.196 43.8532 225.137C43.7905 225.078 43.7631 225.008 43.7631 224.918L43.7631 223.774C43.7631 223.684 43.7944 223.613 43.8532 223.554C43.9158 223.5 43.9863 223.468 44.0647 223.468L49.6623 223.468C49.7524 223.468 49.8268 223.496 49.8895 223.554C49.9522 223.613 49.9796 223.684 49.9796 223.774L49.9796 224.808C49.9796 224.898 49.96 224.976 49.9169 225.047C49.8739 225.117 49.8308 225.172 49.7838 225.211L47.9349 226.927L48.021 226.951C48.4833 227.005 48.8985 227.131 49.2628 227.323C49.6271 227.515 49.9169 227.777 50.1246 228.122C50.3361 228.463 50.4418 228.897 50.4418 229.422C50.4418 229.947 50.2852 230.453 49.9718 230.852C49.6584 231.256 49.2354 231.565 48.6987 231.784C48.162 232.004 47.551 232.113 46.8615 232.113L46.8694 232.117Z" fill="#000000" fill-rule="nonzero" opacity="1" stroke="none" vectornator:layerName="path"/>
<path d="M54.9505 232.117C54.2376 232.117 53.6069 231.988 53.0624 231.73C52.5179 231.471 52.0949 231.111 51.7894 230.652C51.4838 230.194 51.335 229.669 51.335 229.078C51.335 228.827 51.3741 228.576 51.4486 228.329C51.5269 228.083 51.6209 227.848 51.7345 227.624C51.8481 227.401 51.9617 227.201 52.0753 227.029C52.1889 226.853 52.2829 226.716 52.3534 226.61L54.4961 223.727C54.5353 223.688 54.5901 223.637 54.6528 223.574C54.7155 223.511 54.8095 223.484 54.9309 223.484L56.5487 223.484C56.6231 223.484 56.6819 223.511 56.7328 223.562C56.7798 223.613 56.8073 223.68 56.8073 223.75C56.8073 223.782 56.8073 223.813 56.7955 223.84C56.7838 223.868 56.7759 223.891 56.7602 223.907L55.115 226.148C55.162 226.132 55.2208 226.12 55.2913 226.116C55.3618 226.112 55.4245 226.108 55.4793 226.108C55.8436 226.124 56.204 226.206 56.5644 226.351C56.9209 226.496 57.246 226.696 57.5398 226.947C57.8296 227.197 58.0647 227.499 58.2409 227.852C58.4133 228.204 58.5034 228.6 58.5034 229.038C58.5034 229.599 58.3585 230.112 58.0647 230.578C57.7709 231.044 57.3596 231.416 56.8308 231.698C56.298 231.976 55.6713 232.117 54.9505 232.117ZM54.9388 230.362C55.1738 230.362 55.3932 230.312 55.5968 230.21C55.8005 230.108 55.9651 229.963 56.0904 229.771C56.2158 229.579 56.2784 229.344 56.2784 229.058C56.2784 228.772 56.2158 228.537 56.0943 228.345C55.9729 228.153 55.8084 228.012 55.6086 227.914C55.4049 227.816 55.1816 227.769 54.9388 227.769C54.6959 227.769 54.4687 227.816 54.265 227.914C54.0574 228.012 53.8929 228.157 53.7714 228.345C53.65 228.537 53.5873 228.772 53.5873 229.058C53.5873 229.344 53.65 229.579 53.7754 229.771C53.9007 229.963 54.0652 230.108 54.2689 230.21C54.4726 230.312 54.6959 230.362 54.9388 230.362Z" fill="#000000" fill-rule="nonzero" opacity="1" stroke="none" vectornator:layerName="path"/>
<path d="M62.9846 232.117C62.401 232.117 61.8917 232.035 61.4648 231.867C61.0378 231.698 60.6813 231.471 60.3993 231.177C60.1212 230.883 59.9057 230.543 59.7608 230.155C59.6159 229.767 59.5297 229.348 59.5062 228.901C59.4984 228.682 59.4905 228.431 59.4866 228.153C59.4827 227.875 59.4827 227.589 59.4866 227.299C59.4866 227.013 59.4984 226.755 59.5062 226.528C59.5297 226.081 59.6198 225.666 59.7686 225.282C59.9175 224.898 60.1369 224.561 60.4267 224.271C60.7127 223.985 61.0731 223.758 61.4961 223.598C61.9231 223.437 62.4206 223.355 62.9886 223.355C63.5565 223.355 64.0619 223.437 64.4849 223.598C64.908 223.758 65.2605 223.985 65.5504 224.271C65.8363 224.561 66.0596 224.898 66.2124 225.282C66.3652 225.666 66.4513 226.085 66.467 226.528C66.4827 226.755 66.4944 227.013 66.4983 227.299C66.4983 227.589 66.4983 227.871 66.4983 228.153C66.4944 228.431 66.4827 228.682 66.467 228.901C66.4513 229.348 66.3691 229.767 66.2163 230.155C66.0675 230.543 65.852 230.883 65.57 231.177C65.2919 231.471 64.9354 231.698 64.5123 231.867C64.0854 232.031 63.5761 232.117 62.9846 232.117ZM62.9846 230.351C63.4077 230.351 63.7132 230.214 63.9052 229.943C64.0971 229.673 64.195 229.305 64.2029 228.843C64.2185 228.608 64.2303 228.361 64.2342 228.102C64.2381 227.844 64.2381 227.581 64.2342 227.323C64.2342 227.064 64.2185 226.825 64.2029 226.606C64.195 226.159 64.0971 225.799 63.9052 225.521C63.7132 225.247 63.4077 225.102 62.9846 225.094C62.5616 225.102 62.26 225.243 62.0719 225.521C61.8839 225.799 61.786 226.159 61.7664 226.606C61.7586 226.825 61.7507 227.064 61.7468 227.323C61.7468 227.581 61.7468 227.844 61.7468 228.102C61.7507 228.361 61.7586 228.608 61.7664 228.843C61.7821 229.305 61.8878 229.673 62.0837 229.943C62.2795 230.214 62.5773 230.351 62.9846 230.351Z" fill="#000000" fill-rule="nonzero" opacity="1" stroke="none" vectornator:layerName="path"/>
</g>
<path d="M65.8598 221.874C65.8598 221.035 66.5403 220.354 67.3797 220.354C68.2191 220.354 68.8996 221.035 68.8996 221.874C68.8996 222.713 68.2191 223.394 67.3797 223.394C66.5403 223.394 65.8598 222.713 65.8598 221.874Z" fill="#000000" fill-rule="nonzero" opacity="1" stroke="none" vectornator:layerName="circle"/>
<path d="M84.8542 253.372L76.4166 256.553C75.8839 256.752 75.6175 257.348 75.8173 257.881C75.974 258.292 76.3657 258.547 76.7809 258.547C76.9024 258.547 77.0238 258.527 77.1452 258.48L85.5828 255.299C86.1156 255.099 86.3819 254.504 86.1822 253.971C85.9824 253.439 85.387 253.168 84.8542 253.372Z" fill="#000000" fill-rule="nonzero" opacity="1" stroke="none" vectornator:layerName="path"/>
<path d="M101.443 303.077L98.6427 304.135C98.11 304.334 97.8436 304.93 98.0434 305.463C98.2 305.874 98.5918 306.128 99.007 306.128C99.1284 306.128 99.2498 306.109 99.3713 306.062L102.172 305.004C102.705 304.804 102.971 304.209 102.771 303.676C102.572 303.144 101.976 302.873 101.443 303.077Z" fill="#000000" fill-rule="nonzero" opacity="1" stroke="none" vectornator:layerName="path"/>
<path d="M144.775 313.125L133.337 282.786C133.298 282.676 132.299 280.13 128.445 278.536C122.393 276.033 106.994 269.632 106.994 269.632L106.971 269.687L98.815 248.052C97.6908 245.071 94.326 243.567 91.3137 244.703L66.6394 254.007C63.6271 255.143 62.0954 258.492 63.2197 261.477L64.6455 265.257L38.1772 265.257L38.1772 300.711L73.6315 300.711L73.6315 289.089L82.1749 311.746C83.0445 314.053 85.2538 315.475 87.6041 315.475C88.2935 315.475 88.9908 315.353 89.6724 315.095L112.462 306.505C113.207 306.222 113.583 305.392 113.301 304.648C113.019 303.904 112.188 303.527 111.444 303.806L88.6539 312.396C87.1301 312.972 85.4301 312.22 84.866 310.727L65.9147 260.458C65.3506 258.962 66.1301 257.277 67.6539 256.705L92.3282 247.402C93.852 246.826 95.552 247.578 96.1161 249.071L107.018 277.98C107.3 278.724 108.13 279.1 108.874 278.822C109.619 278.54 109.995 277.709 109.713 276.965L107.934 272.253C112.126 273.992 122.839 278.442 127.653 280.436C130.626 281.666 131.379 283.444 131.406 283.511L142.844 313.849C143.001 314.261 143.392 314.515 143.808 314.515C143.929 314.515 144.051 314.496 144.172 314.449C144.705 314.249 144.971 313.653 144.771 313.121L144.775 313.125ZM52.8666 285.916L47.1553 285.916L47.1553 280.048L52.8666 280.048L52.8666 285.916ZM64.7944 291.897L58.9264 291.897L58.9264 274.262L64.7944 274.262L64.7944 291.897Z" fill="#000000" fill-rule="nonzero" opacity="1" stroke="none" vectornator:layerName="path"/>
<path d="M124.61 288.235L102.811 278.935L102.454 279.993C102.254 280.592 101.248 283.644 101.248 284.878C101.252 288.168 102.92 290.628 104.479 291.831C106.559 293.437 112.271 295.862 114.194 296.657C114.237 297.922 114.429 300.593 115.252 302.297C116.509 304.895 119.666 306.998 119.799 307.088C119.976 307.202 120.171 307.257 120.363 307.257C120.696 307.257 121.025 307.096 121.221 306.794C121.535 306.32 121.405 305.682 120.931 305.369C120.904 305.349 118.111 303.484 117.1 301.4C116.372 299.9 116.227 296.97 116.235 295.967L116.235 295.266L115.588 295.004C115.514 294.972 107.969 291.929 105.733 290.201C104.616 289.336 103.308 287.424 103.304 284.874C103.304 284.369 103.68 282.958 104.06 281.713L123.795 290.135C124.316 290.358 124.923 290.115 125.146 289.59C125.37 289.065 125.127 288.462 124.602 288.239L124.61 288.235Z" fill="#000000" fill-rule="nonzero" opacity="1" stroke="none" vectornator:layerName="path"/>
<path d="M117.567 312.94L117.3 312.239L116.552 312.275C116.529 312.282 114.112 312.369 111.859 310.794C111.393 310.469 110.751 310.582 110.426 311.048C110.1 311.515 110.214 312.157 110.68 312.482C112.698 313.892 114.789 314.237 115.886 314.315L119.09 322.812C119.247 323.223 119.639 323.478 120.054 323.478C120.175 323.478 120.297 323.458 120.418 323.411C120.951 323.211 121.217 322.616 121.018 322.083L117.57 312.937L117.567 312.94Z" fill="#000000" fill-rule="nonzero" opacity="1" stroke="none" vectornator:layerName="path"/>
</g>
<g opacity="1" vectornator:layerName="Group 1">
<path d="M93.1435 8.75137L80.6296 8.75137C79.9561 8.75137 79.4079 8.20325 79.4079 7.52971C79.4079 6.85617 79.9561 6.30805 80.6296 6.30805L93.1435 6.30805C93.8171 6.30805 94.3652 6.85617 94.3652 7.52971C94.3652 8.20325 93.8171 8.75137 93.1435 8.75137Z" fill="#000000" fill-rule="nonzero" opacity="1" stroke="none" vectornator:layerName="path"/>
<g opacity="1" vectornator:layerName="g">
<path d="M84.7823 83.7187C84.1088 83.7187 83.5607 84.2668 83.5607 84.9403C83.5607 85.6139 84.1088 86.162 84.7823 86.162L88.9397 86.162C89.6132 86.162 90.1614 85.6139 90.1614 84.9403C90.1614 84.2668 89.6132 83.7187 88.9397 83.7187L84.7823 83.7187Z" fill="#000000" fill-rule="nonzero" opacity="1" stroke="none" vectornator:layerName="path"/>
<path d="M136.492 62.4348C130.76 57.0604 117.391 44.5001 113.865 41.1881L113.865 7.94313C113.865 3.56279 110.265 0 105.843 0L67.9624 0C63.5403 0 59.9403 3.56279 59.9403 7.94313L59.9403 32.5343L26.5513 32.5343L26.5513 74.5771L59.9403 74.5771L59.9403 85.1215C59.9403 89.5018 63.5403 93.0646 67.9624 93.0646L102.949 93.0646C103.892 93.0646 104.659 92.2982 104.659 91.3552C104.659 90.4123 103.892 89.6458 102.949 89.6458L67.9624 89.6458C65.4215 89.6458 63.3591 87.6159 63.3591 85.1215L63.3591 7.94313C63.3591 5.44871 65.4262 3.4188 67.9624 3.4188L105.843 3.4188C108.384 3.4188 110.447 5.44871 110.447 7.94313L110.447 52.3317C110.447 53.2747 111.213 54.0411 112.156 54.0411C113.099 54.0411 113.865 53.2747 113.865 52.3317L113.865 44.5419C118.831 49.2102 129.779 59.4945 134.824 64.2185C138.159 67.3447 138.257 70.0946 138.261 70.2014L138.261 115.208C138.261 115.881 138.81 116.429 139.483 116.429C140.157 116.429 140.705 115.881 140.705 115.208L140.705 70.2014C140.705 70.0435 140.658 66.3367 136.496 62.4395L136.492 62.4348ZM43.9612 57.0233L37.1886 57.0233L37.1886 50.0649L43.9612 50.0649L43.9612 57.0233ZM58.1102 64.1164L51.1518 64.1164L51.1518 43.2041L58.1102 43.2041L58.1102 64.1164Z" fill="#000000" fill-rule="nonzero" opacity="1" stroke="none" vectornator:layerName="path"/>
<path d="M104.111 51.4584C103.864 51.2215 103.53 51.1054 103.191 51.124C102.852 51.1426 102.536 51.3052 102.318 51.5699C101.765 52.2435 98.9824 55.6948 98.3925 57.2648C96.8131 61.4733 97.7561 65.4123 99.1636 67.6977C101.096 70.8285 107.478 76.8997 109.48 78.7716C108.937 80.3603 107.822 84.0113 108.064 86.6544C108.421 90.5888 111.459 94.8205 111.585 94.997C111.821 95.3268 112.198 95.5033 112.574 95.5033C112.82 95.5033 113.071 95.429 113.289 95.2711C113.837 94.8762 113.958 94.1144 113.563 93.5663C113.536 93.5291 110.79 89.6969 110.493 86.4314C110.237 83.6026 112.021 78.9064 112.04 78.8599C112.221 78.3908 112.096 77.8612 111.729 77.5221C111.645 77.4432 103.316 69.7787 101.24 66.411C100.134 64.618 99.4051 61.5012 100.673 58.1195C100.947 57.3856 102.257 55.5833 103.377 54.148L125.051 74.9116C125.538 75.3761 126.31 75.3621 126.779 74.8744C127.243 74.3867 127.229 73.6156 126.742 73.1464L104.101 51.4584L104.111 51.4584Z" fill="#000000" fill-rule="nonzero" opacity="1" stroke="none" vectornator:layerName="path"/>
<path d="M104.594 100.961C104.561 100.952 101.314 99.8697 99.1171 96.6599C98.7362 96.1025 97.9791 95.9632 97.4217 96.3441C96.8642 96.725 96.7249 97.4868 97.1011 98.0395C99.066 100.91 101.672 102.359 103 102.954L103 115.691C103 116.364 103.549 116.913 104.222 116.913C104.896 116.913 105.444 116.364 105.444 115.691L105.444 101.235L104.594 100.961Z" fill="#000000" fill-rule="nonzero" opacity="1" stroke="none" vectornator:layerName="path"/>
</g>
<path d="M91.9915 60.809L91.9869 60.809L78.4185 60.7487C77.8379 60.7487 77.313 60.4003 77.0807 59.8707C76.4119 58.3378 73.086 50.5108 73.5876 47.0874C73.8292 45.4198 75.8962 42.5538 77.0297 41.0813C76.5605 39.5856 76.0681 37.5138 76.4676 36.334C76.6302 35.8602 77.0436 35.3399 77.7078 34.7872L75.2413 29.5986C75.023 29.1434 75.0555 28.6092 75.3249 28.1865C75.5943 27.7638 76.0588 27.5037 76.5605 27.5037L76.5605 27.5037L93.752 27.5455C94.2305 27.5455 94.681 27.7824 94.9551 28.1772C95.2292 28.572 95.2896 29.0737 95.1223 29.5243L92.4096 36.7706C92.9484 37.486 93.2411 38.1038 93.2875 38.6101C93.3525 39.3533 92.9624 40.431 92.5025 41.4064C93.7799 42.8836 95.9352 45.5917 96.2279 47.329C96.7574 50.4644 93.9332 58.31 93.3618 59.8521C93.1482 60.4281 92.6 60.809 91.9869 60.809L91.9915 60.809ZM79.394 57.8222L90.965 57.8733C92.1495 54.5056 93.6266 49.4843 93.3433 47.8167C93.1993 46.9666 91.3273 44.4443 89.669 42.6188C89.2509 42.159 89.1673 41.4854 89.4599 40.9419C89.8455 40.2173 90.2264 39.344 90.3425 38.926C90.2032 38.6983 89.9152 38.3175 89.655 38.0202C89.2974 37.616 89.1905 37.04 89.381 36.5337L91.6524 30.4719L78.8923 30.4394L80.8758 34.6153C81.187 35.2749 80.9687 36.0599 80.3648 36.4641C79.9328 36.7521 79.4405 37.1469 79.2361 37.3606C79.2129 37.8947 79.5798 39.5112 80.0536 40.8862C80.2208 41.3646 80.1279 41.8895 79.8121 42.2844C78.2978 44.1703 76.6023 46.7158 76.4908 47.5055C76.2214 49.3496 78.0051 54.4685 79.3987 57.8222L79.394 57.8222Z" fill="#000000" fill-rule="nonzero" opacity="1" stroke="none" vectornator:layerName="path"/>
</g>
</g>
</svg>
