<?xml version="1.0" encoding="UTF-8" standalone="no"?>
<!DOCTYPE svg PUBLIC "-//W3C//DTD SVG 1.1//EN" "http://www.w3.org/Graphics/SVG/1.1/DTD/svg11.dtd">
<!-- Created with Vectornator (http://vectornator.io/) -->
<svg height="100%" stroke-miterlimit="10" style="fill-rule:nonzero;clip-rule:evenodd;stroke-linecap:round;stroke-linejoin:round;" version="1.1" viewBox="0 0 200 37.3586" width="100%" xml:space="preserve" xmlns="http://www.w3.org/2000/svg" xmlns:vectornator="http://vectornator.io" xmlns:xlink="http://www.w3.org/1999/xlink">
<defs>
<linearGradient gradientTransform="matrix(0.0349482 0 0 0.0349482 -9.04832 -12.1172)" gradientUnits="userSpaceOnUse" id="LinearGradient" x1="1390.42" x2="5058.36" y1="389.992" y2="936.793">
<stop offset="0" stop-color="#128bbd"/>
<stop offset="0.423907" stop-color="#1d59bd"/>
<stop offset="1" stop-color="#e13ff6"/>
</linearGradient>
</defs>
<g id="Layer" vectornator:layerName="Layer">
<path d="M23.53 0L23.53 28.5527L29.7562 28.5527L29.7562 0L23.53 0ZM175.164 0L175.164 28.5527L181.39 28.5527L181.39 0L175.164 0ZM121.053 0.619239C120.571 0.61924 120.119 0.710991 119.694 0.894456C119.27 1.07792 118.897 1.33024 118.576 1.6513C118.255 1.97237 118.003 2.34538 117.819 2.76965C117.636 3.19391 117.544 3.64666 117.544 4.12826C117.544 4.60985 117.636 5.06261 117.819 5.48687C118.003 5.91113 118.255 6.28415 118.576 6.60522C118.897 6.92628 119.27 7.1786 119.694 7.36206C120.119 7.54553 120.571 7.63728 121.053 7.63728C121.535 7.63728 121.987 7.54553 122.412 7.36206C122.836 7.1786 123.209 6.92628 123.53 6.60522C123.851 6.28415 124.103 5.91114 124.287 5.48687C124.47 5.06261 124.562 4.60986 124.562 4.12826C124.562 3.64666 124.47 3.19391 124.287 2.76965C124.103 2.34538 123.851 1.97237 123.53 1.6513C123.209 1.33024 122.836 1.07792 122.412 0.894456C121.987 0.710989 121.535 0.619239 121.053 0.619239ZM13.6571 1.89267C11.8454 1.89266 10.1141 2.23072 8.46293 2.90726C6.81175 3.58379 5.36064 4.52424 4.11079 5.72823C2.86093 6.93223 1.86367 8.36531 1.11834 10.028C0.373016 11.6906 0 13.5196 0 15.5148C1.06653e-06 17.51 0.379024 19.35 1.13582 21.0356C1.89261 22.7211 2.89588 24.1783 4.14573 25.4052C5.39559 26.6321 6.83959 27.5835 8.47932 28.26C10.119 28.9365 11.8334 29.2746 13.6222 29.2746C14.4936 29.2746 15.3773 29.1889 16.2717 29.0169C17.1661 28.8449 18.1295 28.5756 19.1615 28.2087L19.8484 27.9673L19.8484 19.9871C18.1284 21.8218 16.1907 22.7382 14.035 22.7382C13.0489 22.7382 12.1324 22.5547 11.2839 22.1878C10.4354 21.8208 9.69536 21.3173 9.0647 20.6752C8.43404 20.033 7.94142 19.2761 7.58595 18.4046C7.23049 17.5332 7.0519 16.5807 7.0519 15.5487C7.0519 14.5396 7.23048 13.6003 7.58595 12.7288C7.94142 11.8573 8.42803 11.1053 9.04722 10.4746C9.66642 9.84398 10.4064 9.34535 11.2664 8.97842C12.1264 8.61149 13.0609 8.42798 14.0699 8.42798C16.3633 8.42798 18.289 9.38046 19.8484 11.2839L19.8484 3.2338C18.7476 2.77514 17.6985 2.43708 16.7009 2.21921C15.7033 2.00135 14.6891 1.89267 13.6571 1.89267ZM162.023 10.2518C160.51 10.2518 159.15 10.4752 157.946 10.9224C156.742 11.3696 155.716 12.0059 154.868 12.8315C154.019 13.6571 153.366 14.6603 152.907 15.8414C152.449 17.0224 152.219 18.3468 152.219 19.8146C152.219 21.2364 152.46 22.5209 152.941 23.6676C153.423 24.8143 154.105 25.8006 154.988 26.6262C155.871 27.4518 156.932 28.088 158.17 28.5352C159.409 28.9824 160.773 29.2058 162.264 29.2058C167.125 29.2058 170.164 27.1873 171.38 23.151L165.36 23.151C164.672 24.2518 163.652 24.8023 162.299 24.8023C159.776 24.8023 158.514 23.461 158.514 20.7778L171.621 20.7778L171.621 20.1247C171.621 18.5882 171.402 17.2059 170.967 15.979C170.531 14.7521 169.901 13.7149 169.075 12.8664C168.25 12.0179 167.24 11.3696 166.048 10.9224C164.855 10.4752 163.514 10.2518 162.023 10.2518ZM162.195 14.2764C163.112 14.2763 163.892 14.5396 164.534 15.0671C165.176 15.5945 165.601 16.2947 165.808 17.1661L158.686 17.1661C158.846 16.2488 159.231 15.5377 159.839 15.0332C160.447 14.5287 161.232 14.2764 162.195 14.2764ZM193.774 10.2518C192.581 10.2518 191.498 10.4004 190.524 10.6985C189.549 10.9967 188.717 11.4216 188.029 11.972C187.341 12.5224 186.814 13.1925 186.447 13.9837C186.08 14.7749 185.896 15.6634 185.896 16.6496C185.896 18.0026 186.28 19.0638 187.048 19.832C187.817 20.6003 189.164 21.1797 191.09 21.5696C191.664 21.6843 192.128 21.793 192.484 21.8962C192.839 21.9994 193.109 22.114 193.292 22.2402C193.476 22.3663 193.596 22.5039 193.654 22.653C193.711 22.8021 193.74 22.9905 193.74 23.2198C193.74 23.6097 193.556 23.9308 193.189 24.1831C192.822 24.4354 192.352 24.5621 191.778 24.5621C190.219 24.5621 188.568 23.9657 186.826 22.7731L184.555 27.1766C186.871 28.5297 189.222 29.2058 191.607 29.2058C192.845 29.2058 193.98 29.0512 195.012 28.7416C196.044 28.4321 196.927 27.9962 197.661 27.4344C198.394 26.8725 198.968 26.1784 199.381 25.3528C199.794 24.5272 200 23.5987 200 22.5667C200 21.1907 199.576 20.0608 198.728 19.1778C197.879 18.2949 196.595 17.6816 194.875 17.3376C194.255 17.2 193.757 17.0853 193.378 16.9936C193 16.9019 192.714 16.7992 192.519 16.6845C192.324 16.5698 192.197 16.4491 192.14 16.323C192.083 16.1969 192.054 16.0303 192.054 15.8239C192.054 15.434 192.232 15.1249 192.588 14.8956C192.943 14.6663 193.407 14.5516 193.98 14.5516C195.081 14.5516 196.205 14.8498 197.352 15.446L199.45 11.3866C197.615 10.6298 195.723 10.2518 193.774 10.2518ZM42.1749 10.3545C40.8677 10.3545 39.6749 10.6008 38.597 11.0939C37.5192 11.5869 36.5897 12.2582 35.8099 13.1067C35.0302 13.9552 34.4229 14.9476 33.9872 16.0827C33.5514 17.2179 33.3341 18.4156 33.3341 19.6769C33.3341 21.03 33.5574 22.2796 34.0046 23.4262C34.4518 24.5729 35.0761 25.5712 35.8787 26.4198C36.6814 27.2683 37.6218 27.9275 38.6997 28.3976C39.7776 28.8677 40.9594 29.1031 42.2437 29.1031C44.514 29.1031 46.3141 28.2654 47.6443 26.5912L47.6443 28.5527L53.9044 28.5527L53.9044 10.9049L47.6443 10.9049L47.6443 12.66C46.1995 11.1235 44.3764 10.3545 42.1749 10.3545ZM43.8251 15.7212C44.3755 15.7212 44.8981 15.8239 45.3912 16.0303C45.8843 16.2367 46.3081 16.524 46.6635 16.8909C47.019 17.2578 47.3052 17.6877 47.523 18.1807C47.7409 18.6738 47.8507 19.1954 47.8507 19.7458C47.8507 20.2961 47.7409 20.8128 47.523 21.2944C47.3052 21.776 47.019 22.1998 46.6635 22.5667C46.3081 22.9337 45.8843 23.2198 45.3912 23.4262C44.8981 23.6326 44.3755 23.7364 43.8251 23.7364C43.2518 23.7364 42.7193 23.6326 42.2262 23.4262C41.7331 23.2198 41.3082 22.9337 40.9528 22.5667C40.5973 22.1998 40.3172 21.77 40.1107 21.2769C39.9043 20.7839 39.8006 20.2503 39.8006 19.6769C39.8006 19.1265 39.9043 18.6159 40.1107 18.1458C40.3172 17.6756 40.5973 17.2578 40.9528 16.8909C41.3082 16.524 41.7331 16.2367 42.2262 16.0303C42.7193 15.8239 43.2518 15.7212 43.8251 15.7212ZM105.504 10.3545C103.211 10.3545 101.399 11.1923 100.069 12.8664L100.069 10.9049L93.8426 10.9049L93.8426 37.3586L100.069 37.3586L100.069 26.8326C101.537 28.3462 103.372 29.1031 105.573 29.1031C106.834 29.1031 108.004 28.8617 109.082 28.3801C110.16 27.8986 111.094 27.2334 111.886 26.3848C112.677 25.5363 113.296 24.55 113.743 23.4262C114.191 22.3025 114.414 21.0879 114.414 19.7807C114.414 18.4735 114.191 17.2458 113.743 16.0991C113.296 14.9525 112.671 13.9552 111.868 13.1067C111.066 12.2582 110.119 11.5869 109.03 11.0939C107.94 10.6008 106.766 10.3545 105.504 10.3545ZM103.888 15.7212C104.461 15.7212 104.994 15.8299 105.487 16.0478C105.98 16.2657 106.41 16.5578 106.777 16.9248C107.144 17.2917 107.425 17.7215 107.62 18.2146C107.815 18.7076 107.912 19.2303 107.912 19.7807C107.912 20.3082 107.804 20.8128 107.586 21.2944C107.368 21.776 107.081 22.1998 106.725 22.5667C106.37 22.9337 105.951 23.2198 105.469 23.4262C104.988 23.6326 104.472 23.7364 103.922 23.7364C103.371 23.7364 102.85 23.6277 102.357 23.4099C101.864 23.192 101.434 22.9047 101.067 22.5493C100.7 22.1938 100.413 21.776 100.206 21.2944C100 20.8128 99.8973 20.2962 99.8973 19.7458C99.8974 19.1953 100.006 18.6738 100.224 18.1807C100.442 17.6877 100.728 17.2578 101.083 16.8909C101.439 16.524 101.858 16.2367 102.339 16.0303C102.821 15.8239 103.338 15.7212 103.888 15.7212ZM56.3475 10.9049L64.8781 26.1446L58.8583 37.3586L65.8414 37.3586L80.014 10.9049L72.8594 10.9049L68.2834 19.9522L63.5708 10.9049L56.3475 10.9049ZM117.957 10.9049L117.957 28.5527L124.183 28.5527L124.183 10.9049L117.957 10.9049ZM127.967 10.9049L135.123 18.9889L126.316 28.5527L134.538 28.5527L139.079 23.3236L143.585 28.5527L151.84 28.5527L143.001 18.9889L150.328 10.9049L142.209 10.9049L139.113 14.5516L136.085 10.9049L127.967 10.9049Z" fill="url(#LinearGradient)" fill-rule="nonzero" opacity="1" stroke="none" vectornator:layerName="path"/>
</g>
</svg>
