<?xml version="1.0" encoding="UTF-8"?>
<!DOCTYPE svg PUBLIC "-//W3C//DTD SVG 1.0//EN" "http://www.w3.org/TR/2001/REC-SVG-20010904/DTD/svg10.dtd">
<!-- Creator: CorelDRAW X7 -->
<svg xmlns="http://www.w3.org/2000/svg" xml:space="preserve" width="350mm" height="150mm" version="1.0" style="shape-rendering:geometricPrecision; text-rendering:geometricPrecision; image-rendering:optimizeQuality; fill-rule:evenodd; clip-rule:evenodd"
viewBox="0 0 35000 15000"
 xmlns:xlink="http://www.w3.org/1999/xlink">
 <defs>
  <style type="text/css">
   <![CDATA[
    .fil0 {fill:black}
    .fil1 {fill:black;fill-rule:nonzero}
   ]]>
  </style>
 </defs>
 <g id="Layer_x0020_1">
  <metadata id="CorelCorpID_0Corel-Layer"/>
  <g id="_1776090584768">
   <path class="fil0" d="M18100 7032l0 -1957 0 -59 60 0 293 0 59 0 0 59 0 239 10 -13c24,-31 51,-62 81,-92 31,-31 67,-60 106,-86 39,-26 82,-51 128,-72 48,-22 101,-39 157,-50l0 0c56,-11 116,-16 179,-16l20 0 59 0 0 59 0 293 0 60 -59 0 -35 0c-133,0 -247,35 -342,107l-1 0c-48,36 -91,79 -128,126 -38,48 -70,101 -96,160l0 0c-26,59 -46,120 -59,184 -13,63 -20,129 -20,197l0 861 0 59 -59 0 -293 0 -60 0 0 -59zm12933 -294c68,0 130,-8 186,-23l0 0c55,-15 105,-38 150,-69 46,-31 86,-67 121,-107 34,-41 64,-88 88,-140l0 0c24,-53 42,-108 54,-165l0 0c12,-58 18,-118 18,-180 0,-65 -6,-126 -18,-183 -12,-58 -30,-112 -54,-164 -24,-52 -53,-98 -88,-139 -35,-40 -75,-76 -121,-107 -90,-61 -202,-92 -336,-92 -133,0 -246,31 -340,92 -48,31 -90,67 -126,108 -36,41 -67,87 -92,139l0 0c-25,51 -44,106 -57,164 -13,57 -19,117 -19,182 0,62 6,122 19,179 13,57 32,112 57,165 25,52 56,98 92,140 36,41 78,77 126,108 47,30 99,54 154,69 57,15 118,23 186,23zm-40 384c-100,0 -194,-12 -283,-35 -88,-24 -171,-61 -247,-109 -76,-48 -143,-104 -202,-169 -59,-66 -109,-139 -150,-220 -41,-81 -72,-166 -93,-256 -21,-89 -31,-183 -31,-279 0,-197 41,-377 124,-538 42,-81 92,-154 150,-218 59,-65 126,-121 202,-169 76,-48 159,-85 247,-108 89,-24 183,-36 283,-36 85,0 165,8 239,25 75,17 144,42 206,76 62,33 118,73 169,118 10,9 19,17 28,26l0 -155 0 -59 59 0 293 0 60 0 0 59 0 1957 0 59 -60 0 -293 0 -59 0 0 -59 0 -153c-9,8 -18,17 -28,25 -51,45 -107,84 -169,117 -62,34 -131,60 -206,76 -74,17 -154,25 -239,25zm-3065 -90l0 -1957 0 -59 59 0 293 0 60 0 0 59 0 149c50,-49 106,-93 167,-132 56,-36 120,-63 192,-81l0 0c70,-17 147,-26 231,-26 72,0 143,8 211,25 69,18 135,43 199,78 64,34 122,77 174,129 52,51 98,111 138,179 80,136 120,301 120,497l0 1139 0 59 -59 0 -294 0 -59 0 0 -59 0 -1131c0,-82 -12,-156 -35,-221 -22,-63 -56,-119 -101,-167 -46,-48 -97,-84 -155,-108 -58,-24 -124,-36 -198,-36 -50,0 -97,6 -142,17l0 0c-45,11 -87,28 -126,50 -40,22 -76,49 -108,80 -31,31 -59,67 -84,108 -24,40 -42,84 -53,130 -12,46 -18,96 -18,151l0 1127 0 59 -60 0 -293 0 -59 0 0 -59zm-1265 -294c68,0 131,-8 187,-23 55,-15 105,-38 150,-69 46,-31 86,-67 120,-107 35,-41 64,-88 88,-140l0 0c24,-53 43,-108 55,-165l0 0c12,-58 18,-118 18,-180 0,-65 -6,-126 -18,-183 -12,-58 -31,-112 -55,-164 -23,-52 -53,-98 -88,-139 -34,-40 -74,-76 -120,-107 -45,-31 -95,-54 -150,-69 -56,-15 -119,-23 -187,-23 -131,0 -243,31 -335,92l0 0c-46,31 -87,67 -122,108 -35,40 -64,86 -88,138l0 0c-24,52 -43,107 -54,164 -13,57 -19,118 -19,183 0,62 6,123 19,180 12,57 30,112 54,165 24,51 53,98 88,139 35,41 76,78 122,108l0 0c46,31 96,54 151,69 56,15 117,23 184,23zm0 384c-104,0 -201,-12 -293,-35 -91,-24 -176,-61 -254,-109 -156,-95 -276,-225 -359,-389 -41,-81 -72,-166 -93,-256 -20,-89 -31,-183 -31,-279 0,-197 42,-377 124,-538 84,-162 203,-292 359,-387 155,-96 338,-144 547,-144 212,0 395,48 550,144 154,95 273,224 356,387 41,81 72,166 93,256 21,89 31,183 31,282 0,96 -10,190 -31,279 -21,90 -52,175 -93,256 -83,164 -202,294 -356,389 -77,48 -162,85 -255,109 -91,23 -190,35 -295,35zm-2048 0c-94,0 -180,-7 -260,-23 -81,-16 -155,-40 -222,-73 -66,-32 -125,-69 -176,-112l0 0c-52,-43 -95,-91 -131,-145 -35,-53 -63,-109 -83,-166 -20,-58 -32,-119 -36,-182l-5 -63 64 0 305 0 52 0 7 53c3,28 10,56 19,83l0 0c11,28 24,55 41,82 15,26 35,49 60,70 25,21 55,40 89,57 35,16 75,29 120,38 47,8 100,13 160,13 18,0 39,-1 61,-3 24,-2 50,-5 76,-8 26,-4 52,-9 77,-16 26,-6 51,-14 76,-24l-1 0c23,-9 43,-20 62,-33l0 1c19,-13 35,-28 51,-46 13,-15 23,-32 29,-51 7,-21 11,-44 11,-70 0,-32 -6,-59 -18,-82l0 0c-11,-22 -28,-41 -51,-58l0 0c-28,-20 -60,-38 -97,-53 -37,-16 -79,-30 -126,-42 -50,-12 -101,-24 -152,-36 -51,-12 -105,-24 -161,-35 -56,-12 -111,-26 -166,-42 -56,-16 -108,-34 -158,-53 -53,-20 -102,-45 -146,-74 -45,-30 -84,-64 -119,-102 -37,-41 -65,-89 -83,-144l0 0c-18,-54 -27,-114 -27,-179 0,-98 18,-185 55,-262 36,-78 90,-144 163,-199 71,-53 158,-93 261,-120l0 0c101,-25 217,-38 348,-38 89,0 171,7 245,21 75,14 143,36 201,65 59,29 110,62 155,99 45,38 84,80 115,127 31,46 55,93 73,142 19,50 31,101 36,154l7 66 -65 0 -298 0 -52 0 -6 -52c-5,-34 -15,-66 -32,-94 -17,-30 -41,-58 -71,-83 -29,-25 -69,-43 -119,-56 -54,-14 -120,-20 -197,-20 -145,0 -251,20 -319,61l0 0c-58,36 -88,89 -88,161 0,57 23,101 68,131l0 0c56,38 131,68 224,92l0 0c51,12 102,24 152,36 47,10 101,21 160,33 56,11 112,25 167,41 56,17 109,35 158,54l0 0c54,21 103,47 147,77 44,31 84,66 119,106 36,42 64,91 82,147 18,55 27,116 27,183 0,211 -82,373 -243,485 -78,54 -169,95 -273,122 -102,26 -216,39 -342,39zm-3012 -90l0 -1957 0 -59 60 0 293 0 59 0 0 59 0 149c51,-49 107,-93 168,-132 56,-36 120,-63 191,-81l0 0c70,-17 148,-26 232,-26 72,0 143,8 211,25 69,18 135,43 198,78 64,34 123,77 175,129 52,51 98,111 138,179 80,136 120,301 120,497l0 1139 0 59 -59 0 -294 0 -59 0 0 -59 0 -1131c0,-82 -12,-156 -35,-221 -22,-63 -56,-119 -102,-167 -45,-48 -96,-84 -154,-108 -59,-24 -125,-36 -198,-36 -50,0 -97,6 -142,17l0 0c-45,11 -87,28 -127,50 -39,22 -75,49 -107,80 -31,31 -60,67 -84,108 -24,40 -42,84 -54,130 -12,46 -18,96 -18,151l0 1127 0 59 -59 0 -293 0 -60 0 0 -59zm-827 0l0 -1957 0 -59 59 0 294 0 59 0 0 59 0 1957 0 59 -59 0 -294 0 -59 0 0 -59zm-11 -2286l0 -383 0 -59 59 0 317 0 59 0 0 59 0 383 0 60 -59 0 -317 0 -59 0 0 -60zm-1078 2286l0 -1639 -340 0 -59 0 0 -60 0 -258 0 -59 59 0 340 0 0 -641 0 -60 59 0 294 0 59 0 0 60 0 641 391 0 59 0 0 59 0 258 0 60 -59 0 -391 0 0 1639 0 59 -59 0 -294 0 -59 0 0 -59z"/>
   <path class="fil0" d="M16671 6738c68,0 130,-8 186,-23l1 0c55,-15 105,-38 150,-69 46,-31 86,-67 120,-107 35,-41 64,-88 88,-140l0 0c24,-53 43,-108 55,-165l0 0c12,-58 18,-118 18,-180 0,-65 -6,-126 -18,-183 -12,-58 -31,-112 -55,-164 -23,-52 -53,-98 -88,-139 -34,-40 -74,-76 -120,-107 -90,-61 -203,-92 -337,-92 -132,0 -245,31 -339,92 -48,31 -90,67 -126,108 -36,41 -67,87 -92,139l0 0c-26,51 -45,106 -57,164 -13,57 -19,117 -19,182 0,62 6,122 19,179 12,57 31,112 57,165 25,52 56,98 92,140 36,41 78,77 126,108 47,30 98,54 154,69 56,15 118,23 185,23zm-39 384c-100,0 -195,-12 -283,-35 -89,-24 -171,-61 -247,-109 -76,-48 -143,-104 -202,-169 -59,-66 -109,-139 -150,-220 -42,-81 -73,-166 -93,-256 -21,-89 -31,-183 -31,-279 0,-197 41,-377 124,-538 41,-81 92,-154 150,-218 59,-65 126,-121 202,-169 76,-48 158,-85 247,-108 88,-24 183,-36 283,-36 85,0 164,8 238,25 75,17 144,42 207,76 62,33 118,73 169,118 9,9 18,17 27,26l0 -155 0 -59 59 0 294 0 59 0 0 59 0 1957 0 59 -59 0 -294 0 -59 0 0 -59 0 -153c-9,8 -18,17 -27,25 -51,45 -108,84 -169,117 -63,34 -132,60 -207,76 -74,17 -153,25 -238,25z"/>
   <polygon class="fil1" points="12630,7032 12630,4441 12630,4382 12690,4382 13030,4382 13060,4382 13077,4406 13957,5571 14822,4406 14840,4382 14869,4382 15210,4382 15269,4382 15269,4441 15269,7032 15269,7091 15210,7091 14916,7091 14857,7091 14857,7032 14857,5060 14004,6156 13958,6216 13911,6157 13042,5057 13042,7032 13042,7091 12983,7091 12690,7091 12630,7091 "/>
   <path class="fil0" d="M12568 10561l0 -1957 0 -59 59 0 294 0 59 0 0 59 0 126c34,-34 73,-67 117,-99 54,-40 117,-69 188,-89 69,-19 146,-28 230,-28 71,0 139,9 205,28 66,19 129,47 189,84 59,38 113,83 161,136l0 0c26,29 50,61 72,95 22,-28 47,-57 75,-89l0 0c31,-34 66,-66 106,-96 40,-29 84,-56 132,-81 50,-26 106,-46 165,-58 59,-13 123,-19 191,-19 67,0 133,9 198,26 63,18 124,45 184,80l0 0c60,35 114,78 162,129 48,50 90,107 127,172 38,66 66,137 84,214 19,76 28,158 28,244l0 1182 0 59 -59 0 -294 0 -59 0 0 -59 0 -1174c0,-149 -41,-268 -123,-357 -41,-44 -86,-77 -136,-99 -50,-22 -106,-33 -167,-33 -64,0 -124,11 -179,32l0 0c-55,22 -106,54 -153,97 -45,42 -79,93 -102,152 -23,61 -35,131 -35,212l0 1170 0 59 -59 0 -294 0 -59 0 0 -59 0 -1174c0,-76 -11,-144 -31,-203 -21,-59 -51,-110 -92,-154 -41,-44 -86,-77 -136,-99 -50,-22 -106,-33 -167,-33 -65,0 -125,11 -179,32 -55,22 -106,54 -153,97 -45,42 -79,93 -102,152 -23,61 -35,131 -35,212l0 1170 0 59 -59 0 -294 0 -59 0 0 -59zm7526 -294c68,0 131,-8 187,-23l0 0c55,-15 105,-38 150,-69 46,-31 86,-67 121,-107 34,-41 64,-88 88,-140l0 0c24,-53 42,-108 54,-165l0 0c12,-58 18,-118 18,-180 0,-65 -6,-126 -18,-183 -12,-58 -30,-112 -54,-164 -24,-52 -54,-98 -88,-139 -35,-40 -75,-76 -121,-107 -90,-61 -203,-92 -337,-92 -132,0 -245,31 -339,92 -48,31 -90,67 -126,108 -36,41 -67,87 -92,139l0 0c-25,51 -44,106 -57,164 -13,57 -19,117 -19,182 0,62 6,122 19,179 13,57 32,112 57,165 25,52 56,98 92,140 36,41 78,77 126,108 47,30 99,54 154,69 57,15 118,23 185,23zm-39 384c-100,0 -194,-12 -283,-35 -88,-24 -171,-61 -247,-109 -76,-48 -143,-104 -202,-169 -59,-66 -109,-139 -150,-220 -41,-81 -72,-166 -93,-256 -21,-90 -31,-183 -31,-279 0,-197 41,-377 124,-538 42,-81 92,-154 150,-218 59,-65 126,-121 202,-169 76,-48 159,-85 247,-109 89,-23 183,-35 283,-35 85,0 165,8 239,25 75,17 143,42 206,76 62,33 118,73 169,118 10,9 19,17 28,26l0 -155 0 -59 59 0 293 0 59 0 0 59 0 1957 0 59 -59 0 -293 0 -59 0 0 -59 0 -153c-9,8 -19,17 -28,25 -51,45 -107,84 -169,117 -63,34 -131,60 -206,76 -74,17 -154,25 -239,25zm-1712 685l0 -2732 0 -59 59 0 294 0 59 0 0 59 0 2732 0 59 -59 0 -294 0 -59 0 0 -59zm-12 -3061l0 -383 0 -59 60 0 317 0 59 0 0 59 0 383 0 60 -59 0 -317 0 -60 0 0 -60zm-1946 0l0 -234 0 -60 59 0 1033 0 60 0 0 60 0 234 0 60 -60 0 -1033 0 -59 0 0 -60zm529 1992c68,0 130,-8 186,-23l0 0c55,-15 105,-38 150,-69 46,-31 87,-67 121,-107 34,-41 64,-88 88,-140l0 0c24,-53 42,-108 54,-165l0 0c13,-58 19,-118 19,-180 0,-65 -6,-126 -19,-183 -12,-58 -30,-112 -54,-164 -24,-52 -53,-98 -88,-139 -34,-40 -75,-76 -121,-107 -90,-61 -202,-92 -336,-92 -132,0 -246,31 -340,92 -48,31 -90,67 -126,108 -36,41 -66,87 -92,139l0 0c-25,51 -44,106 -57,164 -12,57 -19,117 -19,182 0,62 7,122 19,179 13,57 32,112 57,165 25,52 56,98 92,140 37,41 78,77 126,108 47,30 99,54 155,69 56,15 118,23 185,23zm-39 384c-101,0 -195,-12 -283,-35 -89,-24 -172,-61 -248,-109 -75,-48 -143,-104 -201,-169 -59,-66 -110,-139 -151,-220 -41,-81 -72,-166 -93,-256 -20,-90 -31,-183 -31,-279 0,-197 42,-377 124,-538 42,-81 92,-154 151,-218 58,-65 125,-121 201,-169 76,-48 159,-85 248,-109 88,-23 182,-35 283,-35 84,0 164,8 238,25 75,17 144,42 206,76 62,33 119,73 170,118 9,9 18,17 27,26l0 -155 0 -59 59 0 294 0 59 0 0 59 0 1957 0 59 -59 0 -294 0 -59 0 0 -59 0 -153c-9,8 -18,17 -27,25 -51,45 -108,84 -170,117 -62,34 -131,60 -206,76 -74,17 -154,25 -238,25z"/>
   <path class="fil0" d="M7521 4444l112 -178 -20 10 0 0c-78,38 -153,75 -231,126 -42,28 -88,55 -136,82 -81,47 -164,95 -228,152 -62,55 -291,163 -461,243 -101,49 -181,87 -187,93l0 0c-36,46 -121,81 -207,118 -61,25 -123,51 -166,80 -19,13 -50,26 -87,41 -69,29 -156,65 -208,120 -21,22 -97,65 -183,108 -78,40 -165,80 -223,104l-108 170c35,-16 73,-35 110,-54 76,-39 143,-77 159,-94 60,-64 154,-103 228,-134 34,-14 63,-26 77,-36 49,-32 113,-59 176,-86 79,-33 157,-65 184,-99l0 0c14,-18 99,-58 208,-109 166,-79 391,-186 447,-235 68,-61 154,-110 238,-158 46,-27 91,-53 132,-80 82,-55 158,-92 238,-131l1 0 37 -18c21,-10 42,-17 61,-23l0 0c15,-4 28,-9 37,-12zm-207 327l126 -199 -14 7 0 0c-79,38 -153,74 -228,124 -42,29 -90,56 -138,84 -79,46 -161,93 -223,147 -65,58 -297,168 -468,249 -98,46 -175,83 -175,84l0 0c-42,52 -131,89 -220,127 -60,25 -121,50 -161,77 -22,15 -55,29 -93,44 -66,28 -150,63 -196,112 -24,26 -101,70 -184,113 -89,46 -188,92 -240,111l-130 205c20,-10 41,-19 62,-30 44,-22 103,-53 150,-80 34,-19 60,-35 66,-41l0 0c60,-62 150,-101 222,-133 34,-15 64,-28 80,-39l0 0c43,-29 108,-57 175,-86 81,-36 165,-72 189,-101l3 -3 3 -3c10,-7 59,-34 121,-67 53,-27 118,-60 180,-90l0 0c33,-17 70,-36 107,-55 109,-56 223,-114 255,-139l0 0c62,-51 145,-99 224,-145 46,-27 90,-52 126,-76l0 0c71,-44 123,-73 182,-104 27,-15 54,-30 80,-43l0 0c25,-15 50,-23 73,-31 21,-7 39,-13 46,-19zm-214 340l129 -205c-28,15 -50,27 -71,38 -57,31 -108,58 -176,101l0 0c-41,26 -84,52 -129,78 -76,43 -155,89 -212,137l-1 0c-39,32 -157,92 -270,149 -37,19 -74,38 -107,55l-1 1c-58,27 -123,61 -178,89 -54,28 -94,50 -104,56 -41,43 -131,82 -219,121 -62,26 -123,53 -160,78l0 -1c-23,16 -56,31 -95,48 -64,28 -145,63 -192,112 -13,14 -46,35 -87,58 -48,28 -109,60 -155,82l0 1c-42,20 -87,41 -127,59 -24,11 -46,20 -62,26l-143 224c15,-7 30,-14 45,-21l0 0c39,-19 111,-57 168,-89 38,-21 68,-38 74,-44l0 0c60,-60 145,-99 215,-131 35,-16 66,-30 83,-43l1 0c38,-26 106,-56 175,-87 84,-38 171,-77 193,-101l5 -6 7 -3 19 -11c51,-29 180,-104 272,-149 57,-32 138,-74 212,-112 78,-39 147,-75 169,-90l0 0c57,-43 135,-89 208,-132 45,-26 87,-50 120,-71l1 -1c34,-20 66,-38 95,-55 47,-27 86,-49 152,-90l0 0c29,-19 59,-30 86,-39 30,-11 54,-20 57,-33l3 1zm-233 369l141 -224 -5 3 0 0c-63,39 -105,63 -156,92 -24,14 -51,30 -92,54l0 0c-37,23 -79,48 -123,73 -72,43 -148,87 -200,126l-1 2c-26,17 -99,55 -180,96 -75,38 -155,80 -210,111l-3 2c-85,41 -216,117 -268,146l-15 9c-39,36 -129,77 -217,116 -65,29 -128,57 -159,78l0 1c-24,17 -59,33 -100,51 -62,29 -139,64 -188,113 -12,12 -49,35 -93,59 -59,33 -133,71 -173,91l0 0c-38,18 -77,36 -109,51 -25,11 -47,20 -64,27l-155 245 28 -13 0 0c33,-16 118,-60 186,-97 42,-23 76,-42 80,-47l1 0c60,-58 141,-97 208,-129 36,-17 69,-33 87,-46l1 -2c34,-23 105,-56 179,-90 86,-39 175,-80 193,-99l7 -6 9 -4c5,-2 40,-23 83,-49 65,-39 149,-89 200,-115 68,-43 202,-110 299,-158 47,-24 85,-43 100,-52 48,-32 121,-75 189,-115 44,-26 85,-50 118,-71l2 -1c108,-60 129,-74 222,-136l13 -8 0 0c33,-23 67,-36 97,-47 31,-12 57,-22 63,-39l5 2zm-249 394l156 -247c-7,3 -14,8 -21,12l-1 1 -12 8c-93,62 -115,76 -227,138l0 0c-31,20 -75,46 -120,72 -66,39 -137,81 -184,113l-3 2c-15,9 -56,29 -108,55 -96,48 -229,115 -292,156l-3 2 -1 0c-50,25 -133,75 -196,113 -39,23 -71,42 -88,51 -36,30 -126,71 -213,111 -70,33 -139,64 -165,82l0 0c-25,19 -61,36 -101,55 -61,30 -134,65 -184,113l0 0c-12,11 -52,35 -100,61 -70,38 -157,84 -190,100l-2 0c-8,4 -33,15 -58,26 -36,17 -71,33 -97,43l-171 270 14 -6 0 0c28,-13 124,-63 201,-104 47,-26 85,-47 89,-50l0 -1c60,-55 137,-94 201,-126 38,-19 71,-36 91,-51l2 -2c29,-20 110,-58 191,-97 85,-40 171,-81 186,-94l8 -6 10 -3c6,-2 61,-37 120,-74 57,-36 118,-75 153,-94 83,-60 340,-181 411,-215l12 -6c34,-20 95,-56 166,-98 51,-30 95,-56 117,-69l2 -2c94,-49 112,-62 165,-101 14,-11 31,-23 56,-41l0 0c39,-28 76,-43 110,-56l0 0c33,-13 61,-24 70,-43l6 2zm-267 423l174 -275c-13,6 -26,14 -39,23l0 0c-21,15 -40,29 -56,41 -57,42 -76,56 -176,108l0 0c-37,22 -77,47 -116,69 -51,30 -120,71 -168,99l-4 2 -13 7c-70,33 -324,153 -397,207l-3 2 -4 2c-29,15 -92,55 -151,92 -55,35 -107,68 -133,80 -31,23 -116,63 -200,103 -76,36 -152,72 -176,88l0 0c-26,20 -63,39 -106,60 -59,30 -129,65 -179,112l0 0c-12,11 -56,36 -109,64 -78,42 -179,94 -206,107l-3 2c-28,11 -59,25 -86,38 -19,8 -36,16 -51,22l-190 299c25,-12 130,-66 215,-111 53,-28 96,-51 99,-54l0 -1c59,-53 132,-91 194,-124 39,-20 74,-39 94,-55l2 -1c26,-19 132,-70 228,-116 76,-37 145,-71 157,-79l8 -5 9 -2c8,-2 88,-55 158,-102 45,-30 87,-58 109,-71 30,-25 93,-61 164,-98 114,-59 248,-120 279,-132 43,-20 127,-70 192,-109 26,-16 49,-29 68,-41l3 -1c89,-45 101,-55 139,-86l-1 0c16,-13 37,-30 70,-55l0 0c43,-34 85,-50 122,-65 34,-14 63,-25 76,-47l7 3zm-288 456l195 -309c-19,9 -38,20 -56,34l0 0c-30,23 -51,40 -67,54l-1 0c-42,35 -57,47 -154,96 -14,8 -39,23 -66,39 -68,41 -156,94 -202,115l-2 1 -2 0c-25,9 -157,70 -270,128 -68,35 -128,69 -149,89l-4 4 -5 2c-17,9 -59,38 -107,69 -68,46 -144,97 -179,112 -24,14 -91,47 -163,82 -91,44 -191,92 -213,107 -28,22 -66,41 -108,64 -58,30 -125,65 -176,111l0 0c-11,10 -60,37 -117,68 -88,47 -203,105 -222,114l-4 2c-29,10 -64,26 -93,40l-26 12 -210 331c39,-20 133,-68 212,-110 59,-30 107,-56 110,-59l1 0c59,-52 127,-89 186,-122 41,-22 77,-42 99,-60l1 -1c13,-10 69,-39 136,-72 107,-54 242,-119 260,-127l6 -2 6 -1c13,-2 136,-90 209,-142 22,-16 39,-28 50,-35 27,-28 98,-68 176,-109 117,-60 258,-122 291,-132l0 0c32,-9 108,-56 167,-91 29,-18 55,-34 70,-42l2 -1c86,-41 95,-49 120,-73 15,-15 36,-35 76,-67l0 0c48,-39 93,-57 133,-73 36,-15 66,-27 83,-51l7 5zm-311 493l219 -347c-24,11 -49,24 -74,44l0 0c-37,30 -56,48 -70,62 -33,32 -44,42 -142,89 -15,8 -39,22 -66,39 -64,38 -146,88 -188,101l-3 0c-21,5 -156,65 -272,125 -74,39 -139,75 -154,93l-4 5 -7 4c-4,3 -24,17 -50,36 -72,51 -190,135 -238,154l1 0c-18,7 -152,72 -257,124 -61,31 -112,57 -121,64l0 0c-29,23 -68,44 -111,68 -55,31 -119,66 -170,110l0 0c-9,9 -64,38 -128,72 -99,52 -226,116 -238,121l-2 1 -2 1c-25,8 -59,24 -89,38l-12 5 -234 370c42,-22 130,-67 207,-107 67,-35 123,-64 126,-67l0 0c58,-49 122,-86 178,-118 42,-24 80,-46 103,-66 12,-9 130,-72 236,-124 84,-42 163,-78 179,-80 4,0 36,-21 75,-48 77,-54 169,-122 170,-124 19,-30 101,-79 193,-127 128,-65 283,-131 309,-133 21,-2 91,-45 144,-78 29,-17 53,-32 67,-38 84,-39 89,-44 105,-62 13,-16 32,-38 78,-77 53,-45 102,-65 146,-83 37,-15 69,-28 88,-53l8 6zm-2628 1719l2388 -1340 148 -234c-29,12 -60,29 -91,55 -41,35 -57,53 -68,66 -27,30 -34,39 -136,86 -10,4 -31,18 -57,33 -61,38 -143,88 -184,91 -19,1 -156,63 -276,124 -79,40 -147,78 -156,93 -3,5 -111,92 -196,151 -50,35 -97,63 -119,65 -4,0 -71,33 -147,70 -100,50 -210,106 -217,112 -30,26 -71,49 -116,75 -54,31 -114,65 -165,108l0 0c-10,9 -72,42 -143,79 -110,57 -250,127 -256,128l0 0c-17,3 -47,18 -75,32l0 0 -4 2 -130 204zm4178 -333l572 321c18,-35 34,-58 54,-87 26,-38 58,-85 111,-183 349,-655 1281,-2047 1859,-2911 196,-292 350,-523 430,-647 20,-32 39,-62 54,-89l0 0 7 -10 -88 -52c-171,-100 -371,-219 -449,-266 -29,22 -105,143 -170,245 -41,67 -79,127 -104,156 -117,135 -265,379 -407,613 -114,189 -225,371 -314,489 -44,58 -77,96 -105,130l0 0c-56,67 -94,112 -171,251 -58,104 -370,606 -674,1090 -260,415 -516,817 -605,950zm-404 -226l325 182c73,-109 337,-525 606,-954 304,-484 615,-984 672,-1087 82,-146 122,-194 181,-264l0 0c28,-33 60,-71 102,-127 87,-114 196,-295 309,-481 145,-239 295,-487 416,-626 21,-24 57,-81 96,-144 56,-90 120,-192 177,-248 -77,-57 -185,-94 -283,-127 -67,-23 -130,-44 -180,-71 -37,70 -86,139 -133,206 -36,51 -71,101 -99,150 -112,191 -324,547 -520,860 -131,210 -254,400 -334,506 -38,50 -107,189 -176,325 -76,151 -152,300 -190,338l0 0c-5,5 2,1 -3,8 -25,47 -90,163 -123,197 -55,57 -337,524 -566,903 -119,198 -224,372 -277,454zm-520 -291l440 246c49,-75 156,-253 278,-456 232,-383 517,-855 580,-919 24,-25 84,-134 108,-178 8,-14 14,-24 19,-29 27,-27 99,-170 172,-315 71,-139 142,-280 185,-337 77,-103 199,-291 330,-500 193,-310 406,-667 518,-858 29,-51 66,-103 104,-157 47,-68 97,-138 132,-207 -7,-7 -13,-15 -18,-23 -41,-64 -199,-129 -310,-175 -39,-16 -72,-30 -95,-41l-2 -1c-97,168 -256,412 -425,671l0 0 -8 12 0 0c-10,15 -68,113 -152,254 -143,240 -361,605 -546,908 -88,144 -205,351 -331,572 -260,456 -556,978 -716,1167 -4,4 -75,112 -145,218 -44,68 -94,119 -118,148zm-788 -442l728 408c27,-47 64,-106 102,-164 72,-109 146,-221 152,-227 154,-183 448,-700 705,-1153 127,-222 245,-430 333,-574 188,-307 404,-670 546,-908 84,-142 143,-240 154,-257l0 0 8 -12 0 0c168,-257 326,-499 422,-666 -146,-86 -423,-258 -580,-356 -31,-19 -55,-35 -73,-46l-2 3 -465 737c-4,26 -17,43 -35,55l-180 286c-5,15 -13,27 -24,37l-1791 2837zm4269 409l-112 178c-6,14 -12,28 -18,43 -51,122 -107,258 -202,343l0 0 0 0c-2,2 -327,519 -669,1058 -358,567 -729,1152 -743,1176 -9,14 -24,22 -39,22l0 1 0 -1 -1 0 0 0c-36,1 -370,6 -713,11 -340,5 -690,9 -779,10 -7,1 -15,1 -22,0 -106,-27 -484,-4 -850,19 -377,23 -742,46 -816,8 -90,-46 -761,-11 -926,-2l-27 2 0 0 0 0c-95,4 -562,-13 -799,-21 -79,-3 -127,-6 -129,-6 -25,4 -48,-12 -53,-37 0,-4 0,-7 0,-10l-7 -1796c-1,-9 1,-19 7,-28l2541 -4005 0 0c4,-6 10,-12 17,-16l2476 -1387 58 -33 0 0c14,-8 32,-8 47,1 3,2 6,4 8,7l4 -2 -3 3c3,3 5,6 7,9 22,14 54,33 92,57 196,122 576,359 654,398 21,11 52,24 89,39 121,50 296,122 352,210 27,42 121,74 225,110 125,43 264,90 355,180l0 0 464 272c132,78 246,145 272,159 19,3 35,18 38,38 1,5 -1,60 -4,143 -8,228 -24,680 -19,770 1,28 5,64 8,105 10,105 23,242 16,343 -3,45 -5,85 -8,126 -6,93 -11,189 -19,278 2,9 2,20 -3,29 -2,6 -42,67 -99,154 -132,202 -357,548 -400,621 -11,18 -26,49 -44,86 -56,115 -137,280 -226,335zm-1777 988l2484 -3928 0 -13c-19,-11 -54,-31 -99,-57l-6 10 0 0c-14,26 -34,57 -57,92 -76,120 -233,354 -430,648 -577,863 -1508,2253 -1855,2903 -55,104 -89,153 -116,193 -18,26 -33,48 -49,80l128 71 0 1z"/>
  </g>
 </g>
</svg>
