<?xml version="1.0" encoding="UTF-8"?>
<!DOCTYPE svg PUBLIC "-//W3C//DTD SVG 1.0//EN" "http://www.w3.org/TR/2001/REC-SVG-20010904/DTD/svg10.dtd">
<!-- Creator: CorelDRAW X7 -->
<svg xmlns="http://www.w3.org/2000/svg" xml:space="preserve" width="250mm" height="150mm" version="1.0" style="shape-rendering:geometricPrecision; text-rendering:geometricPrecision; image-rendering:optimizeQuality; fill-rule:evenodd; clip-rule:evenodd"
viewBox="0 0 25000 15000"
 xmlns:xlink="http://www.w3.org/1999/xlink">
 <defs>
  <style type="text/css">
   <![CDATA[
    .fil0 {fill:black}
   ]]>
  </style>
 </defs>
 <g id="Layer_x0020_1">
  <metadata id="CorelCorpID_0Corel-Layer"/>
  <g id="_1776090687696">
   <g id="_1785322777136">
    <g>
     <rect class="fil0" x="3024" y="3790" width="4750" height="2782"/>
     <rect class="fil0" x="3024" y="6917" width="4750" height="3928"/>
    </g>
    <polygon class="fil0" points="19533,11151 19533,8434 19533,8375 19591,8375 19883,8375 19942,8375 19942,8434 19942,11151 19942,11210 19883,11210 19591,11210 19533,11210 "/>
    <polygon class="fil0" points="19521,8107 19521,7725 19521,7667 19580,7667 19895,7667 19954,7667 19954,7725 19954,8107 19954,8166 19895,8166 19580,8166 19521,8166 "/>
    <path class="fil0" d="M18263 10470c-103,0 -201,-11 -293,-35 -91,-24 -177,-60 -256,-108 -78,-47 -148,-103 -209,-167l0 -1c-61,-64 -113,-137 -157,-218 -43,-81 -75,-166 -97,-255 -21,-90 -32,-183 -32,-279 0,-196 41,-374 123,-535 41,-80 92,-153 152,-217 59,-65 128,-121 204,-168l0 0c78,-48 163,-84 254,-107 91,-24 188,-36 291,-36 104,0 202,12 294,36 92,23 176,59 253,107 76,48 144,104 203,168 59,64 110,137 151,217l0 0c41,81 72,166 93,255 20,89 30,183 30,280l0 117 0 59 -58 0 -1561 0c6,29 14,58 24,85 17,49 39,95 66,139 27,43 58,81 94,116 36,34 76,64 121,89l0 0c44,25 93,44 144,57 52,13 109,19 169,19 64,0 123,-7 175,-21 52,-13 98,-34 140,-61l0 0c43,-28 81,-60 113,-95 33,-35 61,-75 85,-119l17 -31 35 0 319 0 86 0 -31 80c-36,92 -82,176 -139,251l0 0c-56,76 -124,143 -201,201l-1 0c-79,59 -169,104 -270,134 -100,29 -211,43 -331,43l0 0zm-609 -1277l1179 0c-12,-51 -30,-99 -53,-144 -32,-63 -74,-121 -126,-172 -51,-50 -111,-87 -178,-112l0 0c-69,-26 -147,-38 -233,-38 -87,0 -164,12 -232,37 -67,25 -126,63 -176,113 -52,51 -94,108 -127,172 -22,45 -41,93 -54,144l0 0z"/>
    <polygon class="fil0" points="15399,10380 15399,10104 15399,10083 15413,10066 16497,8761 15474,8761 15415,8761 15415,8703 15415,8434 15415,8375 15474,8375 16992,8375 17051,8375 17051,8434 17051,8706 17051,8728 17037,8744 15950,10049 16992,10049 17051,10049 17051,10108 17051,10380 17051,10439 16992,10439 15458,10439 15399,10439 "/>
    <path class="fil0" d="M14121 10470c-70,0 -140,-8 -207,-25 -68,-17 -134,-43 -198,-77 -64,-34 -123,-77 -175,-129 -52,-50 -98,-110 -138,-177 -40,-69 -70,-145 -90,-227 -19,-82 -29,-172 -29,-268l0 -1133 0 -59 59 0 292 0 59 0 0 59 0 1125c0,82 11,155 35,219 22,63 57,119 102,167 46,48 97,84 155,107 57,24 122,36 194,36 50,0 97,-6 141,-17 44,-11 86,-28 126,-51 39,-23 75,-50 107,-81 31,-31 59,-67 84,-107l0 0c23,-39 41,-82 53,-127 12,-46 18,-96 18,-150l0 -1121 0 -59 59 0 292 0 59 0 0 59 0 1946 0 59 -59 0 -292 0 -59 0 0 -59 0 -148 -18 17c-46,42 -95,80 -149,115l0 0c-56,36 -119,63 -190,80l0 0c-70,18 -147,26 -231,26z"/>
    <path class="fil0" d="M9930 10380l0 -1946 0 -59 58 0 292 0 59 0 0 59 0 125c34,-33 73,-66 117,-98l0 0c53,-40 116,-69 186,-88l0 0c70,-19 146,-29 230,-29 141,0 272,37 391,112 60,37 113,82 160,135 27,29 51,61 73,95 21,-27 45,-57 74,-89 31,-34 66,-66 106,-95 39,-30 83,-57 131,-81 50,-26 105,-45 164,-58 59,-13 122,-19 190,-19 67,0 133,9 196,27 64,17 125,44 184,79 59,35 113,77 161,128l0 0c48,50 90,107 127,172 37,64 65,135 83,212 19,76 28,157 28,243l0 1175 0 59 -59 0 -292 0 -59 0 0 -59 0 -1167c0,-76 -10,-143 -31,-203 -20,-58 -51,-109 -91,-153 -41,-44 -86,-77 -136,-98l0 0c-49,-22 -105,-32 -166,-32 -64,0 -124,10 -178,31 -55,22 -105,54 -152,97 -45,41 -79,92 -102,151l0 0c-23,60 -34,130 -34,210l0 1164 0 59 -59 0 -292 0 -59 0 0 -59 0 -1167c0,-76 -11,-143 -31,-203 -20,-58 -51,-109 -92,-153 -40,-44 -85,-77 -135,-98l0 0c-50,-22 -105,-32 -166,-32 -64,0 -124,10 -178,31l0 0c-55,22 -106,54 -152,97l0 0c-45,42 -79,92 -102,151l0 0c-23,60 -35,130 -35,210l0 1164 0 59 -59 0 -292 0 -58 0 0 -59z"/>
    <path class="fil0" d="M18504 6960c-103,0 -200,-12 -291,-36 -91,-23 -176,-59 -254,-107 -77,-48 -146,-104 -205,-169 -59,-64 -110,-137 -151,-219 -41,-80 -72,-165 -93,-255 -20,-88 -30,-181 -30,-277 0,-98 10,-191 30,-281 21,-89 52,-173 93,-254 41,-81 92,-153 151,-218 60,-64 128,-120 205,-167 78,-48 163,-84 254,-108 91,-24 188,-36 291,-36 104,0 202,12 294,36 91,24 176,60 253,108 76,47 144,103 203,167 59,65 109,137 151,218 82,160 123,339 123,535 0,193 -41,371 -123,532 -41,81 -91,154 -151,219 -59,65 -127,121 -203,169 -77,47 -161,83 -253,107 -92,24 -190,36 -294,36zm0 -382c68,0 130,-8 185,-23 55,-16 105,-38 150,-69 46,-31 86,-66 120,-107 34,-41 64,-87 87,-139 24,-52 42,-107 54,-164l1 0c12,-57 18,-117 18,-179 0,-64 -6,-125 -19,-182 -12,-57 -30,-112 -54,-163 -23,-51 -53,-97 -87,-138 -34,-41 -75,-76 -120,-107 -45,-30 -95,-53 -149,-68l-1 0c-55,-15 -117,-23 -185,-23 -66,0 -127,8 -183,23 -55,15 -105,38 -150,68 -46,31 -87,67 -122,107 -34,41 -64,87 -87,138l0 0c-25,52 -43,106 -54,163 -13,57 -19,118 -19,182 0,62 6,122 19,179 12,57 30,112 54,164l0 0c23,51 53,98 88,139 34,41 75,77 120,107l1 0c45,31 95,53 150,69 56,15 117,23 183,23z"/>
    <path class="fil0" d="M13296 6960c-103,0 -201,-12 -291,-36 -92,-23 -176,-59 -254,-107 -77,-48 -146,-104 -205,-169 -59,-64 -110,-137 -151,-219l0 0c-41,-80 -72,-165 -93,-254 -20,-89 -31,-182 -31,-278 0,-98 11,-191 31,-281 21,-89 52,-173 93,-254 41,-80 92,-153 151,-217l0 0c59,-65 128,-121 205,-168 78,-48 162,-84 254,-108 90,-24 188,-36 291,-36 104,0 202,12 293,36 92,24 177,60 254,108 76,47 144,103 203,168 59,64 109,136 151,217 41,81 72,165 92,254 21,90 31,183 31,281 0,96 -10,189 -31,278 -20,89 -51,174 -92,254l0 0c-41,81 -92,154 -151,219 -59,65 -127,121 -203,169 -77,47 -162,83 -254,107 -91,24 -189,36 -293,36zm0 -382c67,0 129,-8 185,-23 55,-16 105,-38 150,-69 45,-31 85,-66 120,-107 34,-41 63,-87 87,-139l0 0c24,-52 42,-107 54,-164l0 0c12,-57 18,-117 18,-179 0,-64 -6,-125 -18,-182 -12,-57 -30,-112 -54,-163 -24,-51 -53,-97 -87,-138 -35,-40 -75,-76 -120,-107 -45,-30 -95,-53 -150,-68l0 0c-56,-15 -118,-23 -185,-23 -67,0 -128,8 -183,23 -55,15 -105,38 -151,68l0 0c-46,31 -86,67 -121,107 -35,41 -64,87 -87,138l0 0c-49,103 -73,218 -73,345 0,124 24,238 72,343l1 0c23,51 53,98 87,139 35,41 75,76 121,107l0 0c46,31 96,53 151,69 55,15 116,23 183,23z"/>
    <path class="fil0" d="M9992 6870l0 -2577 0 -59 59 0 1234 0c139,0 264,19 376,58 113,39 211,97 296,176 85,79 149,171 192,277 42,105 63,223 63,354 0,87 -9,166 -26,237 -17,73 -44,137 -79,191 -34,54 -73,101 -117,141 -44,42 -92,76 -145,104 -49,26 -99,49 -150,68 -24,9 -48,18 -72,25l634 973 59 91 -109 0 -346 0 -32 0 -18 -28 -605 -961 -804 0 0 930 0 59 -59 0 -292 0 -59 0 0 -59 0 0zm410 -1324l832 0c44,0 88,-4 133,-10 45,-7 90,-17 135,-30l0 0c43,-13 82,-31 118,-54 36,-22 69,-50 98,-83 27,-31 48,-68 62,-112 15,-45 22,-98 22,-158 0,-74 -12,-140 -37,-197l0 0c-24,-55 -61,-104 -109,-146 -50,-42 -109,-74 -175,-95 -68,-22 -145,-33 -231,-33l-848 0 0 918z"/>
    <polygon class="fil0" points="15550,4865 15659,4865 15659,4145 15659,4086 15717,4086 16009,4086 16068,4086 16068,4145 16068,5744 16906,4883 16923,4865 16948,4865 17356,4865 17500,4865 17398,4965 16651,5697 17463,6836 17529,6929 17415,6929 17057,6929 17026,6929 17009,6904 16367,5984 16068,6279 16068,6870 16068,6929 16009,6929 15717,6929 15659,6929 15659,6870 15659,5239 15550,5239 15550,5239 15491,5239 15102,5239 15102,6870 15102,6929 15044,6929 14752,6929 14693,6929 14693,6870 14693,5239 14355,5239 14296,5239 14296,5180 14296,4924 14296,4865 14355,4865 14693,4865 14693,4227 14693,4168 14752,4168 15044,4168 15102,4168 15102,4227 15102,4865 15491,4865 "/>
    <path class="fil0" d="M21123 10470c-93,0 -180,-7 -259,-23 -81,-16 -154,-40 -220,-72 -66,-32 -125,-69 -175,-111 -52,-43 -95,-91 -131,-145l0 0c-35,-53 -63,-108 -83,-166 -19,-57 -31,-117 -36,-180l-4 -63 63 0 304 0 52 0 6 52c3,29 10,56 20,83l0 0c10,28 23,55 40,82 15,25 35,48 60,69 25,21 54,41 89,57 34,17 74,29 119,38 46,8 99,13 159,13 18,0 38,-1 60,-3 24,-2 49,-5 76,-8l0 0c26,-4 52,-9 77,-16 25,-6 51,-14 75,-24 22,-9 43,-19 61,-32l0 0c19,-13 36,-28 50,-45 13,-15 23,-32 30,-52l0 0c7,-20 10,-43 10,-69 0,-31 -6,-58 -17,-81l0 0c-11,-22 -28,-42 -51,-58l0 0c-28,-20 -60,-37 -96,-53 -38,-16 -80,-30 -126,-41l0 0c-50,-13 -100,-25 -151,-36 -53,-12 -106,-24 -160,-36l0 0c-56,-11 -111,-25 -166,-41 -55,-16 -107,-34 -156,-53 -54,-20 -102,-45 -146,-74 -45,-29 -84,-63 -118,-101l-1 0c-36,-40 -63,-88 -82,-143l0 0c-17,-53 -26,-113 -26,-178 0,-97 18,-184 54,-260 36,-78 90,-144 162,-198l0 0c71,-54 158,-94 260,-120 100,-25 215,-38 346,-38 180,0 328,29 444,86 58,28 109,61 154,99 45,37 83,79 114,125 31,46 55,93 73,142 18,49 30,100 36,153l7 65 -65 0 -296 0 -52 0 -7 -51c-4,-34 -14,-65 -31,-94 -17,-30 -40,-57 -71,-82 -28,-24 -68,-43 -118,-56l0 0c-54,-13 -119,-20 -196,-20 -144,0 -249,20 -317,61 -58,36 -87,89 -87,160 0,30 5,55 16,76l0 0c11,21 28,40 51,55 27,18 60,35 97,50 37,15 79,29 126,41 52,13 102,25 151,35l0 0c48,11 102,22 159,34l0 0c56,11 111,25 166,41 55,16 108,34 158,53l0 0c53,21 102,47 146,77 44,30 83,65 118,105 36,42 64,91 82,147 17,54 26,115 26,182 0,103 -20,196 -60,276l0 0c-41,82 -101,150 -181,206l-1 0c-77,54 -168,94 -271,121 -101,26 -215,39 -340,39z"/>
   </g>
  </g>
 </g>
</svg>
